<mxfile host="Electron" modified="2023-12-02T14:15:20.714Z" agent="Mozilla/5.0 (Windows NT 10.0; Win64; x64) AppleWebKit/537.36 (KHTML, like Gecko) draw.io/22.1.2 Chrome/114.0.5735.289 Electron/25.9.4 Safari/537.36" etag="jhbmr8IEJFE2RoUXioOw" version="22.1.2" type="device">
  <diagram name="Page-1" id="3OfrIghDY_9bcbWBGGC3">
    <mxGraphModel dx="978" dy="571" grid="1" gridSize="10" guides="1" tooltips="1" connect="1" arrows="1" fold="1" page="1" pageScale="1" pageWidth="827" pageHeight="1169" math="0" shadow="0">
      <root>
        <mxCell id="0" />
        <mxCell id="1" parent="0" />
        <mxCell id="EgPqVIzmTn7RL6N8weFt-1" value="" style="shape=image;verticalLabelPosition=bottom;labelBackgroundColor=default;verticalAlign=top;aspect=fixed;imageAspect=0;image=data:image/png,iVBORw0KGgoAAAANSUhEUgAAAUcAAAEiCAYAAABqcBCCAAAAAXNSR0IArs4c6QAAAARnQU1BAACxjwv8YQUAAAAJcEhZcwAADsMAAA7DAcdvqGQAADl4SURBVHhe7d0HXFXl/wfwrwM3AoooKCBOnLn3yr23qaWWNqjULCs1bac2THNkmllajsy9+puz1Fy4BRWVKXsJMpSl53++Tw8/uHiugMLljs/79TovOA8XVLz3c5/9FFNUBAAAOorLjwAAkA3CEQBAA8IRAEADwhEAQAPCEQBAA8IRAEADwhEAQAPCEQBAAyaBw1OJiImjyIgISoiPpfCwMEpJSZFfyeJUvTpVqVKFateuTRXKl5elAMYN4Qh5lp6eToFBQXT27FnyunKFLl26REG3g9XyNMpQv5aWlkYPHz6Uj85SqnRpKmVlReXVYHR0dBQh2aFDR2rdpjXVrVNHPgrAuCAc4bE47CIjI+mfo0fpwP79dOrUKUpKSqLk5GRxcWDmh5UakmXKlKGKFStSpUqVqEGDBtS5c2fq3qMHNVQ/BzAWCEfQxKEYqNYKV61cQX/++SeFqU1mDsPU1FT5iILBYVmuXDmqXLkydevWjV559VVq2aIFlSpVSj4CoGggHOER8Xfv0rS33qIdO3aIMOTaoSGeJiVLliR7e3saMGAATZk6lRo3aiTKAIoCwhF0fPPNN7Ro0SLRlC5KNjY2NGbMGJo1axbVrFlTlgIYDsIRRM3wvPcN+mzOTDp4YD89ePBAfiVvihcvTsWKFaMSJUqIz7Pjp1dGRoZopj/JU61hw4Y06+O5NKhvD7KpaC3+HABDQDhaOJ56s/fPP+mLzz8nb29vzdHmnDiguLnL/YX8sW7dumKqTpMmTUSzOLv4+Hi6ePEi+fr6UlRUFGWowcsj25mBmVdvvvkmffbZZ1SpcmUqjoAEA0A4WigOpsTERJo7dy6tWrWKEhIS5Ff0K126tBhldnZ2FiPM3Xr2oQ4d2pNDJVv5CP34aRYTGyuC8p+//6bz58/TlStXxN/h3r17eapVNm/enDb+/ju5udWi0qWsZClA4UA4WiAOxqCgIFq2bBn9+uuvdOfOHfkVbWXLliUXFxdq06YNjR8/njp16iTKnkZqWhpdvXaNtvzxBx04eJCCAgMpLi4u19pks2bNaMZHX9CQfj2pXNkyshSg4CEcLZCfnx999dVXtHnz5sfWGLmm6OrqSl26dqXXPTyoZcuW8isF6/bt27Rl61baumUL3bhxg+7evfvYkLSzs6Pvlq+i4YMHkHX5pwtpAH0QjhaG5ysuWLCA1qxZI0JIn6pVq1Lfvn1p5MiRNHDgQFlauK5evUqbNm2iffv2ic+1liJmqlqtGs39eiGNGj6EbCpgSSIUPISjBYmIiKDVq1fT8uXLxef6cNN13Lhx9MYbb4gJ2obESxCPHj1Ka9aupUOHDlFsTIzeWqSzswt99PlceumFMWJwCKAglfhUJT8HM3YvJZV27NxFK1esoMDAQFn6qA4dOtCcOXNo4sSJRRI4PB2I1143btyYHlJx0TeamKjd9Ody/1s3qXGTJlSjenXxvQAFBeFoAXje4mlPT/pu0Xd04fw5Wfqovv360Rdz51KvXr1kSdHhKUFNm7WgitYVKPj2bTFopNXI4a6B0NBQMY2IN7UAKCgIRwsQEhJCK9Sm9J7du/Q2UXv06EFfffkltWrVymjmEVYoV1ZM33GoUoWuX79O0dHR8itZOPi5nCeyc0Da2uY+rQggL7DZrZlLS0unEydP0t69e/XuoNOxY0f6YPZsES4lcqxwKWqlS5WiYcOH0yeffELu7u6yVBePuO/evZt+//130WcJUBAQjmbO1/cWbdiwQTQ9tfCWYbx+uUP79kY7qMEBOXjwYHr7/Q/EJHQtPMC0detWMZgDUBAQjmYs+d49OnHiJB0/dkyW6OKJ3C+//DJ16dLlqSd1Fzbewmz40MH0zvTpskQXdxdw03vbjl0UE6d/ihJAXiEczRgfX/DX/r/0TvTu178/DRo0iKytrWWJcbO3s6HJkyeLv7MWXob495HDdOTwIVkC8OQQjmaK+96uXfehw4e0g6JGjRr0wgsviO3ATGmnmyr29mJLNX0DLwH+frT/r30U/ph5nAB5gXA0UzyCe/DgAb2rYAYMHEhtWrc2yR2369SpQ3PnzZd3usT2a+fO0cULF2QJwJNBOJopnr6zbetWeaeLd9Xp3bu3Sc8LfG7USDG6roWXHh47fpySkpJlCUD+IRzNEK+G8brhR+Hh4bJEV7t27ahRw4YmvaLExsaWJk+eIu908V6RvDXazZs3ZAlA/iEczVDi3Xg68+8/mhO+ea00H2TFTVNTZmVVkvr376e39nj61CkRkABPCuFohnh0+szp0/JOV9OmTalRo0Ymvw6ZB5F467KxY8fKEl38O/C64Uvh0Y/fqxJAH4SjmeH1xwkJieTl5SVLdHF/o5OTk7wzbRUqVBCTw3MezZDp+uULFOiLpjU8GYSjmUlNSyfvWwHyThfXFrnmyGe+mAueo9m6dWt5p4snhT9uByKAx0E4mpmHDx9QUqz2sao8t5Evc1LRxobad+gg73QFBwdTaFgYPXjw+KMXALQgHM1MWmoqXb3qLe90cR+due1aY602rbnmyEc6aAkKCafoO3HyDiDvEI5mhvsc9R0vwOHIlznhrgLHatWofv36skRXdEQoJcRjUAbyD+FoZniFSECAdp8jby5R1sDHHhhCmTJlxJk3Wu7ExlJyUpK8A8g7hKOZ4c1f+SB9LVWqOIjD981N+fLlxSi8Fj7uNQnhCE8A4Qgmr7Rac6zi4CDvdMWqNcfExER5B5B3CEczU7x4cVGT0pKQmECJjzmn2lSVLFlS/TdXkHcABQPhaGY4KPQ1MePVJiY3MwEgdwhHM8Ojt/pGpHmPR33nyACALoSjmeFwrFSpkrzTFRMTIy5zw7vwJCdj0AUKFsLRzJRQm9WOjtprp2/fvi0OyTc3KffvU2Sk9qog7n/lqT4A+YVwNDN8Ul/Dhg3lna77aoiEhEdS3F3zGr3l7gLuT9XCU5f0nVgI8DgIRzMjVow4ViM3NzdZosvv1k0KCtSeJG6qkpOTRa1Yi0PVqmL9NUB+IRzNEDclec9GLbdu3qDAAH95Zx74nBw+GkGLna2d3qlNAI+DcDRD5dQwaKgnHHlpobcaJHymtTngWuMVLy9KTU2VJbpq1aqld2khwOMgHM0Q97G1b9dO3uni5YW8S7i/n58sMW1cazx+7Ji80+Xq6kouLs5UsoRp73oORQPhaIY4DPiMmC5dusgSXf/++y/5+PjIO9PGk9qPHDki73TxTj0uLi7yDiB/EI5miM9X4VHaznrCkTemOHz4MAWHhMgS08QbSuzevVuc0a2lwTMtqGYd7a3MAHKDcDRT3M82oH9/veerbNy4kY4fPy6mwZgi3reSa42///67LNHFXQtN6tchxyraE+IBcoNwNGO8xnrIkCGiJpkT71SzZfNmccYKB42pSU/PoP/7v316DxJr1749NW/eXN4B5B/C0YxVq1aNhg4dSo6OjrJE16FDh+jQ4SNixNfUREZG0NKlS+SdLj4ygY9OqFffXZYA5B/C0YzxDj0837FXr15iK7OcuM/uu0ULxeH3ptS8znjwgNasXUvXrl2TJbrc3d2pg1pzrFDe/HY9B8NBOJo5blrz2c4urq6yRJevry99/vnnonnK03xMwcmTJ9VQXyTvdPE66rbt2lHzFi1kCcCTQTiaOa49dujYkUaOHCnOkNHCzevFixdTUEgYPTTy/kcO8dc9PPQeBdGgQQMaMXy4OHQL4GkgHC1AtapVaeiQodROrVFxWGpZv349rfjxJwqL1J4WYwx48Oi9994Th/VrsbGxoV69e1PHjp1kCcCTK/GpSn4OZszBwYGsSpUiHzVY9M0LvHzxPGU8LEYuztX1TgEqKn5+fvTlV1/Rli1bZIkubk5369aN3p0+nWrUqC5LAZ4cwtFCcI2RJ4bztmU8kHFPY2017xLudfmiCE8XZ2dyctLeF9LQuCm9bNky+uWXX+jhw4eyNAsPNtV3b0Aeb0ymXj26y1KAp4NwtCDW1tZigIbXI/NAjNbh/zxqfeXKFbEFGD++ppub3qZ4YUtV/y68bnrhwoX0xx9/6B1R51rxax6v0+jRY6lc2dKyFODpIBwtDB+hUEMNyNCwMAoMCNB7pgzv3sMheScuTuyJaOjzrqNi42nH9m20ZPFisdRR3647vB0ZDzZNnTqVqjmY35ncUHQQjhbIvnJlqlmzJoWpAck1RD6DJSdeNcPN60sXL9KNGzdELa527dpignVh4trhqVOnaMnSpbR27Rry9vbSW2MsVaoU9e/fn+bMmUO1a9WSpQAFo5j6IjC9tWPw1DgQL126RJ999hkdPHhQb82M8e7iNWrUoM6dO9OgIcOoc9duBb5mOU2twV719qbt27eLvw/3M2r1i2biv9OAAQNo/vz5ejf2BXgaCEcLxgHJG99+qQbMn3/+mesyQh4RrulWixo3bkI9ezxL3bt3J1e1BlrKyko+Iv8iIiNFv+KJEyfI09NT9IXGxsZqDrxk17t3b1qwYAE1bdpUlgAULIQjkL+/P61atYqWL18ulhTmxkoNQ+6D5LXbdevWpTZt2lCzZs2pVp3a5KSWcXNXn3v376s11svk7XWFbt68KZYu+gcEUIzahM/Ln80mTpxIM2fOFPs1AhQWhCMIfJ713yc86Z0pHhSaj30eOQh5VLtChQpiBQ7f8yqVnKtxuCbI/ZtcK+QQ5FoqN5v5yq2WmMnOzo6+/mYBDRo4QAQzQGFCOML/pKalk5+fLy389lsxp/BJcUBqbZPGI+N5DcKcevbsSfO//FJt0jemsjiHGgwA4Qg6+OnA8x8P/etJn89+j86dOye/UjRsbW1p7rz5NGb0c6LmqLW7EEBhQDiCJp4ozv2J+pYaFjZeJz393XfJ47XXcHogFAmEI2g6qNYce3duK+8Mx83NjcaNH0+vvvoqOdeoIUsBDA/hCI/gbcuGDxtGu3btkiVZypUrJ/r9eFoPjzTzdCDeB5I/5qc/kZck8pU5h5JHvHv2HUh9eveiqvZ28lEARQfhCI/gpYVNmzShO3fuyJIs9erVpw9mz6aXXpwgTi88eeIkeXldoQsXLoidc3iqTkZ6Omk9q3iMhlfYcMByGPIZLy1btRZha2tTUT4KwDggHOERS5cto2lvvSXvsnAtb/io0bTwu8XkXE17HXOsGqjBwSGUnv7okr9SpUrTM02byDsA44ZwBB0pqanUpnVrsXwvJ55bOGvWLJo2bZosATBfmBcBOi5dvqwZjIxPMcRxp2ApEI6gY8Xy5fIzXTyxm9cxt2lr+BFsgKKAcIT/4eV9vHeiFp5r+Oyzz1KZQt6yDMBYIBzhf3bv3i3WPufESwF5B/FOnXBwFVgOhCMIvJ8jh6PWxrK8sUTXrl3FZrcAlgLhCML58+fFsQhaE7krV65MAwYOlHcAlgHhCMLevXs191PkVSy8b2KzZs1kCYBlQDgCBUdE07Hj/4pjW3PiA6wGDR5M5cuVkyUAlgHhCLR7x3byvXVLs0nNcxv79esn7wAsB8IR6OD+fRQfHyfvsnCTmtdAY3ccsEQIRwvHAzE+Pj6ao9SlSpem0eMnFdmh/gBFCeFo4Xbs2EHh4eFiB/DseG6jQ5Uq1K1TO1kCYFkQjhYs9k4cHf/3X0pMTJQlWXi54Pjx46lcGayIAcuEcLRgR//5m4KDgx+pNTLed3HylCnyDsDyIBwtGK+ICVHDUcuoUaOoqoODvAOwPAhHC3Xdx4d8ff3Ecala+vTtKz8DsEwIRwvEzejDhw5RQIC/LNHFZ7qMGjlS3gFYJoSjBUpISKBjx49TWFiYLNE1adIk+RmA5UI4WqDLly9TUGCgvNPFh195vPGmvAOwXAhHC5Oalk5Hjx2nmzdvyhJdvfv0IadqOEQfAOFoYfwCAumM51mKj4+XJVl4buNLL70k7wAsG8LRwnhfvkg3rl+Vd7pq1qwp1lIDAMLRosTFxdG58+fFWTFaePcdW1tbeQdg2RCOFoSPXD137pzmJhNlypShYcOGUykrK1kCYNkQjhaCz4jhHXiuenvLEl3cnHZ3r08lSpSQJQCWDeFoIbgpfer0aYqKipIlup4bPZqsK1aUdwCAcLQQ3KQ+rzaptbi7u1P79u1xJjVANghHCxB/9y5dvHhJ70AMz22s7uRExYvj6QCQCa8GC+Dn60unTp2ijIwMWZJFHKA1cCDZ2dnJEgBgCEczx4HIq2G8vK7IEl3t2rWjunXrigngAJAF4WjmYmJi6OzZs+Kjlt4DhpBdpcryDgAyIRzNXFBQEP3zzz+ax666ublRhzYtqUJ5nEkNkBPC0Yzx3Ebe1JZHqrXwhra13GpiIAZAA14VZiw0NJR279qlORDDuL/R3t5e3gFAdghHMxYREUFHjhyRd7ratm1LjRo2xEAMgB4IRzPFwbhnzx66e/euLNHVvUdPqunmJu8AICeEoxniM2J4dPrkyZOyRFeFChWobp3aVFqtNd6/f59S09LEQVtaR7QCWKpi6gsCrwgzw7vu7Ni5k8aMHi1LHsUB6eLiIvod3Rs0oGrVqlGb1q2pbNmyZGVlJT6WVD+WLFkSywrBIiEczVBISAhNmzaNtm/fLkvyjlfKuLq6UseOHamGszM5OjrRM02biL5JDkwO1VJqWPLn2N4MzBnC0czwfEbPs+epV8/ulJSUJEufDm9jVqVKFbGSpmnTpuTk7Eq1atch1+rVRFhyUPLBXGXLVSBr6/JUEtuegRlAOJqZpOR7tPSHH2nOjOmypPDwNCA+WsHJyUlcjs5uVKeWKzlWdRBrtitWrCg+lq9oS5VsrOV3AZgGhKMZ4f9Knts4cuRIOnPmjCw1PF554+joSM5qs7ya+tHRtTa5uzlT5cqVRQ2zgrW1WuO0JuuKNmRdvqz8LgDjgnA0Iw8ePBDzGocNG0bJycmyNAvX4niAhZvb/FhD4lU43Czn5jkHZ1VHJ6quNs9r1nAUoWmtBibXRCvx52pwWlmVlN8JUDQQjmaEp+VMnz6dVq5cKUuycDD279+fmjdvTtHR0WJH8LCwMDEPkqf98OFbHJqGfjpwn2WNGjVEMPLoefUaXMOsRI7VqlGlSpXEgV9OTtXV0KxENmozvVixYvI7AQoXwtGMBIeEULu2bUXo5dSgQQOaP38+DR06VMxpjL1zR2x+G6+GYmRkpAhIDs3wiAgKCgwUNU/+OTzyXRQ4LPniWqWLiyvZqzVOO1sbMZJuY2NDDg4O5KJ+zgFqrQYsQEFDOJqRX3/7jV568UV5p2vEiBG04Ntvya1mTVnyKN6oIloNyVA1ELkWyqHJfZgcpBHhERQQ4C9qnHxxkBYFHvjh2iYHp1P16qJmaa8GaK1atahq1aqi3M2tlvqxspivCfCkEI5mpHv37vT333/Luyxcu5oxYwa9++67os8xP3hq0N2EBLoTGytqktz8vsNhqQZnrFoWHBxMwWoNNPPze/fuye80HJ6DWV0NSv532thwM9xR1Cz54v5Nrn1WV5vuotapNs2xCxHkBcLRTPDJgt2ffZZSUlJkSZaWLVvS119/TT169JAlTy9NbZonJSZSjBqKsWptM1H9nAMyKjpG1Cxv3bpJIWpYchnvRG5o/CbANUye1M6DPRyc3DR3UC9eDZTZPK9Xvz65uriIUXSA7BCOZuKd6dNp8XffybssHBLPv/ACLVm8WDRBC1uK2jTn/kquafJgDzfPOSB9/G9T+G1/ClOb6dxU50vfgV+FiZvaHJocjGXKlFFrlfbq78VGNMm59lmvXj2qVbs2VXeqrgaoi/wusEQIRzPAo8y11Re01pnUPBI8Z84cev3112VJ0bibmEz3kxNFs5sDkz9GREXTDV9/Cg30EwM/3Cz39fUVYWpo3DTn2iNPXOd5mOXKlhW1TQ5NDsxGjRqpNU5HtaZZjyqr5WD+EI5m4Oeff6ZXXnlF3unq2rUbrVm7ltxqusoS45Hx4IEalCmUmnJfDAbxxcHpHxxGvjdv0O0APwoMDBS1zMuXL4sNNQyJpw1lrinnqVCZAcpNda5ltmrViuqqwVm1ajVq1bJFvvtzwbghHM0AT/reuXOnvMvCfW2vvvoqffPNN2J9tKlIz8igdLmNGl+8kzkH52Uffwq44SWmGh09epQCAgLEAJGhcWhy85yb5fyRQ5E/5wnuvJyya9eu5Kp+5ClIvGkHmCaEo4m7ciOAundqIwZFcuJazbKlS6lPnz6yxLSlpqlhmZYqwpJrmBycPBB07vwFCgsLJZ/r18nT01M0z7VWCBU2HgXP3O4tMzR5alGTJk3EBHdeIVSzTj1q0KAhOVZB09zYIRxN3JuTJ9Pq1atFTSs7fnH26tWLNm7cKAYfzBU/fTksecoRL4nM/Dzo9m3y9r5KIcG36fTp03Tp0iXRPOdANTQOSQ5OvrgGzxevP3d3d6c6deqIN7Fa7k2oZZMGVK5sGfldUNQQjiaOBwt4ECPnfyPP8ZsyZQp99NFHsgTY2XPnyN/fn/z9/OjAgQN0Xa1t8mR3Y9GsWTNRw2zYsKGYZlS3cUtq3aSe/CoYEsLRhG3bto0mTJigOfG6Zeu2tH7TFnKv5SxLQB9eAXTxwkU6d+6sOHuHa5mZ/ZlcG+Urs2bKHw2tdOnSYvCH52Y2adqUWrduQzXdapJ9pUqiFso1Uq6dZn6O9ecFA+Foonik93UPD/r1118fOXqVR1VHjRpF69evlyWQX9z8DgsPF6HJE9qDgoJELZOnHHE/Jw8Q8e+dR9D5sYbe5Yjxyp/GjRuLQaBmzZpTg0aNyMW5BlW05l2NrMRVOnPQSA1OhGb+IBxNlJ9/AHXp3Elzkwlef7x48WIRkFCw7vFUI7VZfvHCBTHww4HJ3Rrcn5mWlq6GZooIzMzgLArcj8nzXvljK7WWyZ9Xd3IUA0Vcw+Q3z8yRdq5pgjaEo4ni6Tlz584VtZjs+Mnepk1b2vvnXkxWNqCIyCg1LG+L0PTz+29Su7e3twjIlBReNZQkapu8vLOoQpP7M/mNk/s0W7RspYZnbbKVK4X44uZ75nxOhCbC0SQlJiVR3z59xChszj4wnts4e/ZsmjVrliyBopKeniG2gLutNsm9vb1ETZP7Mm+rH1PUGiivbOI3N56WlJCQYPCmeeZUIx4556Y5r6ZqpDbTeYI77+Luol5c27RUCEcTtO+vv8jjtdfEiy0nnk+3fccOatmihSwBY5PMSycjIinA3080yXkQ6NatW2Jg6F7yPfVjLCXcvSsG2ngHJEPjGuTEiRPFGywPAlkqhKOJ4c7/qVOn0rp16x4ZpebRysGDBz/RkaxQ9OLVQOR9Mm/dvCne+HiN+Y0bNyj6Tjwlxt8RG3lkvwrT9Onv0gcffCD2xbRUCEcTw5ObR44YQefOnZMlWbgJ9PMvv9DYMWNkCZi6Bw8fkl9QKEWH3RY1TB6ACw8PJ//AILoTF6eGZpwISm6Wc5hqbVn3JObOmyf2/yyj1iItFcLRxPz222/04Ycfajap69evT6fPeJKtTUVZAuYq6d59Cg2LoOjIMIqKjBQ1Th4Euh0aTndiYyhebZpzk5yfJzkH7XLD/dYLFy4U6/ItGcLRhHBf1eQ336RNmzaJkc+cuBnE58SA5YqJS6CY6EiKjYmm6KgosasR1yx5nibv6B6jhiiPpnNw8kCQFh7NXrBgAQ0ZMkSWWCaEown5++9/6L333qULFy7Ikiy8geuJkyepaRPsAgOPCg0No8SkRIpTQ5GDMj4+XqwACgq6TXFq05x3bef5mxyaLVq0oK+++krsLmTJEI4mZObMmfTTTz9pbtPVrVs32r9/v5ijBpAXqWlpoibJOxhxfyWvMefpRbxRSctWrcjJ0VE+0jIhHE2Er9oUeuP118Wh/Vrre1eu/JE8PF6TdwBPjpem8kJDnv1gyTAN3kSc9fQUE4i1gpG39h8+Yri8A3g6vA7b0oORIRxNQEJiEh35+2/NEWo2fPhwqmJvL+8AoCAgHE3A5UsXyevKFb1rcie+/LL8DAAKCsLRBBw7doyuXbsm73T169ePnsEINUCBQzgauWCxu8tVMYqopa8ajryjCgAULISjkTt/7hxdvnzpkWMQGJ+r/PzYsZi+A1AIEI5GLCU1lby8vcWkXS1Dhw4V++9hh2eAgodwNGK8zItrjlpnxPBUiyGjx5EVao0AhQLhaKR4PuOlixfp7NmzskQXH7jUpmkDMScNAAoewtFI8XZUF9Rw1DojhvXo0YPKlSsn7wCgoCEcjZTP9et0/NgxeaeLN5kYNGiQ+AgAhQPhaIR4Kyk+nIkvLb169RLnfeAQJIDCg1eXEeKto44ePaq53x4fivRs9+5ka2srSwCgMCAcjQwPxPChS56enrJEF+/23blTJzSpAQoZwtHI8Al0p06dErVHLf0HDBBHZwJA4UI4GpkANRQPHTok73Txipg2bdqoTWo7WQIAhQXhaERS09Lp2g1fvQMxHTt2pPr16pGVVUlZAgCFBeFoRHib+r+PHNE8PIs3lxigNqlr1qwpSwCgMCEcjUhUZAQd++ewvNPFodioUSNxbCYAFD6Eo5HgLclOnT4tzh7W0qV7L3J1qy3vAKCwIRyNBJ/+tmf3bsrIyJAlWbhJ3apFM6rqUEWWAEBhQzgagQcPHlBAYCCdPHlSlujic4QbN2xApTAQA2AwCEcjwOcG//XXX+KjFj6TmvsbAcBwEI5GICEhgTZu2CDvdNWrV0/MbcRADIBhIRyLGNcWd+/Zo3cgpmHDhlS3bl3s9g1gYAjHIsa7fB8+dEjzjJiyZctS27ZtxXpqADAshGMReqgGYlh4OG3fvl2W6HJ3d6dmzZqJIxEAwLAQjkUoPT2dDhw4IO90cTO6ZavW1L5DB1kCAIaEcCxCiYlJtO633+SdLicnJ2rVsgXZVKwoSwDAkBCOReifk57k5eUl77JwrbFho0bUqVMnWQIAhoZwLELbf9euNfJGto0aNqTatbFcEKCoIByLCO/As2/fPnmny9nZRYxS87JBACgaCMcismHDBoqPj5d3WfjQrAYN3NGkBihiCMcikJx8jzZv3izvdNnZ2YkD+/l0QQAoOgjHInDq9Ck6c+aMvNNVq1Yt6tGzp7wDgKKCcCwCq3/6SX6mq3z58qLW2KghNpkAKGoIRwMLDgkRZ1Jrsbe3py5dulC5cmVlCQAUFYSjge3etVvvQAwfhdCpc2dZAgBFCeFoQPfv36e9e/dQWlqaLMnCcxv5dMEaOJMawCggHA3oipcXXb16lR4+fChLslSqbE+9BwyWd8Di796ltPR0efff9m4AhoJwNKBt27aJs2JysrKyoubNm1Gr5s/IErh85QrNmDGDvvryS4qOjhZlS5cupalTp1JiUpK4ByhMCEcDib1zh44dPSaa1jlxk3rIkCFUvixWxKSkpoo3kfffe4/+2LSJli9fTseO/0u//76JVq5cSevWraPnn3+efPyD5XcAFI5iitYuq1DgVv/8M3300UcUER4uS7LwhG9PT09ydHSUJZYpNCyMVq5YQRs3bqTg4GCxpRtr3LixGMQKDQ0VmwKXLFmS3Bs2otmzZtLYsWPFYwAKGsLRQAYOHEgHDx58ZDCGd/vmmtCqVavEiLWlunTpEs2bN+9/B41lf1ry7yVnPy3vXMTbuk2ePJmmvvUWVShfXn4FoGCgWW0A/xw9SteuXdMcpbauWJHGT3jRYoORl1KuWfsrjR8/nnbu3ElJSUmPHBmhNYDFj+Ga5IIFC2j27NkUo9GXC/A0EI4GcPzYMYqLi5N3Wbj24+LsTF27WObcRp4QP+fDOfTW1Cnk7e1NGRkZ8it5x79XboqPGT2ajqm/Z4CCgnAsZElqE3H//v2aE79Lly4takyWJuPBAzrj6UkvPP88LVm8WNQWnwb3TR4+fJg8PDxo165dshTg6SAcC9kutanIgwtaeC31yOdGyzvzx83jqKgo+vHHVdS3Tx86fvy4/Io2HnjhwaolS5fSlClTcj2728fHh6ZNmyam/MTFxWs2xwHyjAdkoHCkpacrL7zwgmJlZcWdaI9c6gtePtL83bufoly7dk0ZMmSI5u8i+1WsWDHFxsZGGT16tHLx0iVFbW6Ln7Fy5UqlatVqSvHixTW/L/MqU6aMMum1N5RrN32VtLQ08b0A+YVwLEQXva4rbTt01HwBq7Ui5cDBg/KR5i08PFz5ZcNmpWHDhpq/i+xXqVKlxOMWL16sxMTEyJ+QxfPsWaVT585KuXLlNL8/8ypbtqwyYuRI5aD6O1ab7fK7AfIO4VhIuLazYMECxcHBQfPFW79+fflI85Wu1pwvX76sTJw4UbG1tdX8PWS/+DEDBgxQ9h84qNxPSZE/5VHhkVGKh4eHUrlyZc2fk/165plnlLVr1yoxsbHKg4cP5U8AyB3CsZBER0cr48eP19ukfm/GLPlI88T/fq61tW7dWvPfn/3iZrKjo5PyxpuTlatXr8qf8Hj3799XZs6cqbi5uWn+zOxXjRo1lG8XLlRuh4Spb1oP5E8AeDyEYyHZf+CA0rx5c80Xq52dneLjHywfaV64tnjjxg3lo48/VqpUqaL5789+WVtbKx07dlSWfP+DEn3nrvwpecMBuemPzUqzFq1EN4XWz8+8uBn+5rTpyhnPs+iHhDxBOBaClJRU5ZNPPlUqVqyo+UIdOnSofKR5iU9IUg4cOqSMGTtWDIpo/dszr/9qi47KK6++qpw+fVpJTU2VPyV/UlLTlCPHTyqDBw8Wgzhaf1b2q3v37sru3buVu3fvKg/RzIbHQDgWgitXrigDBw3SfHHytXHjRvlI8+Hr66ss+G6J0rpNWzGoovXvzry4ltdMrVXzoEtAQID8CU+O+3d5JPzdd99VXFxcNP/M7FejRo2UpUuXin5IAH0QjoVg+fLlirOzs+YLs169ekpkVJR8pOm7d+++ckitLb788suKvb295r85+1WhQgVl+PDhyp49e564tqhPRESEsmTJEqVly5Z6+3ozLycnJ+X9GTPFGxmAlhKfqtQnCxQQPqx//fr1dPLkSc1JyOPGjaMBAwaICc6mjv+tu/fsoWVLl4pVQGpTVX7lUbxUsl79+vTCi5PoDY/XqFu3blSiRAn51YLBW7+pbz7kUM2J7iYkUlRkhOZ6dpaYmEiXLl6kkNBQsfu6WuOUXwGQZEhCAeFalL4RWh4UOHLkyP8mNZsqHnS5dPmy8t777yt169ZV1JDT/Pdmv3r16qXs2rVbib4TL39K4UlSa7PHT5xSJk2alKdBoa5duypbt25V7t2/L38CAJrVBYpHQb9ZsEDvQAy/CLnpZ8ri4uOVrdu2KX379cvT3EUejZ4xc5Zy7tw5+RMMI119A+JR888//zzXfkgeHOKJ5zNmzlRuh5tPlwc8HYRjAbp+/boybPhwzRcgXz+u+kn00ZmqkJAQ5ZNPP1Xqu7vnOnWGr/bt2yvr1q9XoqKj5U8wPLXpr/y2bp3SsmWrXGu4HPYvv+YhasUACMcCtGvXLjHgovXCq1OnjlgtYorTR9LS0pUznp7KyJEj8zTowjVnXhd94cIFJeUxK10MJSk5WTl2/LgyaNCgXKcY8YBRj549lT///FN+N1gqhGMBibubqHz8+TyldOnSmi+6t995R9RiTE1iYqKYctOhY8dc1zPzxStWlv+wQjRpHzwwntUoqWlpio+PjzJu3LhcA5L/D7nf+Jc1ax67jBHMG8KxgJw+c0bp3KWr5ouNa1K8Yqagp64UJq7h8pQj3jmIa4t5GXTp27evGHDiQDXWGnJoaKiyZOnSXPtL+d/LfZWfqG94oZGPboAB5g/hWEC2bNkilgVqvdA6deokJkmbUpP60OEjYtMG3t1G69+U/eKm6LS331ZrZjfESLaxS1ab2f93+LjinMtADW+dVqGCtTJo8GCxigcsC8KxAPBAxeTJkzVfYHwt/uEnJTHpnny08Zs1a5ZSvnx5EQ5a/57sV9OmTZUtW7eK5XjG1IzODY9m3w4OVtq1a6f578p+cS2Sm9m7du82qdo/PB2EYwE4duyYmO+n9cLi9b4nTpyQjzRuF676Kj179dL8d+S8uP9xwoQJynUfH/ndpuuNN97Q/DfmvLg/9bd169Wap+m80cGTQzg+peR795TlK1Zovpj44gAJCgqSjzY+3NTnzWB50CUvGzdwLapmzZrKgm+/VeLV2qI54Nrgj6tWKS4urrn2rfK8zXfeeUe5efOmSdWUIf8Qjk/J399fTHHReiHxC403mTDWfjj+e4WFh4tpN3kZieYNJTp27GSW01x4d58DR08pHTp0yNMczhEjRoi9J3m1kylOz4LcIRyfQoZac+DRWa5NaL2AOnfuLOb6GRuu8fCI8rZt28QmDbnVlngFiaurqzJrzkdKYKjpTUfKK/69cDfBc889J/pctX4X2S8O0gMHDiiJSckISDOEcHwKUVFRyqeffqb5wuFA4S20jG25YGpaunLz1i3liy++EDtka/3ds188548DdP369aILwRLwdJ/33ntPqVot98O8uCti2Y+/mNVOS/AfhOMT4poCrxdu0aKF5ouGN3LduXOnfLRxiIuLUw4c/kcZMGhornsu8lWpUiXl+eeft8hpLLyGfPXPPyvPNGuW66RxDsj3339fuaW+6YD5QDg+Id6i/9ffftN8sfA1fMQIsQGrMeC+Rf+AAGXhwoVK48aNNf++2S+uLTZp0kStFX8qlt5ZKv4//mv/frFzu76uk+wXL0/kmQs4hsE8IByfULjaXOYNXrVeJDy4waO5/OIqavfUprCn51llytSpeVoXzRPZBw8doWzfvl3+BDh//rzy0ksv6T1JMvvVoEEDZfuOHUpcAo6DNXUIxyfAJ9idOOWpt8+ubbt2RX4mNQ8ucJ8o9xX26t0716YhX7w5xieffKL4BoXJnwKZeML4p1/MVdxq1c61H5L3kPxq4RIlWP0eMF3YCfwJqLUx2vjHFtq1Y5ssyWJlZUWjRo2iIUOGkNoUk6WGxbtfX/Hyop9Xr6bvv/+ezp87RxkZGfKrj1KDk559tjtNm/YWvf7661Slkq38CmSyqViRmj7TnKo4OFB4WCjFxsbq/Z3y8+PUieN07/59srW1papVqxb4rudgADIkIR/Cw8OVNm3aaNYauDa5bt26IpvbyE15bhL3798/T7VFXvUxffp0tel4QUkzgXXRRY1399m/f7+YG6pvU+PMi3//vdVaOy+vtOS+W1OFcMwnDr29e/fqDR7eIfvixYvy0YYVHhGpzJ8/X6x31vq7Zb/478/7Fq5Zu1YcwI/VHvnj5eWlvD9jhlJdfTN83Bp0nhXAG3gsXrLE5HeBtzRoVudTamoqLf/hBzp16pQsycJN6mFDh4kmdenSpWWpYfABV6tWraI1v/xC/v7+slRbpUqVaKTa9J8yZQr16d2bbGxsxAFYkHcOavO6fv36ZG1nT2GhIRQTE8MVDfnVLOqbDqlvPnTdx4eSk5OpevXqZG9vL78KRu2/jIS88g8M1HvsqvpiEQc1GRJvv/Xzzz8rzfIwH48vd3d35euvv1Z8ff2MdlmjKYmNT1D2qC2JLl26aP6+s188b3T8+PHKiZMnMd3HBCAc80mtNWo+8fkaNeo5JdCAm0xc97mhTJw0SSzt0/r7ZL+4eddPbfLzksFYHGZfoDjoeJno2LFjNX/32S/e+7JPnz7K1h27lTtqsILxQjjmk77+PF4Rs2TJUoPUxngZ34YNG8QmunmpLfLfbcaMGYqXtzeOHy1EAQEByqLvFue6yzhPsm/cpKky/6uvxFJFME4Ix3zwPHtW744tvGnqv//+Kx9ZeAJCIpTZH36k1KpVK9f5dvx35VH13zdtUmJiYjDoYgAJiYnKrj17xVGvWv8nmRf/31WuXFmcrc3bn4HxQTjmw+QpUzSf6FZWVsorr74q+v8KE08h6dd/gGJXqVKuwcjNN95Wy/PsObFfIxgOT6fi9ei8a4/W/032i5cl8tk7vAqHtz8D44FwzCPe2FVf3x6X//LLL/KRBY+bwou++07sNs5BrPV3yH7xCo1FixaJKTp4wRUN/r3zCYx8QJnW/1H2i/9PeTBv575DSvJ9nHZoLBCOefTH5s1657N16vqs4uNXOAMx3levKi+++KLox8rtTBfel7Fvv/7KiXNXcNaJEeBujMjoWGXJitW5Thjn/9ty5cor3y5ciJq+kUA45hEPfmg9qXm7Kj6QqqClqOG2ddu2PO2ik3nNnDnTbI4uMCe88uj/9u3Te85Qzot39wnBQE2RQzjmwS0/f80nMV/c8V6QAzHcHAsMDlM+/Gy+6DfU+jOzX9wk48GZzVu2yJ8Axor3/+T+xbx0jbRq1UrxunoNc1GLEMIxD3hHb60nMDeFunbrViDNIN48l+fLccf8wIEDNf+87Bf/2TwlhCcV8zkwYBp4ZPo1Dw/F1s4u124S7jv+v31/KSkp6IcsCgjHXPAINNfMtJ681apVE6tNnhb3TfHgCR/7yduGaf1Z2S+uedStV1+ZN28eXjgmKCwqVvlqwSLR6sjtMC9+A/z0008xFasIIBxzsW79eqVs2bKaT1xesvc0RwhwbZHDzdvbW3n7nXdy7bTnix/DfVKHjp0UO8SAaeLpPrxaifuyOQC1/q8zL37+jRkzRgzO3U/BQJuhIBwfg/t7eEmY1rs7P2FfffVV+cgnw7VFHgXPy3w4HonmGiwf/BQSEiJ/Apg67q/m+ai5zUbg1sKz3Xso2/fsE2cBQeFDOD7G1WvXxNI7rSers4uLsm/fPvnI/Lt+/boy58MP83Q2CY+Id+/eXYxe38VotNkJDAxS3nv/fTFf9nHH5PLEf9445LvFi7HLuAEgHB+Dp+honV/MT1LeheVJps3ExN0VK12GDRv2yM/NefELpXbt2srbb7+tXL58GSOXZoyfS8uWLROnWebWD8kDNdOmTVMuXLyI50QhQjjqEXc3UZwFo9XU4Sk23EmeXz4+PsqiZSuURo1yn7vIG0rwn//98uVKWBjOdLEEfBjapk2bxO5Jj6tB8sV9z8OHD1eO/HNUSbqHzUQKA8JRj5179yk19OzbyH1/3OTOK16twkd28rSbvJwAyDUDPi96/4ED6gsGT3xLc8XLS5kw6RVxiqXW8yPz4hpmuw6dlHUbN2EbukKAcNTAYebh4aH55OR3dD7HOK8iIiOVH1etytP2Ytxcr+/eQJn/9QLRJwmWKyQiRvn8iy/0nnCZ/eLjYOfOmyfmUGItfcFBOGrgYGrXvr1mk5pHqddtyn01CgfsmTNnlGlvvy2e4LlN+OWfy82pzVu34cxjEO6npIjD2tq2bav5nMl+cWuDd4bifsjUVEzxKggIRw3ff/+9mOCt9SRs3ryFGFR5nOg78crvm7eKsMttNJpDk0fEZ86aJXaTxvb5kB0PuBw+fFgZN26c5uBg9ov7IfsPGKDs3r0Hpx0WABywlUNCYiKt+OEHOn/+PD18+FCWZhk7dgwNGzJY3j3Kx8eHflixgn75ebX6M86JM4z1UZvR1KJFC5o56wMaO2aMOLBJbbbLrwL89xxRWx5U392drMpUoOCgAEpISJBf1cWHvwUGBornYAn1++rVqyfOJIcnJEMSJH6Xbt6iheY7M18XL12Sj9TFKx7+2r9f9Efa2dlpfm/Oi7ci4xU2OLoAcpPx4IESHBqurFy5MtddxvlycXFRZs+eLdbd80osyD+EYw7vvPOOmHSt9YTjidha88oio6LEucTPNGuW61IwvvjJvXz1r0qQAQ/jAtPHIceLAHbt2qV3C73sF592OGHCBOWC9w0lIwPrsvML4ZgNT7TuqD7p9A2eqM1l+cj/cFDytAvuD7KvUiXXowv4GjJkiDiaE3PT4ElxK8XT86zi8frruU734YG+1m3aKdu3b5ffDXmFcMyGz3/m5ojWk4znJyYmJspHKmI7+41bd4nlXHmpLfLa2Q8++EDUFtMx3QKeEj+HQkLDlPlffqU4OTlpPucyL37T5sO8PvvsM/ndkBcIR4n7/SZOnKh3ZcIrr7wiH6mIps3sOXOUympg5qW2yBtLHDhwQEzUxbZTUFDEVncxMcrSZcv0bquX/eLRbG5m303Aedl5gXCUDh06pLRs2VLzScXXjZu3xON8bt5UunXrJg7J13pc9oun8fBKl6tXr4rJuegYh4LGz6nMFVh52d2Jd/dp36Gj4n0rUP4E0AfhKC1ZskRxcHDQfELxmdRsw8aNYrKt1mNyXm5ubsrSlauV2Hi8S4Nh+AaFKYOHjshTN4+Lq6tyUK0QgH4IR1VgSLgycswLmk8ivviYBN5zT+trOS+uUfKGAGfPnpU/HcBw+MiODz/8UKlatWquq7K4H50PZeN9RdHd8yiEo4qnRjzulD+eEqFVnv3iTQB4mSA/MbGLDhS1X3/9Vay5zu0wL+76mTTpZdFdhNVZuix+hUx6ejpt37GDdu3cSRkZGbJU1/379+Vn2ngVQrNmzeijjz+m1zw8yM7WVn4FoGg888wz1KhRI7rl60fRUVF6n9tqINLVq1fp1q1bVKdOXapSxZ7UN3r5Vctm8eHITwz1XZauX78uS/KOl3Y5ODjQiJEjad68edSzRw88scBo1KxZk9p37UFJCfEUHBysdymr2qQW4Xj27FlSW0liuWLp0qVJbZbLR1gmiw5Hfjc9duwYbdq0ieLj42Vp3pQqVUq8O7/2mgd98MEH5OrqKr8CYDzs7Wyo+7PPktq8Jl9f38c+zyMjI+nixYuiNeXs4koVKlhTiRLF5Vctj0WHY3hEBP2uBuP+/ftlSd5UrFiR+vYfSB/OmU0vvPA8FveDUeM38o4dO5KTkxOFhIRQlNrM5tqiFg5PLy8vir4TT1XUVlEV+8oiWC2RRYfjiX//pV/XrqXw8HBZkru6devS+AkT6OPP59IzTRrJUgDjx32QrVq1pjtxdygsLExvXzo3v69f9abAAH+qZGcnmtkcsJbGYsPxnvrE2LN7N23ZskVvZ3V2XDts36EDTZkyRVzcXAEwNdxH3qpVK0pOThb9kElJSfIruvg14e/nR+XLl6f27duL1pKlsdgOhaDAQPL09KSUlBRZol+1atVo6tSp9N2iRTRp0iQqV7as/AqAaeFBRFcXF5r1wQc0ffp0atOmjfzKo/h536ZtW7KxscyKgMXWHHnDUO6A5s5n/pw3CtXSrl07mjZtGr39zjvkoj6pAEwdj0JbW1tT06ZNqVbtOhQbf5eCbwfp9EPa2tqKisCECRPI3t5ellqWYjzZUX5uUfiJEHvnDt28cYNOnTpF6zdsoCuXL8uvEjk6OlLfgUNo3JjnqEuXzpiiA2YpNS2dvK5eo59W/kBbt26lO+prgvsXR416jj766COqX7+efKTlsdhwzC4xKYlW/fgjLVKbzdxRzRO6J6rvmoOGDCOX6k4WPZ0BzB8fB3L79m3aoFYQ1qxZQzWcnemzzz6jDu07kJWV5VYKEI4Sn73BE7mLlyhBI4YP/6+vpWJFi58IC5YjJiaGzp49RxWsK1Crli2prIX3rSMcJW5m37x1S6wMqO7kJD4CWBrug2eWOrcxO4QjAIAGdKYBAGhAOAIAaEA4AgBoQDgCAGhAOAIAaEA4AgBoQDgCAGhAOAIAaEA4AgBoQDgCAGhAOAIAaEA4AgBoQDgCAGhAOAIAaEA4AgBoQDgCAGhAOAIAaEA4AgBoQDgCAGhAOAIAaEA4AgBoQDgCADyC6P8B9IrXAwb4D2QAAAAASUVORK5CYII=;flipH=1;" parent="1" vertex="1">
          <mxGeometry x="150" y="230" width="146.58" height="130" as="geometry" />
        </mxCell>
        <mxCell id="EgPqVIzmTn7RL6N8weFt-2" value="" style="shape=image;verticalLabelPosition=bottom;labelBackgroundColor=default;verticalAlign=top;aspect=fixed;imageAspect=0;image=data:image/png,iVBORw0KGgoAAAANSUhEUgAAAUcAAAEiCAYAAABqcBCCAAAAAXNSR0IArs4c6QAAAARnQU1BAACxjwv8YQUAAAAJcEhZcwAADsMAAA7DAcdvqGQAADl4SURBVHhe7d0HXFXl/wfwrwM3AoooKCBOnLn3yr23qaWWNqjULCs1bac2THNkmllajsy9+puz1Fy4BRWVKXsJMpSl53++Tw8/uHiugMLljs/79TovOA8XVLz3c5/9FFNUBAAAOorLjwAAkA3CEQBAA8IRAEADwhEAQAPCEQBAA8IRAEADwhEAQAPCEQBAAyaBw1OJiImjyIgISoiPpfCwMEpJSZFfyeJUvTpVqVKFateuTRXKl5elAMYN4Qh5lp6eToFBQXT27FnyunKFLl26REG3g9XyNMpQv5aWlkYPHz6Uj85SqnRpKmVlReXVYHR0dBQh2aFDR2rdpjXVrVNHPgrAuCAc4bE47CIjI+mfo0fpwP79dOrUKUpKSqLk5GRxcWDmh5UakmXKlKGKFStSpUqVqEGDBtS5c2fq3qMHNVQ/BzAWCEfQxKEYqNYKV61cQX/++SeFqU1mDsPU1FT5iILBYVmuXDmqXLkydevWjV559VVq2aIFlSpVSj4CoGggHOER8Xfv0rS33qIdO3aIMOTaoSGeJiVLliR7e3saMGAATZk6lRo3aiTKAIoCwhF0fPPNN7Ro0SLRlC5KNjY2NGbMGJo1axbVrFlTlgIYDsIRRM3wvPcN+mzOTDp4YD89ePBAfiVvihcvTsWKFaMSJUqIz7Pjp1dGRoZopj/JU61hw4Y06+O5NKhvD7KpaC3+HABDQDhaOJ56s/fPP+mLzz8nb29vzdHmnDiguLnL/YX8sW7dumKqTpMmTUSzOLv4+Hi6ePEi+fr6UlRUFGWowcsj25mBmVdvvvkmffbZZ1SpcmUqjoAEA0A4WigOpsTERJo7dy6tWrWKEhIS5Ff0K126tBhldnZ2FiPM3Xr2oQ4d2pNDJVv5CP34aRYTGyuC8p+//6bz58/TlStXxN/h3r17eapVNm/enDb+/ju5udWi0qWsZClA4UA4WiAOxqCgIFq2bBn9+uuvdOfOHfkVbWXLliUXFxdq06YNjR8/njp16iTKnkZqWhpdvXaNtvzxBx04eJCCAgMpLi4u19pks2bNaMZHX9CQfj2pXNkyshSg4CEcLZCfnx999dVXtHnz5sfWGLmm6OrqSl26dqXXPTyoZcuW8isF6/bt27Rl61baumUL3bhxg+7evfvYkLSzs6Pvlq+i4YMHkHX5pwtpAH0QjhaG5ysuWLCA1qxZI0JIn6pVq1Lfvn1p5MiRNHDgQFlauK5evUqbNm2iffv2ic+1liJmqlqtGs39eiGNGj6EbCpgSSIUPISjBYmIiKDVq1fT8uXLxef6cNN13Lhx9MYbb4gJ2obESxCPHj1Ka9aupUOHDlFsTIzeWqSzswt99PlceumFMWJwCKAglfhUJT8HM3YvJZV27NxFK1esoMDAQFn6qA4dOtCcOXNo4sSJRRI4PB2I1143btyYHlJx0TeamKjd9Ody/1s3qXGTJlSjenXxvQAFBeFoAXje4mlPT/pu0Xd04fw5Wfqovv360Rdz51KvXr1kSdHhKUFNm7WgitYVKPj2bTFopNXI4a6B0NBQMY2IN7UAKCgIRwsQEhJCK9Sm9J7du/Q2UXv06EFfffkltWrVymjmEVYoV1ZM33GoUoWuX79O0dHR8itZOPi5nCeyc0Da2uY+rQggL7DZrZlLS0unEydP0t69e/XuoNOxY0f6YPZsES4lcqxwKWqlS5WiYcOH0yeffELu7u6yVBePuO/evZt+//130WcJUBAQjmbO1/cWbdiwQTQ9tfCWYbx+uUP79kY7qMEBOXjwYHr7/Q/EJHQtPMC0detWMZgDUBAQjmYs+d49OnHiJB0/dkyW6OKJ3C+//DJ16dLlqSd1Fzbewmz40MH0zvTpskQXdxdw03vbjl0UE6d/ihJAXiEczRgfX/DX/r/0TvTu178/DRo0iKytrWWJcbO3s6HJkyeLv7MWXob495HDdOTwIVkC8OQQjmaK+96uXfehw4e0g6JGjRr0wgsviO3ATGmnmyr29mJLNX0DLwH+frT/r30U/ph5nAB5gXA0UzyCe/DgAb2rYAYMHEhtWrc2yR2369SpQ3PnzZd3usT2a+fO0cULF2QJwJNBOJopnr6zbetWeaeLd9Xp3bu3Sc8LfG7USDG6roWXHh47fpySkpJlCUD+IRzNEK+G8brhR+Hh4bJEV7t27ahRw4YmvaLExsaWJk+eIu908V6RvDXazZs3ZAlA/iEczVDi3Xg68+8/mhO+ea00H2TFTVNTZmVVkvr376e39nj61CkRkABPCuFohnh0+szp0/JOV9OmTalRo0Ymvw6ZB5F467KxY8fKEl38O/C64Uvh0Y/fqxJAH4SjmeH1xwkJieTl5SVLdHF/o5OTk7wzbRUqVBCTw3MezZDp+uULFOiLpjU8GYSjmUlNSyfvWwHyThfXFrnmyGe+mAueo9m6dWt5p4snhT9uByKAx0E4mpmHDx9QUqz2sao8t5Evc1LRxobad+gg73QFBwdTaFgYPXjw+KMXALQgHM1MWmoqXb3qLe90cR+due1aY602rbnmyEc6aAkKCafoO3HyDiDvEI5mhvsc9R0vwOHIlznhrgLHatWofv36skRXdEQoJcRjUAbyD+FoZniFSECAdp8jby5R1sDHHhhCmTJlxJk3Wu7ExlJyUpK8A8g7hKOZ4c1f+SB9LVWqOIjD981N+fLlxSi8Fj7uNQnhCE8A4Qgmr7Rac6zi4CDvdMWqNcfExER5B5B3CEczU7x4cVGT0pKQmECJjzmn2lSVLFlS/TdXkHcABQPhaGY4KPQ1MePVJiY3MwEgdwhHM8Ojt/pGpHmPR33nyACALoSjmeFwrFSpkrzTFRMTIy5zw7vwJCdj0AUKFsLRzJRQm9WOjtprp2/fvi0OyTc3KffvU2Sk9qog7n/lqT4A+YVwNDN8Ul/Dhg3lna77aoiEhEdS3F3zGr3l7gLuT9XCU5f0nVgI8DgIRzMjVow4ViM3NzdZosvv1k0KCtSeJG6qkpOTRa1Yi0PVqmL9NUB+IRzNEDclec9GLbdu3qDAAH95Zx74nBw+GkGLna2d3qlNAI+DcDRD5dQwaKgnHHlpobcaJHymtTngWuMVLy9KTU2VJbpq1aqld2khwOMgHM0Q97G1b9dO3uni5YW8S7i/n58sMW1cazx+7Ji80+Xq6kouLs5UsoRp73oORQPhaIY4DPiMmC5dusgSXf/++y/5+PjIO9PGk9qPHDki73TxTj0uLi7yDiB/EI5miM9X4VHaznrCkTemOHz4MAWHhMgS08QbSuzevVuc0a2lwTMtqGYd7a3MAHKDcDRT3M82oH9/veerbNy4kY4fPy6mwZgi3reSa42///67LNHFXQtN6tchxyraE+IBcoNwNGO8xnrIkCGiJpkT71SzZfNmccYKB42pSU/PoP/7v316DxJr1749NW/eXN4B5B/C0YxVq1aNhg4dSo6OjrJE16FDh+jQ4SNixNfUREZG0NKlS+SdLj4ygY9OqFffXZYA5B/C0YzxDj0837FXr15iK7OcuM/uu0ULxeH3ptS8znjwgNasXUvXrl2TJbrc3d2pg1pzrFDe/HY9B8NBOJo5blrz2c4urq6yRJevry99/vnnonnK03xMwcmTJ9VQXyTvdPE66rbt2lHzFi1kCcCTQTiaOa49dujYkUaOHCnOkNHCzevFixdTUEgYPTTy/kcO8dc9PPQeBdGgQQMaMXy4OHQL4GkgHC1AtapVaeiQodROrVFxWGpZv349rfjxJwqL1J4WYwx48Oi9994Th/VrsbGxoV69e1PHjp1kCcCTK/GpSn4OZszBwYGsSpUiHzVY9M0LvHzxPGU8LEYuztX1TgEqKn5+fvTlV1/Rli1bZIkubk5369aN3p0+nWrUqC5LAZ4cwtFCcI2RJ4bztmU8kHFPY2017xLudfmiCE8XZ2dyctLeF9LQuCm9bNky+uWXX+jhw4eyNAsPNtV3b0Aeb0ymXj26y1KAp4NwtCDW1tZigIbXI/NAjNbh/zxqfeXKFbEFGD++ppub3qZ4YUtV/y68bnrhwoX0xx9/6B1R51rxax6v0+jRY6lc2dKyFODpIBwtDB+hUEMNyNCwMAoMCNB7pgzv3sMheScuTuyJaOjzrqNi42nH9m20ZPFisdRR3647vB0ZDzZNnTqVqjmY35ncUHQQjhbIvnJlqlmzJoWpAck1RD6DJSdeNcPN60sXL9KNGzdELa527dpignVh4trhqVOnaMnSpbR27Rry9vbSW2MsVaoU9e/fn+bMmUO1a9WSpQAFo5j6IjC9tWPw1DgQL126RJ999hkdPHhQb82M8e7iNWrUoM6dO9OgIcOoc9duBb5mOU2twV719qbt27eLvw/3M2r1i2biv9OAAQNo/vz5ejf2BXgaCEcLxgHJG99+qQbMn3/+mesyQh4RrulWixo3bkI9ezxL3bt3J1e1BlrKyko+Iv8iIiNFv+KJEyfI09NT9IXGxsZqDrxk17t3b1qwYAE1bdpUlgAULIQjkL+/P61atYqWL18ulhTmxkoNQ+6D5LXbdevWpTZt2lCzZs2pVp3a5KSWcXNXn3v376s11svk7XWFbt68KZYu+gcEUIzahM/Ln80mTpxIM2fOFPs1AhQWhCMIfJ713yc86Z0pHhSaj30eOQh5VLtChQpiBQ7f8yqVnKtxuCbI/ZtcK+QQ5FoqN5v5yq2WmMnOzo6+/mYBDRo4QAQzQGFCOML/pKalk5+fLy389lsxp/BJcUBqbZPGI+N5DcKcevbsSfO//FJt0jemsjiHGgwA4Qg6+OnA8x8P/etJn89+j86dOye/UjRsbW1p7rz5NGb0c6LmqLW7EEBhQDiCJp4ozv2J+pYaFjZeJz393XfJ47XXcHogFAmEI2g6qNYce3duK+8Mx83NjcaNH0+vvvoqOdeoIUsBDA/hCI/gbcuGDxtGu3btkiVZypUrJ/r9eFoPjzTzdCDeB5I/5qc/kZck8pU5h5JHvHv2HUh9eveiqvZ28lEARQfhCI/gpYVNmzShO3fuyJIs9erVpw9mz6aXXpwgTi88eeIkeXldoQsXLoidc3iqTkZ6Omk9q3iMhlfYcMByGPIZLy1btRZha2tTUT4KwDggHOERS5cto2lvvSXvsnAtb/io0bTwu8XkXE17HXOsGqjBwSGUnv7okr9SpUrTM02byDsA44ZwBB0pqanUpnVrsXwvJ55bOGvWLJo2bZosATBfmBcBOi5dvqwZjIxPMcRxp2ApEI6gY8Xy5fIzXTyxm9cxt2lr+BFsgKKAcIT/4eV9vHeiFp5r+Oyzz1KZQt6yDMBYIBzhf3bv3i3WPufESwF5B/FOnXBwFVgOhCMIvJ8jh6PWxrK8sUTXrl3FZrcAlgLhCML58+fFsQhaE7krV65MAwYOlHcAlgHhCMLevXs191PkVSy8b2KzZs1kCYBlQDgCBUdE07Hj/4pjW3PiA6wGDR5M5cuVkyUAlgHhCLR7x3byvXVLs0nNcxv79esn7wAsB8IR6OD+fRQfHyfvsnCTmtdAY3ccsEQIRwvHAzE+Pj6ao9SlSpem0eMnFdmh/gBFCeFo4Xbs2EHh4eFiB/DseG6jQ5Uq1K1TO1kCYFkQjhYs9k4cHf/3X0pMTJQlWXi54Pjx46lcGayIAcuEcLRgR//5m4KDgx+pNTLed3HylCnyDsDyIBwtGK+ICVHDUcuoUaOoqoODvAOwPAhHC3Xdx4d8ff3Ecala+vTtKz8DsEwIRwvEzejDhw5RQIC/LNHFZ7qMGjlS3gFYJoSjBUpISKBjx49TWFiYLNE1adIk+RmA5UI4WqDLly9TUGCgvNPFh195vPGmvAOwXAhHC5Oalk5Hjx2nmzdvyhJdvfv0IadqOEQfAOFoYfwCAumM51mKj4+XJVl4buNLL70k7wAsG8LRwnhfvkg3rl+Vd7pq1qwp1lIDAMLRosTFxdG58+fFWTFaePcdW1tbeQdg2RCOFoSPXD137pzmJhNlypShYcOGUykrK1kCYNkQjhaCz4jhHXiuenvLEl3cnHZ3r08lSpSQJQCWDeFoIbgpfer0aYqKipIlup4bPZqsK1aUdwCAcLQQ3KQ+rzaptbi7u1P79u1xJjVANghHCxB/9y5dvHhJ70AMz22s7uRExYvj6QCQCa8GC+Dn60unTp2ijIwMWZJFHKA1cCDZ2dnJEgBgCEczx4HIq2G8vK7IEl3t2rWjunXrigngAJAF4WjmYmJi6OzZs+Kjlt4DhpBdpcryDgAyIRzNXFBQEP3zzz+ax666ublRhzYtqUJ5nEkNkBPC0Yzx3Ebe1JZHqrXwhra13GpiIAZAA14VZiw0NJR279qlORDDuL/R3t5e3gFAdghHMxYREUFHjhyRd7ratm1LjRo2xEAMgB4IRzPFwbhnzx66e/euLNHVvUdPqunmJu8AICeEoxniM2J4dPrkyZOyRFeFChWobp3aVFqtNd6/f59S09LEQVtaR7QCWKpi6gsCrwgzw7vu7Ni5k8aMHi1LHsUB6eLiIvod3Rs0oGrVqlGb1q2pbNmyZGVlJT6WVD+WLFkSywrBIiEczVBISAhNmzaNtm/fLkvyjlfKuLq6UseOHamGszM5OjrRM02biL5JDkwO1VJqWPLn2N4MzBnC0czwfEbPs+epV8/ulJSUJEufDm9jVqVKFbGSpmnTpuTk7Eq1atch1+rVRFhyUPLBXGXLVSBr6/JUEtuegRlAOJqZpOR7tPSHH2nOjOmypPDwNCA+WsHJyUlcjs5uVKeWKzlWdRBrtitWrCg+lq9oS5VsrOV3AZgGhKMZ4f9Knts4cuRIOnPmjCw1PF554+joSM5qs7ya+tHRtTa5uzlT5cqVRQ2zgrW1WuO0JuuKNmRdvqz8LgDjgnA0Iw8ePBDzGocNG0bJycmyNAvX4niAhZvb/FhD4lU43Czn5jkHZ1VHJ6quNs9r1nAUoWmtBibXRCvx52pwWlmVlN8JUDQQjmaEp+VMnz6dVq5cKUuycDD279+fmjdvTtHR0WJH8LCwMDEPkqf98OFbHJqGfjpwn2WNGjVEMPLoefUaXMOsRI7VqlGlSpXEgV9OTtXV0KxENmozvVixYvI7AQoXwtGMBIeEULu2bUXo5dSgQQOaP38+DR06VMxpjL1zR2x+G6+GYmRkpAhIDs3wiAgKCgwUNU/+OTzyXRQ4LPniWqWLiyvZqzVOO1sbMZJuY2NDDg4O5KJ+zgFqrQYsQEFDOJqRX3/7jV568UV5p2vEiBG04Ntvya1mTVnyKN6oIloNyVA1ELkWyqHJfZgcpBHhERQQ4C9qnHxxkBYFHvjh2iYHp1P16qJmaa8GaK1atahq1aqi3M2tlvqxspivCfCkEI5mpHv37vT333/Luyxcu5oxYwa9++67os8xP3hq0N2EBLoTGytqktz8vsNhqQZnrFoWHBxMwWoNNPPze/fuye80HJ6DWV0NSv532thwM9xR1Cz54v5Nrn1WV5vuotapNs2xCxHkBcLRTPDJgt2ffZZSUlJkSZaWLVvS119/TT169JAlTy9NbZonJSZSjBqKsWptM1H9nAMyKjpG1Cxv3bpJIWpYchnvRG5o/CbANUye1M6DPRyc3DR3UC9eDZTZPK9Xvz65uriIUXSA7BCOZuKd6dNp8XffybssHBLPv/ACLVm8WDRBC1uK2jTn/kquafJgDzfPOSB9/G9T+G1/ClOb6dxU50vfgV+FiZvaHJocjGXKlFFrlfbq78VGNMm59lmvXj2qVbs2VXeqrgaoi/wusEQIRzPAo8y11Re01pnUPBI8Z84cev3112VJ0bibmEz3kxNFs5sDkz9GREXTDV9/Cg30EwM/3Cz39fUVYWpo3DTn2iNPXOd5mOXKlhW1TQ5NDsxGjRqpNU5HtaZZjyqr5WD+EI5m4Oeff6ZXXnlF3unq2rUbrVm7ltxqusoS45Hx4IEalCmUmnJfDAbxxcHpHxxGvjdv0O0APwoMDBS1zMuXL4sNNQyJpw1lrinnqVCZAcpNda5ltmrViuqqwVm1ajVq1bJFvvtzwbghHM0AT/reuXOnvMvCfW2vvvoqffPNN2J9tKlIz8igdLmNGl+8kzkH52Uffwq44SWmGh09epQCAgLEAJGhcWhy85yb5fyRQ5E/5wnuvJyya9eu5Kp+5ClIvGkHmCaEo4m7ciOAundqIwZFcuJazbKlS6lPnz6yxLSlpqlhmZYqwpJrmBycPBB07vwFCgsLJZ/r18nT01M0z7VWCBU2HgXP3O4tMzR5alGTJk3EBHdeIVSzTj1q0KAhOVZB09zYIRxN3JuTJ9Pq1atFTSs7fnH26tWLNm7cKAYfzBU/fTksecoRL4nM/Dzo9m3y9r5KIcG36fTp03Tp0iXRPOdANTQOSQ5OvrgGzxevP3d3d6c6deqIN7Fa7k2oZZMGVK5sGfldUNQQjiaOBwt4ECPnfyPP8ZsyZQp99NFHsgTY2XPnyN/fn/z9/OjAgQN0Xa1t8mR3Y9GsWTNRw2zYsKGYZlS3cUtq3aSe/CoYEsLRhG3bto0mTJigOfG6Zeu2tH7TFnKv5SxLQB9eAXTxwkU6d+6sOHuHa5mZ/ZlcG+Urs2bKHw2tdOnSYvCH52Y2adqUWrduQzXdapJ9pUqiFso1Uq6dZn6O9ecFA+Foonik93UPD/r1118fOXqVR1VHjRpF69evlyWQX9z8DgsPF6HJE9qDgoJELZOnHHE/Jw8Q8e+dR9D5sYbe5Yjxyp/GjRuLQaBmzZpTg0aNyMW5BlW05l2NrMRVOnPQSA1OhGb+IBxNlJ9/AHXp3Elzkwlef7x48WIRkFCw7vFUI7VZfvHCBTHww4HJ3Rrcn5mWlq6GZooIzMzgLArcj8nzXvljK7WWyZ9Xd3IUA0Vcw+Q3z8yRdq5pgjaEo4ni6Tlz584VtZjs+Mnepk1b2vvnXkxWNqCIyCg1LG+L0PTz+29Su7e3twjIlBReNZQkapu8vLOoQpP7M/mNk/s0W7RspYZnbbKVK4X44uZ75nxOhCbC0SQlJiVR3z59xChszj4wnts4e/ZsmjVrliyBopKeniG2gLutNsm9vb1ETZP7Mm+rH1PUGiivbOI3N56WlJCQYPCmeeZUIx4556Y5r6ZqpDbTeYI77+Luol5c27RUCEcTtO+vv8jjtdfEiy0nnk+3fccOatmihSwBY5PMSycjIinA3080yXkQ6NatW2Jg6F7yPfVjLCXcvSsG2ngHJEPjGuTEiRPFGywPAlkqhKOJ4c7/qVOn0rp16x4ZpebRysGDBz/RkaxQ9OLVQOR9Mm/dvCne+HiN+Y0bNyj6Tjwlxt8RG3lkvwrT9Onv0gcffCD2xbRUCEcTw5ObR44YQefOnZMlWbgJ9PMvv9DYMWNkCZi6Bw8fkl9QKEWH3RY1TB6ACw8PJ//AILoTF6eGZpwISm6Wc5hqbVn3JObOmyf2/yyj1iItFcLRxPz222/04Ycfajap69evT6fPeJKtTUVZAuYq6d59Cg2LoOjIMIqKjBQ1Th4Euh0aTndiYyhebZpzk5yfJzkH7XLD/dYLFy4U6/ItGcLRhHBf1eQ336RNmzaJkc+cuBnE58SA5YqJS6CY6EiKjYmm6KgosasR1yx5nibv6B6jhiiPpnNw8kCQFh7NXrBgAQ0ZMkSWWCaEown5++9/6L333qULFy7Ikiy8geuJkyepaRPsAgOPCg0No8SkRIpTQ5GDMj4+XqwACgq6TXFq05x3bef5mxyaLVq0oK+++krsLmTJEI4mZObMmfTTTz9pbtPVrVs32r9/v5ijBpAXqWlpoibJOxhxfyWvMefpRbxRSctWrcjJ0VE+0jIhHE2Er9oUeuP118Wh/Vrre1eu/JE8PF6TdwBPjpem8kJDnv1gyTAN3kSc9fQUE4i1gpG39h8+Yri8A3g6vA7b0oORIRxNQEJiEh35+2/NEWo2fPhwqmJvL+8AoCAgHE3A5UsXyevKFb1rcie+/LL8DAAKCsLRBBw7doyuXbsm73T169ePnsEINUCBQzgauWCxu8tVMYqopa8ajryjCgAULISjkTt/7hxdvnzpkWMQGJ+r/PzYsZi+A1AIEI5GLCU1lby8vcWkXS1Dhw4V++9hh2eAgodwNGK8zItrjlpnxPBUiyGjx5EVao0AhQLhaKR4PuOlixfp7NmzskQXH7jUpmkDMScNAAoewtFI8XZUF9Rw1DojhvXo0YPKlSsn7wCgoCEcjZTP9et0/NgxeaeLN5kYNGiQ+AgAhQPhaIR4Kyk+nIkvLb169RLnfeAQJIDCg1eXEeKto44ePaq53x4fivRs9+5ka2srSwCgMCAcjQwPxPChS56enrJEF+/23blTJzSpAQoZwtHI8Al0p06dErVHLf0HDBBHZwJA4UI4GpkANRQPHTok73Txipg2bdqoTWo7WQIAhQXhaERS09Lp2g1fvQMxHTt2pPr16pGVVUlZAgCFBeFoRHib+r+PHNE8PIs3lxigNqlr1qwpSwCgMCEcjUhUZAQd++ewvNPFodioUSNxbCYAFD6Eo5HgLclOnT4tzh7W0qV7L3J1qy3vAKCwIRyNBJ/+tmf3bsrIyJAlWbhJ3apFM6rqUEWWAEBhQzgagQcPHlBAYCCdPHlSlujic4QbN2xApTAQA2AwCEcjwOcG//XXX+KjFj6TmvsbAcBwEI5GICEhgTZu2CDvdNWrV0/MbcRADIBhIRyLGNcWd+/Zo3cgpmHDhlS3bl3s9g1gYAjHIsa7fB8+dEjzjJiyZctS27ZtxXpqADAshGMReqgGYlh4OG3fvl2W6HJ3d6dmzZqJIxEAwLAQjkUoPT2dDhw4IO90cTO6ZavW1L5DB1kCAIaEcCxCiYlJtO633+SdLicnJ2rVsgXZVKwoSwDAkBCOReifk57k5eUl77JwrbFho0bUqVMnWQIAhoZwLELbf9euNfJGto0aNqTatbFcEKCoIByLCO/As2/fPnmny9nZRYxS87JBACgaCMcismHDBoqPj5d3WfjQrAYN3NGkBihiCMcikJx8jzZv3izvdNnZ2YkD+/l0QQAoOgjHInDq9Ck6c+aMvNNVq1Yt6tGzp7wDgKKCcCwCq3/6SX6mq3z58qLW2KghNpkAKGoIRwMLDgkRZ1Jrsbe3py5dulC5cmVlCQAUFYSjge3etVvvQAwfhdCpc2dZAgBFCeFoQPfv36e9e/dQWlqaLMnCcxv5dMEaOJMawCggHA3oipcXXb16lR4+fChLslSqbE+9BwyWd8Di796ltPR0efff9m4AhoJwNKBt27aJs2JysrKyoubNm1Gr5s/IErh85QrNmDGDvvryS4qOjhZlS5cupalTp1JiUpK4ByhMCEcDib1zh44dPSaa1jlxk3rIkCFUvixWxKSkpoo3kfffe4/+2LSJli9fTseO/0u//76JVq5cSevWraPnn3+efPyD5XcAFI5iitYuq1DgVv/8M3300UcUER4uS7LwhG9PT09ydHSUJZYpNCyMVq5YQRs3bqTg4GCxpRtr3LixGMQKDQ0VmwKXLFmS3Bs2otmzZtLYsWPFYwAKGsLRQAYOHEgHDx58ZDCGd/vmmtCqVavEiLWlunTpEs2bN+9/B41lf1ry7yVnPy3vXMTbuk2ePJmmvvUWVShfXn4FoGCgWW0A/xw9SteuXdMcpbauWJHGT3jRYoORl1KuWfsrjR8/nnbu3ElJSUmPHBmhNYDFj+Ga5IIFC2j27NkUo9GXC/A0EI4GcPzYMYqLi5N3Wbj24+LsTF27WObcRp4QP+fDOfTW1Cnk7e1NGRkZ8it5x79XboqPGT2ajqm/Z4CCgnAsZElqE3H//v2aE79Lly4takyWJuPBAzrj6UkvPP88LVm8WNQWnwb3TR4+fJg8PDxo165dshTg6SAcC9kutanIgwtaeC31yOdGyzvzx83jqKgo+vHHVdS3Tx86fvy4/Io2HnjhwaolS5fSlClTcj2728fHh6ZNmyam/MTFxWs2xwHyjAdkoHCkpacrL7zwgmJlZcWdaI9c6gtePtL83bufoly7dk0ZMmSI5u8i+1WsWDHFxsZGGT16tHLx0iVFbW6Ln7Fy5UqlatVqSvHixTW/L/MqU6aMMum1N5RrN32VtLQ08b0A+YVwLEQXva4rbTt01HwBq7Ui5cDBg/KR5i08PFz5ZcNmpWHDhpq/i+xXqVKlxOMWL16sxMTEyJ+QxfPsWaVT585KuXLlNL8/8ypbtqwyYuRI5aD6O1ab7fK7AfIO4VhIuLazYMECxcHBQfPFW79+fflI85Wu1pwvX76sTJw4UbG1tdX8PWS/+DEDBgxQ9h84qNxPSZE/5VHhkVGKh4eHUrlyZc2fk/165plnlLVr1yoxsbHKg4cP5U8AyB3CsZBER0cr48eP19ukfm/GLPlI88T/fq61tW7dWvPfn/3iZrKjo5PyxpuTlatXr8qf8Hj3799XZs6cqbi5uWn+zOxXjRo1lG8XLlRuh4Spb1oP5E8AeDyEYyHZf+CA0rx5c80Xq52dneLjHywfaV64tnjjxg3lo48/VqpUqaL5789+WVtbKx07dlSWfP+DEn3nrvwpecMBuemPzUqzFq1EN4XWz8+8uBn+5rTpyhnPs+iHhDxBOBaClJRU5ZNPPlUqVqyo+UIdOnSofKR5iU9IUg4cOqSMGTtWDIpo/dszr/9qi47KK6++qpw+fVpJTU2VPyV/UlLTlCPHTyqDBw8Wgzhaf1b2q3v37sru3buVu3fvKg/RzIbHQDgWgitXrigDBw3SfHHytXHjRvlI8+Hr66ss+G6J0rpNWzGoovXvzry4ltdMrVXzoEtAQID8CU+O+3d5JPzdd99VXFxcNP/M7FejRo2UpUuXin5IAH0QjoVg+fLlirOzs+YLs169ekpkVJR8pOm7d+++ckitLb788suKvb295r85+1WhQgVl+PDhyp49e564tqhPRESEsmTJEqVly5Z6+3ozLycnJ+X9GTPFGxmAlhKfqtQnCxQQPqx//fr1dPLkSc1JyOPGjaMBAwaICc6mjv+tu/fsoWVLl4pVQGpTVX7lUbxUsl79+vTCi5PoDY/XqFu3blSiRAn51YLBW7+pbz7kUM2J7iYkUlRkhOZ6dpaYmEiXLl6kkNBQsfu6WuOUXwGQZEhCAeFalL4RWh4UOHLkyP8mNZsqHnS5dPmy8t777yt169ZV1JDT/Pdmv3r16qXs2rVbib4TL39K4UlSa7PHT5xSJk2alKdBoa5duypbt25V7t2/L38CAJrVBYpHQb9ZsEDvQAy/CLnpZ8ri4uOVrdu2KX379cvT3EUejZ4xc5Zy7tw5+RMMI119A+JR888//zzXfkgeHOKJ5zNmzlRuh5tPlwc8HYRjAbp+/boybPhwzRcgXz+u+kn00ZmqkJAQ5ZNPP1Xqu7vnOnWGr/bt2yvr1q9XoqKj5U8wPLXpr/y2bp3SsmWrXGu4HPYvv+YhasUACMcCtGvXLjHgovXCq1OnjlgtYorTR9LS0pUznp7KyJEj8zTowjVnXhd94cIFJeUxK10MJSk5WTl2/LgyaNCgXKcY8YBRj549lT///FN+N1gqhGMBibubqHz8+TyldOnSmi+6t995R9RiTE1iYqKYctOhY8dc1zPzxStWlv+wQjRpHzwwntUoqWlpio+PjzJu3LhcA5L/D7nf+Jc1ax67jBHMG8KxgJw+c0bp3KWr5ouNa1K8Yqagp64UJq7h8pQj3jmIa4t5GXTp27evGHDiQDXWGnJoaKiyZOnSXPtL+d/LfZWfqG94oZGPboAB5g/hWEC2bNkilgVqvdA6deokJkmbUpP60OEjYtMG3t1G69+U/eKm6LS331ZrZjfESLaxS1ab2f93+LjinMtADW+dVqGCtTJo8GCxigcsC8KxAPBAxeTJkzVfYHwt/uEnJTHpnny08Zs1a5ZSvnx5EQ5a/57sV9OmTZUtW7eK5XjG1IzODY9m3w4OVtq1a6f578p+cS2Sm9m7du82qdo/PB2EYwE4duyYmO+n9cLi9b4nTpyQjzRuF676Kj179dL8d+S8uP9xwoQJynUfH/ndpuuNN97Q/DfmvLg/9bd169Wap+m80cGTQzg+peR795TlK1Zovpj44gAJCgqSjzY+3NTnzWB50CUvGzdwLapmzZrKgm+/VeLV2qI54Nrgj6tWKS4urrn2rfK8zXfeeUe5efOmSdWUIf8Qjk/J399fTHHReiHxC403mTDWfjj+e4WFh4tpN3kZieYNJTp27GSW01x4d58DR08pHTp0yNMczhEjRoi9J3m1kylOz4LcIRyfQoZac+DRWa5NaL2AOnfuLOb6GRuu8fCI8rZt28QmDbnVlngFiaurqzJrzkdKYKjpTUfKK/69cDfBc889J/pctX4X2S8O0gMHDiiJSckISDOEcHwKUVFRyqeffqb5wuFA4S20jG25YGpaunLz1i3liy++EDtka/3ds188548DdP369aILwRLwdJ/33ntPqVot98O8uCti2Y+/mNVOS/AfhOMT4poCrxdu0aKF5ouGN3LduXOnfLRxiIuLUw4c/kcZMGhornsu8lWpUiXl+eeft8hpLLyGfPXPPyvPNGuW66RxDsj3339fuaW+6YD5QDg+Id6i/9ffftN8sfA1fMQIsQGrMeC+Rf+AAGXhwoVK48aNNf++2S+uLTZp0kStFX8qlt5ZKv4//mv/frFzu76uk+wXL0/kmQs4hsE8IByfULjaXOYNXrVeJDy4waO5/OIqavfUprCn51llytSpeVoXzRPZBw8doWzfvl3+BDh//rzy0ksv6T1JMvvVoEEDZfuOHUpcAo6DNXUIxyfAJ9idOOWpt8+ubbt2RX4mNQ8ucJ8o9xX26t0716YhX7w5xieffKL4BoXJnwKZeML4p1/MVdxq1c61H5L3kPxq4RIlWP0eMF3YCfwJqLUx2vjHFtq1Y5ssyWJlZUWjRo2iIUOGkNoUk6WGxbtfX/Hyop9Xr6bvv/+ezp87RxkZGfKrj1KDk559tjtNm/YWvf7661Slkq38CmSyqViRmj7TnKo4OFB4WCjFxsbq/Z3y8+PUieN07/59srW1papVqxb4rudgADIkIR/Cw8OVNm3aaNYauDa5bt26IpvbyE15bhL3798/T7VFXvUxffp0tel4QUkzgXXRRY1399m/f7+YG6pvU+PMi3//vdVaOy+vtOS+W1OFcMwnDr29e/fqDR7eIfvixYvy0YYVHhGpzJ8/X6x31vq7Zb/478/7Fq5Zu1YcwI/VHvnj5eWlvD9jhlJdfTN83Bp0nhXAG3gsXrLE5HeBtzRoVudTamoqLf/hBzp16pQsycJN6mFDh4kmdenSpWWpYfABV6tWraI1v/xC/v7+slRbpUqVaKTa9J8yZQr16d2bbGxsxAFYkHcOavO6fv36ZG1nT2GhIRQTE8MVDfnVLOqbDqlvPnTdx4eSk5OpevXqZG9vL78KRu2/jIS88g8M1HvsqvpiEQc1GRJvv/Xzzz8rzfIwH48vd3d35euvv1Z8ff2MdlmjKYmNT1D2qC2JLl26aP6+s188b3T8+PHKiZMnMd3HBCAc80mtNWo+8fkaNeo5JdCAm0xc97mhTJw0SSzt0/r7ZL+4eddPbfLzksFYHGZfoDjoeJno2LFjNX/32S/e+7JPnz7K1h27lTtqsILxQjjmk77+PF4Rs2TJUoPUxngZ34YNG8QmunmpLfLfbcaMGYqXtzeOHy1EAQEByqLvFue6yzhPsm/cpKky/6uvxFJFME4Ix3zwPHtW744tvGnqv//+Kx9ZeAJCIpTZH36k1KpVK9f5dvx35VH13zdtUmJiYjDoYgAJiYnKrj17xVGvWv8nmRf/31WuXFmcrc3bn4HxQTjmw+QpUzSf6FZWVsorr74q+v8KE08h6dd/gGJXqVKuwcjNN95Wy/PsObFfIxgOT6fi9ei8a4/W/032i5cl8tk7vAqHtz8D44FwzCPe2FVf3x6X//LLL/KRBY+bwou++07sNs5BrPV3yH7xCo1FixaJKTp4wRUN/r3zCYx8QJnW/1H2i/9PeTBv575DSvJ9nHZoLBCOefTH5s1657N16vqs4uNXOAMx3levKi+++KLox8rtTBfel7Fvv/7KiXNXcNaJEeBujMjoWGXJitW5Thjn/9ty5cor3y5ciJq+kUA45hEPfmg9qXm7Kj6QqqClqOG2ddu2PO2ik3nNnDnTbI4uMCe88uj/9u3Te85Qzot39wnBQE2RQzjmwS0/f80nMV/c8V6QAzHcHAsMDlM+/Gy+6DfU+jOzX9wk48GZzVu2yJ8Axor3/+T+xbx0jbRq1UrxunoNc1GLEMIxD3hHb60nMDeFunbrViDNIN48l+fLccf8wIEDNf+87Bf/2TwlhCcV8zkwYBp4ZPo1Dw/F1s4u124S7jv+v31/KSkp6IcsCgjHXPAINNfMtJ681apVE6tNnhb3TfHgCR/7yduGaf1Z2S+uedStV1+ZN28eXjgmKCwqVvlqwSLR6sjtMC9+A/z0008xFasIIBxzsW79eqVs2bKaT1xesvc0RwhwbZHDzdvbW3n7nXdy7bTnix/DfVKHjp0UO8SAaeLpPrxaifuyOQC1/q8zL37+jRkzRgzO3U/BQJuhIBwfg/t7eEmY1rs7P2FfffVV+cgnw7VFHgXPy3w4HonmGiwf/BQSEiJ/Apg67q/m+ai5zUbg1sKz3Xso2/fsE2cBQeFDOD7G1WvXxNI7rSers4uLsm/fPvnI/Lt+/boy58MP83Q2CY+Id+/eXYxe38VotNkJDAxS3nv/fTFf9nHH5PLEf9445LvFi7HLuAEgHB+Dp+honV/MT1LeheVJps3ExN0VK12GDRv2yM/NefELpXbt2srbb7+tXL58GSOXZoyfS8uWLROnWebWD8kDNdOmTVMuXLyI50QhQjjqEXc3UZwFo9XU4Sk23EmeXz4+PsqiZSuURo1yn7vIG0rwn//98uVKWBjOdLEEfBjapk2bxO5Jj6tB8sV9z8OHD1eO/HNUSbqHzUQKA8JRj5179yk19OzbyH1/3OTOK16twkd28rSbvJwAyDUDPi96/4ED6gsGT3xLc8XLS5kw6RVxiqXW8yPz4hpmuw6dlHUbN2EbukKAcNTAYebh4aH55OR3dD7HOK8iIiOVH1etytP2Ytxcr+/eQJn/9QLRJwmWKyQiRvn8iy/0nnCZ/eLjYOfOmyfmUGItfcFBOGrgYGrXvr1mk5pHqddtyn01CgfsmTNnlGlvvy2e4LlN+OWfy82pzVu34cxjEO6npIjD2tq2bav5nMl+cWuDd4bifsjUVEzxKggIRw3ff/+9mOCt9SRs3ryFGFR5nOg78crvm7eKsMttNJpDk0fEZ86aJXaTxvb5kB0PuBw+fFgZN26c5uBg9ov7IfsPGKDs3r0Hpx0WABywlUNCYiKt+OEHOn/+PD18+FCWZhk7dgwNGzJY3j3Kx8eHflixgn75ebX6M86JM4z1UZvR1KJFC5o56wMaO2aMOLBJbbbLrwL89xxRWx5U392drMpUoOCgAEpISJBf1cWHvwUGBornYAn1++rVqyfOJIcnJEMSJH6Xbt6iheY7M18XL12Sj9TFKx7+2r9f9Efa2dlpfm/Oi7ci4xU2OLoAcpPx4IESHBqurFy5MtddxvlycXFRZs+eLdbd80osyD+EYw7vvPOOmHSt9YTjidha88oio6LEucTPNGuW61IwvvjJvXz1r0qQAQ/jAtPHIceLAHbt2qV3C73sF592OGHCBOWC9w0lIwPrsvML4ZgNT7TuqD7p9A2eqM1l+cj/cFDytAvuD7KvUiXXowv4GjJkiDiaE3PT4ElxK8XT86zi8frruU734YG+1m3aKdu3b5ffDXmFcMyGz3/m5ojWk4znJyYmJspHKmI7+41bd4nlXHmpLfLa2Q8++EDUFtMx3QKeEj+HQkLDlPlffqU4OTlpPucyL37T5sO8PvvsM/ndkBcIR4n7/SZOnKh3ZcIrr7wiH6mIps3sOXOUympg5qW2yBtLHDhwQEzUxbZTUFDEVncxMcrSZcv0bquX/eLRbG5m303Aedl5gXCUDh06pLRs2VLzScXXjZu3xON8bt5UunXrJg7J13pc9oun8fBKl6tXr4rJuegYh4LGz6nMFVh52d2Jd/dp36Gj4n0rUP4E0AfhKC1ZskRxcHDQfELxmdRsw8aNYrKt1mNyXm5ubsrSlauV2Hi8S4Nh+AaFKYOHjshTN4+Lq6tyUK0QgH4IR1VgSLgycswLmk8ivviYBN5zT+trOS+uUfKGAGfPnpU/HcBw+MiODz/8UKlatWquq7K4H50PZeN9RdHd8yiEo4qnRjzulD+eEqFVnv3iTQB4mSA/MbGLDhS1X3/9Vay5zu0wL+76mTTpZdFdhNVZuix+hUx6ejpt37GDdu3cSRkZGbJU1/379+Vn2ngVQrNmzeijjz+m1zw8yM7WVn4FoGg888wz1KhRI7rl60fRUVF6n9tqINLVq1fp1q1bVKdOXapSxZ7UN3r5Vctm8eHITwz1XZauX78uS/KOl3Y5ODjQiJEjad68edSzRw88scBo1KxZk9p37UFJCfEUHBysdymr2qQW4Xj27FlSW0liuWLp0qVJbZbLR1gmiw5Hfjc9duwYbdq0ieLj42Vp3pQqVUq8O7/2mgd98MEH5OrqKr8CYDzs7Wyo+7PPktq8Jl9f38c+zyMjI+nixYuiNeXs4koVKlhTiRLF5Vctj0WHY3hEBP2uBuP+/ftlSd5UrFiR+vYfSB/OmU0vvPA8FveDUeM38o4dO5KTkxOFhIRQlNrM5tqiFg5PLy8vir4TT1XUVlEV+8oiWC2RRYfjiX//pV/XrqXw8HBZkru6devS+AkT6OPP59IzTRrJUgDjx32QrVq1pjtxdygsLExvXzo3v69f9abAAH+qZGcnmtkcsJbGYsPxnvrE2LN7N23ZskVvZ3V2XDts36EDTZkyRVzcXAEwNdxH3qpVK0pOThb9kElJSfIruvg14e/nR+XLl6f27duL1pKlsdgOhaDAQPL09KSUlBRZol+1atVo6tSp9N2iRTRp0iQqV7as/AqAaeFBRFcXF5r1wQc0ffp0atOmjfzKo/h536ZtW7KxscyKgMXWHHnDUO6A5s5n/pw3CtXSrl07mjZtGr39zjvkoj6pAEwdj0JbW1tT06ZNqVbtOhQbf5eCbwfp9EPa2tqKisCECRPI3t5ellqWYjzZUX5uUfiJEHvnDt28cYNOnTpF6zdsoCuXL8uvEjk6OlLfgUNo3JjnqEuXzpiiA2YpNS2dvK5eo59W/kBbt26lO+prgvsXR416jj766COqX7+efKTlsdhwzC4xKYlW/fgjLVKbzdxRzRO6J6rvmoOGDCOX6k4WPZ0BzB8fB3L79m3aoFYQ1qxZQzWcnemzzz6jDu07kJWV5VYKEI4Sn73BE7mLlyhBI4YP/6+vpWJFi58IC5YjJiaGzp49RxWsK1Crli2prIX3rSMcJW5m37x1S6wMqO7kJD4CWBrug2eWOrcxO4QjAIAGdKYBAGhAOAIAaEA4AgBoQDgCAGhAOAIAaEA4AgBoQDgCAGhAOAIAaEA4AgBoQDgCAGhAOAIAaEA4AgBoQDgCAGhAOAIAaEA4AgBoQDgCAGhAOAIAaEA4AgBoQDgCAGhAOAIAaEA4AgBoQDgCADyC6P8B9IrXAwb4D2QAAAAASUVORK5CYII=;flipH=1;" parent="1" vertex="1">
          <mxGeometry x="296.58000000000004" y="230" width="146.58" height="130" as="geometry" />
        </mxCell>
        <mxCell id="EgPqVIzmTn7RL6N8weFt-8" value="" style="group" parent="1" vertex="1" connectable="0">
          <mxGeometry x="342" y="309" width="53.37" height="30" as="geometry" />
        </mxCell>
        <mxCell id="EgPqVIzmTn7RL6N8weFt-9" value="" style="rounded=0;whiteSpace=wrap;html=1;rotation=-34.9;fillColor=#f0a30a;strokeColor=none;fontColor=#000000;" parent="EgPqVIzmTn7RL6N8weFt-8" vertex="1">
          <mxGeometry x="1.3559665809739851" y="9.709971547053653" width="25.53012893746969" height="12.665180278765636" as="geometry" />
        </mxCell>
        <mxCell id="EgPqVIzmTn7RL6N8weFt-10" value="" style="rounded=0;whiteSpace=wrap;html=1;rotation=39.1;fillColor=#f0a30a;strokeColor=none;fontColor=#000000;" parent="EgPqVIzmTn7RL6N8weFt-8" vertex="1">
          <mxGeometry x="26.673344443964762" y="10.76540323695079" width="25.53012893746969" height="12.665180278765636" as="geometry" />
        </mxCell>
        <mxCell id="EgPqVIzmTn7RL6N8weFt-11" value="" style="ellipse;whiteSpace=wrap;html=1;aspect=fixed;fillColor=#f0a30a;strokeColor=none;fontColor=#000000;" parent="EgPqVIzmTn7RL6N8weFt-8" vertex="1">
          <mxGeometry x="20.36880361376603" width="12.987869331291254" height="12.987869331291254" as="geometry" />
        </mxCell>
        <mxCell id="EgPqVIzmTn7RL6N8weFt-16" value="" style="group" parent="1" vertex="1" connectable="0">
          <mxGeometry x="194" y="308" width="53.37" height="30" as="geometry" />
        </mxCell>
        <mxCell id="EgPqVIzmTn7RL6N8weFt-17" value="" style="rounded=0;whiteSpace=wrap;html=1;rotation=-34.9;fillColor=#007FFF;strokeColor=none;fontColor=#ffffff;" parent="EgPqVIzmTn7RL6N8weFt-16" vertex="1">
          <mxGeometry x="1.3559665809739851" y="9.709971547053653" width="25.53012893746969" height="12.665180278765636" as="geometry" />
        </mxCell>
        <mxCell id="EgPqVIzmTn7RL6N8weFt-18" value="" style="rounded=0;whiteSpace=wrap;html=1;rotation=39.1;fillColor=#007FFF;strokeColor=none;fontColor=#ffffff;" parent="EgPqVIzmTn7RL6N8weFt-16" vertex="1">
          <mxGeometry x="26.673344443964762" y="10.76540323695079" width="25.53012893746969" height="12.665180278765636" as="geometry" />
        </mxCell>
        <mxCell id="EgPqVIzmTn7RL6N8weFt-19" value="" style="ellipse;whiteSpace=wrap;html=1;aspect=fixed;fillColor=#007FFF;strokeColor=none;fontColor=#ffffff;" parent="EgPqVIzmTn7RL6N8weFt-16" vertex="1">
          <mxGeometry x="20.37" width="13.63" height="13.63" as="geometry" />
        </mxCell>
        <mxCell id="EgPqVIzmTn7RL6N8weFt-20" value="" style="shape=image;verticalLabelPosition=bottom;labelBackgroundColor=default;verticalAlign=top;aspect=fixed;imageAspect=0;image=data:image/png,iVBORw0KGgoAAAANSUhEUgAAAUcAAAEiCAYAAABqcBCCAAAAAXNSR0IArs4c6QAAAARnQU1BAACxjwv8YQUAAAAJcEhZcwAADsMAAA7DAcdvqGQAADl4SURBVHhe7d0HXFXl/wfwrwM3AoooKCBOnLn3yr23qaWWNqjULCs1bac2THNkmllajsy9+puz1Fy4BRWVKXsJMpSl53++Tw8/uHiugMLljs/79TovOA8XVLz3c5/9FFNUBAAAOorLjwAAkA3CEQBAA8IRAEADwhEAQAPCEQBAA8IRAEADwhEAQAPCEQBAAyaBw1OJiImjyIgISoiPpfCwMEpJSZFfyeJUvTpVqVKFateuTRXKl5elAMYN4Qh5lp6eToFBQXT27FnyunKFLl26REG3g9XyNMpQv5aWlkYPHz6Uj85SqnRpKmVlReXVYHR0dBQh2aFDR2rdpjXVrVNHPgrAuCAc4bE47CIjI+mfo0fpwP79dOrUKUpKSqLk5GRxcWDmh5UakmXKlKGKFStSpUqVqEGDBtS5c2fq3qMHNVQ/BzAWCEfQxKEYqNYKV61cQX/++SeFqU1mDsPU1FT5iILBYVmuXDmqXLkydevWjV559VVq2aIFlSpVSj4CoGggHOER8Xfv0rS33qIdO3aIMOTaoSGeJiVLliR7e3saMGAATZk6lRo3aiTKAIoCwhF0fPPNN7Ro0SLRlC5KNjY2NGbMGJo1axbVrFlTlgIYDsIRRM3wvPcN+mzOTDp4YD89ePBAfiVvihcvTsWKFaMSJUqIz7Pjp1dGRoZopj/JU61hw4Y06+O5NKhvD7KpaC3+HABDQDhaOJ56s/fPP+mLzz8nb29vzdHmnDiguLnL/YX8sW7dumKqTpMmTUSzOLv4+Hi6ePEi+fr6UlRUFGWowcsj25mBmVdvvvkmffbZZ1SpcmUqjoAEA0A4WigOpsTERJo7dy6tWrWKEhIS5Ff0K126tBhldnZ2FiPM3Xr2oQ4d2pNDJVv5CP34aRYTGyuC8p+//6bz58/TlStXxN/h3r17eapVNm/enDb+/ju5udWi0qWsZClA4UA4WiAOxqCgIFq2bBn9+uuvdOfOHfkVbWXLliUXFxdq06YNjR8/njp16iTKnkZqWhpdvXaNtvzxBx04eJCCAgMpLi4u19pks2bNaMZHX9CQfj2pXNkyshSg4CEcLZCfnx999dVXtHnz5sfWGLmm6OrqSl26dqXXPTyoZcuW8isF6/bt27Rl61baumUL3bhxg+7evfvYkLSzs6Pvlq+i4YMHkHX5pwtpAH0QjhaG5ysuWLCA1qxZI0JIn6pVq1Lfvn1p5MiRNHDgQFlauK5evUqbNm2iffv2ic+1liJmqlqtGs39eiGNGj6EbCpgSSIUPISjBYmIiKDVq1fT8uXLxef6cNN13Lhx9MYbb4gJ2obESxCPHj1Ka9aupUOHDlFsTIzeWqSzswt99PlceumFMWJwCKAglfhUJT8HM3YvJZV27NxFK1esoMDAQFn6qA4dOtCcOXNo4sSJRRI4PB2I1143btyYHlJx0TeamKjd9Ody/1s3qXGTJlSjenXxvQAFBeFoAXje4mlPT/pu0Xd04fw5Wfqovv360Rdz51KvXr1kSdHhKUFNm7WgitYVKPj2bTFopNXI4a6B0NBQMY2IN7UAKCgIRwsQEhJCK9Sm9J7du/Q2UXv06EFfffkltWrVymjmEVYoV1ZM33GoUoWuX79O0dHR8itZOPi5nCeyc0Da2uY+rQggL7DZrZlLS0unEydP0t69e/XuoNOxY0f6YPZsES4lcqxwKWqlS5WiYcOH0yeffELu7u6yVBePuO/evZt+//130WcJUBAQjmbO1/cWbdiwQTQ9tfCWYbx+uUP79kY7qMEBOXjwYHr7/Q/EJHQtPMC0detWMZgDUBAQjmYs+d49OnHiJB0/dkyW6OKJ3C+//DJ16dLlqSd1Fzbewmz40MH0zvTpskQXdxdw03vbjl0UE6d/ihJAXiEczRgfX/DX/r/0TvTu178/DRo0iKytrWWJcbO3s6HJkyeLv7MWXob495HDdOTwIVkC8OQQjmaK+96uXfehw4e0g6JGjRr0wgsviO3ATGmnmyr29mJLNX0DLwH+frT/r30U/ph5nAB5gXA0UzyCe/DgAb2rYAYMHEhtWrc2yR2369SpQ3PnzZd3usT2a+fO0cULF2QJwJNBOJopnr6zbetWeaeLd9Xp3bu3Sc8LfG7USDG6roWXHh47fpySkpJlCUD+IRzNEK+G8brhR+Hh4bJEV7t27ahRw4YmvaLExsaWJk+eIu908V6RvDXazZs3ZAlA/iEczVDi3Xg68+8/mhO+ea00H2TFTVNTZmVVkvr376e39nj61CkRkABPCuFohnh0+szp0/JOV9OmTalRo0Ymvw6ZB5F467KxY8fKEl38O/C64Uvh0Y/fqxJAH4SjmeH1xwkJieTl5SVLdHF/o5OTk7wzbRUqVBCTw3MezZDp+uULFOiLpjU8GYSjmUlNSyfvWwHyThfXFrnmyGe+mAueo9m6dWt5p4snhT9uByKAx0E4mpmHDx9QUqz2sao8t5Evc1LRxobad+gg73QFBwdTaFgYPXjw+KMXALQgHM1MWmoqXb3qLe90cR+due1aY602rbnmyEc6aAkKCafoO3HyDiDvEI5mhvsc9R0vwOHIlznhrgLHatWofv36skRXdEQoJcRjUAbyD+FoZniFSECAdp8jby5R1sDHHhhCmTJlxJk3Wu7ExlJyUpK8A8g7hKOZ4c1f+SB9LVWqOIjD981N+fLlxSi8Fj7uNQnhCE8A4Qgmr7Rac6zi4CDvdMWqNcfExER5B5B3CEczU7x4cVGT0pKQmECJjzmn2lSVLFlS/TdXkHcABQPhaGY4KPQ1MePVJiY3MwEgdwhHM8Ojt/pGpHmPR33nyACALoSjmeFwrFSpkrzTFRMTIy5zw7vwJCdj0AUKFsLRzJRQm9WOjtprp2/fvi0OyTc3KffvU2Sk9qog7n/lqT4A+YVwNDN8Ul/Dhg3lna77aoiEhEdS3F3zGr3l7gLuT9XCU5f0nVgI8DgIRzMjVow4ViM3NzdZosvv1k0KCtSeJG6qkpOTRa1Yi0PVqmL9NUB+IRzNEDclec9GLbdu3qDAAH95Zx74nBw+GkGLna2d3qlNAI+DcDRD5dQwaKgnHHlpobcaJHymtTngWuMVLy9KTU2VJbpq1aqld2khwOMgHM0Q97G1b9dO3uni5YW8S7i/n58sMW1cazx+7Ji80+Xq6kouLs5UsoRp73oORQPhaIY4DPiMmC5dusgSXf/++y/5+PjIO9PGk9qPHDki73TxTj0uLi7yDiB/EI5miM9X4VHaznrCkTemOHz4MAWHhMgS08QbSuzevVuc0a2lwTMtqGYd7a3MAHKDcDRT3M82oH9/veerbNy4kY4fPy6mwZgi3reSa42///67LNHFXQtN6tchxyraE+IBcoNwNGO8xnrIkCGiJpkT71SzZfNmccYKB42pSU/PoP/7v316DxJr1749NW/eXN4B5B/C0YxVq1aNhg4dSo6OjrJE16FDh+jQ4SNixNfUREZG0NKlS+SdLj4ygY9OqFffXZYA5B/C0YzxDj0837FXr15iK7OcuM/uu0ULxeH3ptS8znjwgNasXUvXrl2TJbrc3d2pg1pzrFDe/HY9B8NBOJo5blrz2c4urq6yRJevry99/vnnonnK03xMwcmTJ9VQXyTvdPE66rbt2lHzFi1kCcCTQTiaOa49dujYkUaOHCnOkNHCzevFixdTUEgYPTTy/kcO8dc9PPQeBdGgQQMaMXy4OHQL4GkgHC1AtapVaeiQodROrVFxWGpZv349rfjxJwqL1J4WYwx48Oi9994Th/VrsbGxoV69e1PHjp1kCcCTK/GpSn4OZszBwYGsSpUiHzVY9M0LvHzxPGU8LEYuztX1TgEqKn5+fvTlV1/Rli1bZIkubk5369aN3p0+nWrUqC5LAZ4cwtFCcI2RJ4bztmU8kHFPY2017xLudfmiCE8XZ2dyctLeF9LQuCm9bNky+uWXX+jhw4eyNAsPNtV3b0Aeb0ymXj26y1KAp4NwtCDW1tZigIbXI/NAjNbh/zxqfeXKFbEFGD++ppub3qZ4YUtV/y68bnrhwoX0xx9/6B1R51rxax6v0+jRY6lc2dKyFODpIBwtDB+hUEMNyNCwMAoMCNB7pgzv3sMheScuTuyJaOjzrqNi42nH9m20ZPFisdRR3647vB0ZDzZNnTqVqjmY35ncUHQQjhbIvnJlqlmzJoWpAck1RD6DJSdeNcPN60sXL9KNGzdELa527dpignVh4trhqVOnaMnSpbR27Rry9vbSW2MsVaoU9e/fn+bMmUO1a9WSpQAFo5j6IjC9tWPw1DgQL126RJ999hkdPHhQb82M8e7iNWrUoM6dO9OgIcOoc9duBb5mOU2twV719qbt27eLvw/3M2r1i2biv9OAAQNo/vz5ejf2BXgaCEcLxgHJG99+qQbMn3/+mesyQh4RrulWixo3bkI9ezxL3bt3J1e1BlrKyko+Iv8iIiNFv+KJEyfI09NT9IXGxsZqDrxk17t3b1qwYAE1bdpUlgAULIQjkL+/P61atYqWL18ulhTmxkoNQ+6D5LXbdevWpTZt2lCzZs2pVp3a5KSWcXNXn3v376s11svk7XWFbt68KZYu+gcEUIzahM/Ln80mTpxIM2fOFPs1AhQWhCMIfJ713yc86Z0pHhSaj30eOQh5VLtChQpiBQ7f8yqVnKtxuCbI/ZtcK+QQ5FoqN5v5yq2WmMnOzo6+/mYBDRo4QAQzQGFCOML/pKalk5+fLy389lsxp/BJcUBqbZPGI+N5DcKcevbsSfO//FJt0jemsjiHGgwA4Qg6+OnA8x8P/etJn89+j86dOye/UjRsbW1p7rz5NGb0c6LmqLW7EEBhQDiCJp4ozv2J+pYaFjZeJz393XfJ47XXcHogFAmEI2g6qNYce3duK+8Mx83NjcaNH0+vvvoqOdeoIUsBDA/hCI/gbcuGDxtGu3btkiVZypUrJ/r9eFoPjzTzdCDeB5I/5qc/kZck8pU5h5JHvHv2HUh9eveiqvZ28lEARQfhCI/gpYVNmzShO3fuyJIs9erVpw9mz6aXXpwgTi88eeIkeXldoQsXLoidc3iqTkZ6Omk9q3iMhlfYcMByGPIZLy1btRZha2tTUT4KwDggHOERS5cto2lvvSXvsnAtb/io0bTwu8XkXE17HXOsGqjBwSGUnv7okr9SpUrTM02byDsA44ZwBB0pqanUpnVrsXwvJ55bOGvWLJo2bZosATBfmBcBOi5dvqwZjIxPMcRxp2ApEI6gY8Xy5fIzXTyxm9cxt2lr+BFsgKKAcIT/4eV9vHeiFp5r+Oyzz1KZQt6yDMBYIBzhf3bv3i3WPufESwF5B/FOnXBwFVgOhCMIvJ8jh6PWxrK8sUTXrl3FZrcAlgLhCML58+fFsQhaE7krV65MAwYOlHcAlgHhCMLevXs191PkVSy8b2KzZs1kCYBlQDgCBUdE07Hj/4pjW3PiA6wGDR5M5cuVkyUAlgHhCLR7x3byvXVLs0nNcxv79esn7wAsB8IR6OD+fRQfHyfvsnCTmtdAY3ccsEQIRwvHAzE+Pj6ao9SlSpem0eMnFdmh/gBFCeFo4Xbs2EHh4eFiB/DseG6jQ5Uq1K1TO1kCYFkQjhYs9k4cHf/3X0pMTJQlWXi54Pjx46lcGayIAcuEcLRgR//5m4KDgx+pNTLed3HylCnyDsDyIBwtGK+ICVHDUcuoUaOoqoODvAOwPAhHC3Xdx4d8ff3Ecala+vTtKz8DsEwIRwvEzejDhw5RQIC/LNHFZ7qMGjlS3gFYJoSjBUpISKBjx49TWFiYLNE1adIk+RmA5UI4WqDLly9TUGCgvNPFh195vPGmvAOwXAhHC5Oalk5Hjx2nmzdvyhJdvfv0IadqOEQfAOFoYfwCAumM51mKj4+XJVl4buNLL70k7wAsG8LRwnhfvkg3rl+Vd7pq1qwp1lIDAMLRosTFxdG58+fFWTFaePcdW1tbeQdg2RCOFoSPXD137pzmJhNlypShYcOGUykrK1kCYNkQjhaCz4jhHXiuenvLEl3cnHZ3r08lSpSQJQCWDeFoIbgpfer0aYqKipIlup4bPZqsK1aUdwCAcLQQ3KQ+rzaptbi7u1P79u1xJjVANghHCxB/9y5dvHhJ70AMz22s7uRExYvj6QCQCa8GC+Dn60unTp2ijIwMWZJFHKA1cCDZ2dnJEgBgCEczx4HIq2G8vK7IEl3t2rWjunXrigngAJAF4WjmYmJi6OzZs+Kjlt4DhpBdpcryDgAyIRzNXFBQEP3zzz+ax666ublRhzYtqUJ5nEkNkBPC0Yzx3Ebe1JZHqrXwhra13GpiIAZAA14VZiw0NJR279qlORDDuL/R3t5e3gFAdghHMxYREUFHjhyRd7ratm1LjRo2xEAMgB4IRzPFwbhnzx66e/euLNHVvUdPqunmJu8AICeEoxniM2J4dPrkyZOyRFeFChWobp3aVFqtNd6/f59S09LEQVtaR7QCWKpi6gsCrwgzw7vu7Ni5k8aMHi1LHsUB6eLiIvod3Rs0oGrVqlGb1q2pbNmyZGVlJT6WVD+WLFkSywrBIiEczVBISAhNmzaNtm/fLkvyjlfKuLq6UseOHamGszM5OjrRM02biL5JDkwO1VJqWPLn2N4MzBnC0czwfEbPs+epV8/ulJSUJEufDm9jVqVKFbGSpmnTpuTk7Eq1atch1+rVRFhyUPLBXGXLVSBr6/JUEtuegRlAOJqZpOR7tPSHH2nOjOmypPDwNCA+WsHJyUlcjs5uVKeWKzlWdRBrtitWrCg+lq9oS5VsrOV3AZgGhKMZ4f9Knts4cuRIOnPmjCw1PF554+joSM5qs7ya+tHRtTa5uzlT5cqVRQ2zgrW1WuO0JuuKNmRdvqz8LgDjgnA0Iw8ePBDzGocNG0bJycmyNAvX4niAhZvb/FhD4lU43Czn5jkHZ1VHJ6quNs9r1nAUoWmtBibXRCvx52pwWlmVlN8JUDQQjmaEp+VMnz6dVq5cKUuycDD279+fmjdvTtHR0WJH8LCwMDEPkqf98OFbHJqGfjpwn2WNGjVEMPLoefUaXMOsRI7VqlGlSpXEgV9OTtXV0KxENmozvVixYvI7AQoXwtGMBIeEULu2bUXo5dSgQQOaP38+DR06VMxpjL1zR2x+G6+GYmRkpAhIDs3wiAgKCgwUNU/+OTzyXRQ4LPniWqWLiyvZqzVOO1sbMZJuY2NDDg4O5KJ+zgFqrQYsQEFDOJqRX3/7jV568UV5p2vEiBG04Ntvya1mTVnyKN6oIloNyVA1ELkWyqHJfZgcpBHhERQQ4C9qnHxxkBYFHvjh2iYHp1P16qJmaa8GaK1atahq1aqi3M2tlvqxspivCfCkEI5mpHv37vT333/Luyxcu5oxYwa9++67os8xP3hq0N2EBLoTGytqktz8vsNhqQZnrFoWHBxMwWoNNPPze/fuye80HJ6DWV0NSv532thwM9xR1Cz54v5Nrn1WV5vuotapNs2xCxHkBcLRTPDJgt2ffZZSUlJkSZaWLVvS119/TT169JAlTy9NbZonJSZSjBqKsWptM1H9nAMyKjpG1Cxv3bpJIWpYchnvRG5o/CbANUye1M6DPRyc3DR3UC9eDZTZPK9Xvz65uriIUXSA7BCOZuKd6dNp8XffybssHBLPv/ACLVm8WDRBC1uK2jTn/kquafJgDzfPOSB9/G9T+G1/ClOb6dxU50vfgV+FiZvaHJocjGXKlFFrlfbq78VGNMm59lmvXj2qVbs2VXeqrgaoi/wusEQIRzPAo8y11Re01pnUPBI8Z84cev3112VJ0bibmEz3kxNFs5sDkz9GREXTDV9/Cg30EwM/3Cz39fUVYWpo3DTn2iNPXOd5mOXKlhW1TQ5NDsxGjRqpNU5HtaZZjyqr5WD+EI5m4Oeff6ZXXnlF3unq2rUbrVm7ltxqusoS45Hx4IEalCmUmnJfDAbxxcHpHxxGvjdv0O0APwoMDBS1zMuXL4sNNQyJpw1lrinnqVCZAcpNda5ltmrViuqqwVm1ajVq1bJFvvtzwbghHM0AT/reuXOnvMvCfW2vvvoqffPNN2J9tKlIz8igdLmNGl+8kzkH52Uffwq44SWmGh09epQCAgLEAJGhcWhy85yb5fyRQ5E/5wnuvJyya9eu5Kp+5ClIvGkHmCaEo4m7ciOAundqIwZFcuJazbKlS6lPnz6yxLSlpqlhmZYqwpJrmBycPBB07vwFCgsLJZ/r18nT01M0z7VWCBU2HgXP3O4tMzR5alGTJk3EBHdeIVSzTj1q0KAhOVZB09zYIRxN3JuTJ9Pq1atFTSs7fnH26tWLNm7cKAYfzBU/fTksecoRL4nM/Dzo9m3y9r5KIcG36fTp03Tp0iXRPOdANTQOSQ5OvrgGzxevP3d3d6c6deqIN7Fa7k2oZZMGVK5sGfldUNQQjiaOBwt4ECPnfyPP8ZsyZQp99NFHsgTY2XPnyN/fn/z9/OjAgQN0Xa1t8mR3Y9GsWTNRw2zYsKGYZlS3cUtq3aSe/CoYEsLRhG3bto0mTJigOfG6Zeu2tH7TFnKv5SxLQB9eAXTxwkU6d+6sOHuHa5mZ/ZlcG+Urs2bKHw2tdOnSYvCH52Y2adqUWrduQzXdapJ9pUqiFso1Uq6dZn6O9ecFA+Foonik93UPD/r1118fOXqVR1VHjRpF69evlyWQX9z8DgsPF6HJE9qDgoJELZOnHHE/Jw8Q8e+dR9D5sYbe5Yjxyp/GjRuLQaBmzZpTg0aNyMW5BlW05l2NrMRVOnPQSA1OhGb+IBxNlJ9/AHXp3Elzkwlef7x48WIRkFCw7vFUI7VZfvHCBTHww4HJ3Rrcn5mWlq6GZooIzMzgLArcj8nzXvljK7WWyZ9Xd3IUA0Vcw+Q3z8yRdq5pgjaEo4ni6Tlz584VtZjs+Mnepk1b2vvnXkxWNqCIyCg1LG+L0PTz+29Su7e3twjIlBReNZQkapu8vLOoQpP7M/mNk/s0W7RspYZnbbKVK4X44uZ75nxOhCbC0SQlJiVR3z59xChszj4wnts4e/ZsmjVrliyBopKeniG2gLutNsm9vb1ETZP7Mm+rH1PUGiivbOI3N56WlJCQYPCmeeZUIx4556Y5r6ZqpDbTeYI77+Luol5c27RUCEcTtO+vv8jjtdfEiy0nnk+3fccOatmihSwBY5PMSycjIinA3080yXkQ6NatW2Jg6F7yPfVjLCXcvSsG2ngHJEPjGuTEiRPFGywPAlkqhKOJ4c7/qVOn0rp16x4ZpebRysGDBz/RkaxQ9OLVQOR9Mm/dvCne+HiN+Y0bNyj6Tjwlxt8RG3lkvwrT9Onv0gcffCD2xbRUCEcTw5ObR44YQefOnZMlWbgJ9PMvv9DYMWNkCZi6Bw8fkl9QKEWH3RY1TB6ACw8PJ//AILoTF6eGZpwISm6Wc5hqbVn3JObOmyf2/yyj1iItFcLRxPz222/04Ycfajap69evT6fPeJKtTUVZAuYq6d59Cg2LoOjIMIqKjBQ1Th4Euh0aTndiYyhebZpzk5yfJzkH7XLD/dYLFy4U6/ItGcLRhHBf1eQ336RNmzaJkc+cuBnE58SA5YqJS6CY6EiKjYmm6KgosasR1yx5nibv6B6jhiiPpnNw8kCQFh7NXrBgAQ0ZMkSWWCaEown5++9/6L333qULFy7Ikiy8geuJkyepaRPsAgOPCg0No8SkRIpTQ5GDMj4+XqwACgq6TXFq05x3bef5mxyaLVq0oK+++krsLmTJEI4mZObMmfTTTz9pbtPVrVs32r9/v5ijBpAXqWlpoibJOxhxfyWvMefpRbxRSctWrcjJ0VE+0jIhHE2Er9oUeuP118Wh/Vrre1eu/JE8PF6TdwBPjpem8kJDnv1gyTAN3kSc9fQUE4i1gpG39h8+Yri8A3g6vA7b0oORIRxNQEJiEh35+2/NEWo2fPhwqmJvL+8AoCAgHE3A5UsXyevKFb1rcie+/LL8DAAKCsLRBBw7doyuXbsm73T169ePnsEINUCBQzgauWCxu8tVMYqopa8ajryjCgAULISjkTt/7hxdvnzpkWMQGJ+r/PzYsZi+A1AIEI5GLCU1lby8vcWkXS1Dhw4V++9hh2eAgodwNGK8zItrjlpnxPBUiyGjx5EVao0AhQLhaKR4PuOlixfp7NmzskQXH7jUpmkDMScNAAoewtFI8XZUF9Rw1DojhvXo0YPKlSsn7wCgoCEcjZTP9et0/NgxeaeLN5kYNGiQ+AgAhQPhaIR4Kyk+nIkvLb169RLnfeAQJIDCg1eXEeKto44ePaq53x4fivRs9+5ka2srSwCgMCAcjQwPxPChS56enrJEF+/23blTJzSpAQoZwtHI8Al0p06dErVHLf0HDBBHZwJA4UI4GpkANRQPHTok73Txipg2bdqoTWo7WQIAhQXhaERS09Lp2g1fvQMxHTt2pPr16pGVVUlZAgCFBeFoRHib+r+PHNE8PIs3lxigNqlr1qwpSwCgMCEcjUhUZAQd++ewvNPFodioUSNxbCYAFD6Eo5HgLclOnT4tzh7W0qV7L3J1qy3vAKCwIRyNBJ/+tmf3bsrIyJAlWbhJ3apFM6rqUEWWAEBhQzgagQcPHlBAYCCdPHlSlujic4QbN2xApTAQA2AwCEcjwOcG//XXX+KjFj6TmvsbAcBwEI5GICEhgTZu2CDvdNWrV0/MbcRADIBhIRyLGNcWd+/Zo3cgpmHDhlS3bl3s9g1gYAjHIsa7fB8+dEjzjJiyZctS27ZtxXpqADAshGMReqgGYlh4OG3fvl2W6HJ3d6dmzZqJIxEAwLAQjkUoPT2dDhw4IO90cTO6ZavW1L5DB1kCAIaEcCxCiYlJtO633+SdLicnJ2rVsgXZVKwoSwDAkBCOReifk57k5eUl77JwrbFho0bUqVMnWQIAhoZwLELbf9euNfJGto0aNqTatbFcEKCoIByLCO/As2/fPnmny9nZRYxS87JBACgaCMcismHDBoqPj5d3WfjQrAYN3NGkBihiCMcikJx8jzZv3izvdNnZ2YkD+/l0QQAoOgjHInDq9Ck6c+aMvNNVq1Yt6tGzp7wDgKKCcCwCq3/6SX6mq3z58qLW2KghNpkAKGoIRwMLDgkRZ1Jrsbe3py5dulC5cmVlCQAUFYSjge3etVvvQAwfhdCpc2dZAgBFCeFoQPfv36e9e/dQWlqaLMnCcxv5dMEaOJMawCggHA3oipcXXb16lR4+fChLslSqbE+9BwyWd8Di796ltPR0efff9m4AhoJwNKBt27aJs2JysrKyoubNm1Gr5s/IErh85QrNmDGDvvryS4qOjhZlS5cupalTp1JiUpK4ByhMCEcDib1zh44dPSaa1jlxk3rIkCFUvixWxKSkpoo3kfffe4/+2LSJli9fTseO/0u//76JVq5cSevWraPnn3+efPyD5XcAFI5iitYuq1DgVv/8M3300UcUER4uS7LwhG9PT09ydHSUJZYpNCyMVq5YQRs3bqTg4GCxpRtr3LixGMQKDQ0VmwKXLFmS3Bs2otmzZtLYsWPFYwAKGsLRQAYOHEgHDx58ZDCGd/vmmtCqVavEiLWlunTpEs2bN+9/B41lf1ry7yVnPy3vXMTbuk2ePJmmvvUWVShfXn4FoGCgWW0A/xw9SteuXdMcpbauWJHGT3jRYoORl1KuWfsrjR8/nnbu3ElJSUmPHBmhNYDFj+Ga5IIFC2j27NkUo9GXC/A0EI4GcPzYMYqLi5N3Wbj24+LsTF27WObcRp4QP+fDOfTW1Cnk7e1NGRkZ8it5x79XboqPGT2ajqm/Z4CCgnAsZElqE3H//v2aE79Lly4takyWJuPBAzrj6UkvPP88LVm8WNQWnwb3TR4+fJg8PDxo165dshTg6SAcC9kutanIgwtaeC31yOdGyzvzx83jqKgo+vHHVdS3Tx86fvy4/Io2HnjhwaolS5fSlClTcj2728fHh6ZNmyam/MTFxWs2xwHyjAdkoHCkpacrL7zwgmJlZcWdaI9c6gtePtL83bufoly7dk0ZMmSI5u8i+1WsWDHFxsZGGT16tHLx0iVFbW6Ln7Fy5UqlatVqSvHixTW/L/MqU6aMMum1N5RrN32VtLQ08b0A+YVwLEQXva4rbTt01HwBq7Ui5cDBg/KR5i08PFz5ZcNmpWHDhpq/i+xXqVKlxOMWL16sxMTEyJ+QxfPsWaVT585KuXLlNL8/8ypbtqwyYuRI5aD6O1ab7fK7AfIO4VhIuLazYMECxcHBQfPFW79+fflI85Wu1pwvX76sTJw4UbG1tdX8PWS/+DEDBgxQ9h84qNxPSZE/5VHhkVGKh4eHUrlyZc2fk/165plnlLVr1yoxsbHKg4cP5U8AyB3CsZBER0cr48eP19ukfm/GLPlI88T/fq61tW7dWvPfn/3iZrKjo5PyxpuTlatXr8qf8Hj3799XZs6cqbi5uWn+zOxXjRo1lG8XLlRuh4Spb1oP5E8AeDyEYyHZf+CA0rx5c80Xq52dneLjHywfaV64tnjjxg3lo48/VqpUqaL5789+WVtbKx07dlSWfP+DEn3nrvwpecMBuemPzUqzFq1EN4XWz8+8uBn+5rTpyhnPs+iHhDxBOBaClJRU5ZNPPlUqVqyo+UIdOnSofKR5iU9IUg4cOqSMGTtWDIpo/dszr/9qi47KK6++qpw+fVpJTU2VPyV/UlLTlCPHTyqDBw8Wgzhaf1b2q3v37sru3buVu3fvKg/RzIbHQDgWgitXrigDBw3SfHHytXHjRvlI8+Hr66ss+G6J0rpNWzGoovXvzry4ltdMrVXzoEtAQID8CU+O+3d5JPzdd99VXFxcNP/M7FejRo2UpUuXin5IAH0QjoVg+fLlirOzs+YLs169ekpkVJR8pOm7d+++ckitLb788suKvb295r85+1WhQgVl+PDhyp49e564tqhPRESEsmTJEqVly5Z6+3ozLycnJ+X9GTPFGxmAlhKfqtQnCxQQPqx//fr1dPLkSc1JyOPGjaMBAwaICc6mjv+tu/fsoWVLl4pVQGpTVX7lUbxUsl79+vTCi5PoDY/XqFu3blSiRAn51YLBW7+pbz7kUM2J7iYkUlRkhOZ6dpaYmEiXLl6kkNBQsfu6WuOUXwGQZEhCAeFalL4RWh4UOHLkyP8mNZsqHnS5dPmy8t777yt169ZV1JDT/Pdmv3r16qXs2rVbib4TL39K4UlSa7PHT5xSJk2alKdBoa5duypbt25V7t2/L38CAJrVBYpHQb9ZsEDvQAy/CLnpZ8ri4uOVrdu2KX379cvT3EUejZ4xc5Zy7tw5+RMMI119A+JR888//zzXfkgeHOKJ5zNmzlRuh5tPlwc8HYRjAbp+/boybPhwzRcgXz+u+kn00ZmqkJAQ5ZNPP1Xqu7vnOnWGr/bt2yvr1q9XoqKj5U8wPLXpr/y2bp3SsmWrXGu4HPYvv+YhasUACMcCtGvXLjHgovXCq1OnjlgtYorTR9LS0pUznp7KyJEj8zTowjVnXhd94cIFJeUxK10MJSk5WTl2/LgyaNCgXKcY8YBRj549lT///FN+N1gqhGMBibubqHz8+TyldOnSmi+6t995R9RiTE1iYqKYctOhY8dc1zPzxStWlv+wQjRpHzwwntUoqWlpio+PjzJu3LhcA5L/D7nf+Jc1ax67jBHMG8KxgJw+c0bp3KWr5ouNa1K8Yqagp64UJq7h8pQj3jmIa4t5GXTp27evGHDiQDXWGnJoaKiyZOnSXPtL+d/LfZWfqG94oZGPboAB5g/hWEC2bNkilgVqvdA6deokJkmbUpP60OEjYtMG3t1G69+U/eKm6LS331ZrZjfESLaxS1ab2f93+LjinMtADW+dVqGCtTJo8GCxigcsC8KxAPBAxeTJkzVfYHwt/uEnJTHpnny08Zs1a5ZSvnx5EQ5a/57sV9OmTZUtW7eK5XjG1IzODY9m3w4OVtq1a6f578p+cS2Sm9m7du82qdo/PB2EYwE4duyYmO+n9cLi9b4nTpyQjzRuF676Kj179dL8d+S8uP9xwoQJynUfH/ndpuuNN97Q/DfmvLg/9bd169Wap+m80cGTQzg+peR795TlK1Zovpj44gAJCgqSjzY+3NTnzWB50CUvGzdwLapmzZrKgm+/VeLV2qI54Nrgj6tWKS4urrn2rfK8zXfeeUe5efOmSdWUIf8Qjk/J399fTHHReiHxC403mTDWfjj+e4WFh4tpN3kZieYNJTp27GSW01x4d58DR08pHTp0yNMczhEjRoi9J3m1kylOz4LcIRyfQoZac+DRWa5NaL2AOnfuLOb6GRuu8fCI8rZt28QmDbnVlngFiaurqzJrzkdKYKjpTUfKK/69cDfBc889J/pctX4X2S8O0gMHDiiJSckISDOEcHwKUVFRyqeffqb5wuFA4S20jG25YGpaunLz1i3liy++EDtka/3ds188548DdP369aILwRLwdJ/33ntPqVot98O8uCti2Y+/mNVOS/AfhOMT4poCrxdu0aKF5ouGN3LduXOnfLRxiIuLUw4c/kcZMGhornsu8lWpUiXl+eeft8hpLLyGfPXPPyvPNGuW66RxDsj3339fuaW+6YD5QDg+Id6i/9ffftN8sfA1fMQIsQGrMeC+Rf+AAGXhwoVK48aNNf++2S+uLTZp0kStFX8qlt5ZKv4//mv/frFzu76uk+wXL0/kmQs4hsE8IByfULjaXOYNXrVeJDy4waO5/OIqavfUprCn51llytSpeVoXzRPZBw8doWzfvl3+BDh//rzy0ksv6T1JMvvVoEEDZfuOHUpcAo6DNXUIxyfAJ9idOOWpt8+ubbt2RX4mNQ8ucJ8o9xX26t0716YhX7w5xieffKL4BoXJnwKZeML4p1/MVdxq1c61H5L3kPxq4RIlWP0eMF3YCfwJqLUx2vjHFtq1Y5ssyWJlZUWjRo2iIUOGkNoUk6WGxbtfX/Hyop9Xr6bvv/+ezp87RxkZGfKrj1KDk559tjtNm/YWvf7661Slkq38CmSyqViRmj7TnKo4OFB4WCjFxsbq/Z3y8+PUieN07/59srW1papVqxb4rudgADIkIR/Cw8OVNm3aaNYauDa5bt26IpvbyE15bhL3798/T7VFXvUxffp0tel4QUkzgXXRRY1399m/f7+YG6pvU+PMi3//vdVaOy+vtOS+W1OFcMwnDr29e/fqDR7eIfvixYvy0YYVHhGpzJ8/X6x31vq7Zb/478/7Fq5Zu1YcwI/VHvnj5eWlvD9jhlJdfTN83Bp0nhXAG3gsXrLE5HeBtzRoVudTamoqLf/hBzp16pQsycJN6mFDh4kmdenSpWWpYfABV6tWraI1v/xC/v7+slRbpUqVaKTa9J8yZQr16d2bbGxsxAFYkHcOavO6fv36ZG1nT2GhIRQTE8MVDfnVLOqbDqlvPnTdx4eSk5OpevXqZG9vL78KRu2/jIS88g8M1HvsqvpiEQc1GRJvv/Xzzz8rzfIwH48vd3d35euvv1Z8ff2MdlmjKYmNT1D2qC2JLl26aP6+s188b3T8+PHKiZMnMd3HBCAc80mtNWo+8fkaNeo5JdCAm0xc97mhTJw0SSzt0/r7ZL+4eddPbfLzksFYHGZfoDjoeJno2LFjNX/32S/e+7JPnz7K1h27lTtqsILxQjjmk77+PF4Rs2TJUoPUxngZ34YNG8QmunmpLfLfbcaMGYqXtzeOHy1EAQEByqLvFue6yzhPsm/cpKky/6uvxFJFME4Ix3zwPHtW744tvGnqv//+Kx9ZeAJCIpTZH36k1KpVK9f5dvx35VH13zdtUmJiYjDoYgAJiYnKrj17xVGvWv8nmRf/31WuXFmcrc3bn4HxQTjmw+QpUzSf6FZWVsorr74q+v8KE08h6dd/gGJXqVKuwcjNN95Wy/PsObFfIxgOT6fi9ei8a4/W/032i5cl8tk7vAqHtz8D44FwzCPe2FVf3x6X//LLL/KRBY+bwou++07sNs5BrPV3yH7xCo1FixaJKTp4wRUN/r3zCYx8QJnW/1H2i/9PeTBv575DSvJ9nHZoLBCOefTH5s1657N16vqs4uNXOAMx3levKi+++KLox8rtTBfel7Fvv/7KiXNXcNaJEeBujMjoWGXJitW5Thjn/9ty5cor3y5ciJq+kUA45hEPfmg9qXm7Kj6QqqClqOG2ddu2PO2ik3nNnDnTbI4uMCe88uj/9u3Te85Qzot39wnBQE2RQzjmwS0/f80nMV/c8V6QAzHcHAsMDlM+/Gy+6DfU+jOzX9wk48GZzVu2yJ8Axor3/+T+xbx0jbRq1UrxunoNc1GLEMIxD3hHb60nMDeFunbrViDNIN48l+fLccf8wIEDNf+87Bf/2TwlhCcV8zkwYBp4ZPo1Dw/F1s4u124S7jv+v31/KSkp6IcsCgjHXPAINNfMtJ681apVE6tNnhb3TfHgCR/7yduGaf1Z2S+uedStV1+ZN28eXjgmKCwqVvlqwSLR6sjtMC9+A/z0008xFasIIBxzsW79eqVs2bKaT1xesvc0RwhwbZHDzdvbW3n7nXdy7bTnix/DfVKHjp0UO8SAaeLpPrxaifuyOQC1/q8zL37+jRkzRgzO3U/BQJuhIBwfg/t7eEmY1rs7P2FfffVV+cgnw7VFHgXPy3w4HonmGiwf/BQSEiJ/Apg67q/m+ai5zUbg1sKz3Xso2/fsE2cBQeFDOD7G1WvXxNI7rSers4uLsm/fPvnI/Lt+/boy58MP83Q2CY+Id+/eXYxe38VotNkJDAxS3nv/fTFf9nHH5PLEf9445LvFi7HLuAEgHB+Dp+honV/MT1LeheVJps3ExN0VK12GDRv2yM/NefELpXbt2srbb7+tXL58GSOXZoyfS8uWLROnWebWD8kDNdOmTVMuXLyI50QhQjjqEXc3UZwFo9XU4Sk23EmeXz4+PsqiZSuURo1yn7vIG0rwn//98uVKWBjOdLEEfBjapk2bxO5Jj6tB8sV9z8OHD1eO/HNUSbqHzUQKA8JRj5179yk19OzbyH1/3OTOK16twkd28rSbvJwAyDUDPi96/4ED6gsGT3xLc8XLS5kw6RVxiqXW8yPz4hpmuw6dlHUbN2EbukKAcNTAYebh4aH55OR3dD7HOK8iIiOVH1etytP2Ytxcr+/eQJn/9QLRJwmWKyQiRvn8iy/0nnCZ/eLjYOfOmyfmUGItfcFBOGrgYGrXvr1mk5pHqddtyn01CgfsmTNnlGlvvy2e4LlN+OWfy82pzVu34cxjEO6npIjD2tq2bav5nMl+cWuDd4bifsjUVEzxKggIRw3ff/+9mOCt9SRs3ryFGFR5nOg78crvm7eKsMttNJpDk0fEZ86aJXaTxvb5kB0PuBw+fFgZN26c5uBg9ov7IfsPGKDs3r0Hpx0WABywlUNCYiKt+OEHOn/+PD18+FCWZhk7dgwNGzJY3j3Kx8eHflixgn75ebX6M86JM4z1UZvR1KJFC5o56wMaO2aMOLBJbbbLrwL89xxRWx5U392drMpUoOCgAEpISJBf1cWHvwUGBornYAn1++rVqyfOJIcnJEMSJH6Xbt6iheY7M18XL12Sj9TFKx7+2r9f9Efa2dlpfm/Oi7ci4xU2OLoAcpPx4IESHBqurFy5MtddxvlycXFRZs+eLdbd80osyD+EYw7vvPOOmHSt9YTjidha88oio6LEucTPNGuW61IwvvjJvXz1r0qQAQ/jAtPHIceLAHbt2qV3C73sF592OGHCBOWC9w0lIwPrsvML4ZgNT7TuqD7p9A2eqM1l+cj/cFDytAvuD7KvUiXXowv4GjJkiDiaE3PT4ElxK8XT86zi8frruU734YG+1m3aKdu3b5ffDXmFcMyGz3/m5ojWk4znJyYmJspHKmI7+41bd4nlXHmpLfLa2Q8++EDUFtMx3QKeEj+HQkLDlPlffqU4OTlpPucyL37T5sO8PvvsM/ndkBcIR4n7/SZOnKh3ZcIrr7wiH6mIps3sOXOUympg5qW2yBtLHDhwQEzUxbZTUFDEVncxMcrSZcv0bquX/eLRbG5m303Aedl5gXCUDh06pLRs2VLzScXXjZu3xON8bt5UunXrJg7J13pc9oun8fBKl6tXr4rJuegYh4LGz6nMFVh52d2Jd/dp36Gj4n0rUP4E0AfhKC1ZskRxcHDQfELxmdRsw8aNYrKt1mNyXm5ubsrSlauV2Hi8S4Nh+AaFKYOHjshTN4+Lq6tyUK0QgH4IR1VgSLgycswLmk8ivviYBN5zT+trOS+uUfKGAGfPnpU/HcBw+MiODz/8UKlatWquq7K4H50PZeN9RdHd8yiEo4qnRjzulD+eEqFVnv3iTQB4mSA/MbGLDhS1X3/9Vay5zu0wL+76mTTpZdFdhNVZuix+hUx6ejpt37GDdu3cSRkZGbJU1/379+Vn2ngVQrNmzeijjz+m1zw8yM7WVn4FoGg888wz1KhRI7rl60fRUVF6n9tqINLVq1fp1q1bVKdOXapSxZ7UN3r5Vctm8eHITwz1XZauX78uS/KOl3Y5ODjQiJEjad68edSzRw88scBo1KxZk9p37UFJCfEUHBysdymr2qQW4Xj27FlSW0liuWLp0qVJbZbLR1gmiw5Hfjc9duwYbdq0ieLj42Vp3pQqVUq8O7/2mgd98MEH5OrqKr8CYDzs7Wyo+7PPktq8Jl9f38c+zyMjI+nixYuiNeXs4koVKlhTiRLF5Vctj0WHY3hEBP2uBuP+/ftlSd5UrFiR+vYfSB/OmU0vvPA8FveDUeM38o4dO5KTkxOFhIRQlNrM5tqiFg5PLy8vir4TT1XUVlEV+8oiWC2RRYfjiX//pV/XrqXw8HBZkru6devS+AkT6OPP59IzTRrJUgDjx32QrVq1pjtxdygsLExvXzo3v69f9abAAH+qZGcnmtkcsJbGYsPxnvrE2LN7N23ZskVvZ3V2XDts36EDTZkyRVzcXAEwNdxH3qpVK0pOThb9kElJSfIruvg14e/nR+XLl6f27duL1pKlsdgOhaDAQPL09KSUlBRZol+1atVo6tSp9N2iRTRp0iQqV7as/AqAaeFBRFcXF5r1wQc0ffp0atOmjfzKo/h536ZtW7KxscyKgMXWHHnDUO6A5s5n/pw3CtXSrl07mjZtGr39zjvkoj6pAEwdj0JbW1tT06ZNqVbtOhQbf5eCbwfp9EPa2tqKisCECRPI3t5ellqWYjzZUX5uUfiJEHvnDt28cYNOnTpF6zdsoCuXL8uvEjk6OlLfgUNo3JjnqEuXzpiiA2YpNS2dvK5eo59W/kBbt26lO+prgvsXR416jj766COqX7+efKTlsdhwzC4xKYlW/fgjLVKbzdxRzRO6J6rvmoOGDCOX6k4WPZ0BzB8fB3L79m3aoFYQ1qxZQzWcnemzzz6jDu07kJWV5VYKEI4Sn73BE7mLlyhBI4YP/6+vpWJFi58IC5YjJiaGzp49RxWsK1Crli2prIX3rSMcJW5m37x1S6wMqO7kJD4CWBrug2eWOrcxO4QjAIAGdKYBAGhAOAIAaEA4AgBoQDgCAGhAOAIAaEA4AgBoQDgCAGhAOAIAaEA4AgBoQDgCAGhAOAIAaEA4AgBoQDgCAGhAOAIAaEA4AgBoQDgCAGhAOAIAaEA4AgBoQDgCAGhAOAIAaEA4AgBoQDgCADyC6P8B9IrXAwb4D2QAAAAASUVORK5CYII=;flipH=1;" parent="1" vertex="1">
          <mxGeometry x="443.1600000000001" y="230" width="146.58" height="130" as="geometry" />
        </mxCell>
        <mxCell id="EgPqVIzmTn7RL6N8weFt-21" value="" style="group" parent="1" vertex="1" connectable="0">
          <mxGeometry x="488.58000000000004" y="309" width="53.37" height="30" as="geometry" />
        </mxCell>
        <mxCell id="EgPqVIzmTn7RL6N8weFt-22" value="" style="rounded=0;whiteSpace=wrap;html=1;rotation=-34.9;fillColor=#f0a30a;strokeColor=none;fontColor=#000000;" parent="EgPqVIzmTn7RL6N8weFt-21" vertex="1">
          <mxGeometry x="1.3559665809739851" y="9.709971547053653" width="25.53012893746969" height="12.665180278765636" as="geometry" />
        </mxCell>
        <mxCell id="EgPqVIzmTn7RL6N8weFt-23" value="" style="rounded=0;whiteSpace=wrap;html=1;rotation=39.1;fillColor=#f0a30a;strokeColor=none;fontColor=#000000;" parent="EgPqVIzmTn7RL6N8weFt-21" vertex="1">
          <mxGeometry x="26.673344443964762" y="10.76540323695079" width="25.53012893746969" height="12.665180278765636" as="geometry" />
        </mxCell>
        <mxCell id="EgPqVIzmTn7RL6N8weFt-24" value="" style="ellipse;whiteSpace=wrap;html=1;aspect=fixed;fillColor=#f0a30a;strokeColor=none;fontColor=#000000;" parent="EgPqVIzmTn7RL6N8weFt-21" vertex="1">
          <mxGeometry x="20.36880361376603" width="12.987869331291254" height="12.987869331291254" as="geometry" />
        </mxCell>
        <mxCell id="EgPqVIzmTn7RL6N8weFt-30" value="Leader" style="text;html=1;strokeColor=none;fillColor=none;align=center;verticalAlign=middle;whiteSpace=wrap;rounded=0;fontStyle=1;fontColor=#007FFF;fontSize=24;" parent="1" vertex="1">
          <mxGeometry x="188.79" y="170" width="60" height="30" as="geometry" />
        </mxCell>
        <mxCell id="EgPqVIzmTn7RL6N8weFt-31" value="" style="shape=image;verticalLabelPosition=bottom;labelBackgroundColor=default;verticalAlign=top;aspect=fixed;imageAspect=0;image=data:image/png,iVBORw0KGgoAAAANSUhEUgAAAUcAAAEiCAYAAABqcBCCAAAAAXNSR0IArs4c6QAAAARnQU1BAACxjwv8YQUAAAAJcEhZcwAADsMAAA7DAcdvqGQAADl4SURBVHhe7d0HXFXl/wfwrwM3AoooKCBOnLn3yr23qaWWNqjULCs1bac2THNkmllajsy9+puz1Fy4BRWVKXsJMpSl53++Tw8/uHiugMLljs/79TovOA8XVLz3c5/9FFNUBAAAOorLjwAAkA3CEQBAA8IRAEADwhEAQAPCEQBAA8IRAEADwhEAQAPCEQBAAyaBw1OJiImjyIgISoiPpfCwMEpJSZFfyeJUvTpVqVKFateuTRXKl5elAMYN4Qh5lp6eToFBQXT27FnyunKFLl26REG3g9XyNMpQv5aWlkYPHz6Uj85SqnRpKmVlReXVYHR0dBQh2aFDR2rdpjXVrVNHPgrAuCAc4bE47CIjI+mfo0fpwP79dOrUKUpKSqLk5GRxcWDmh5UakmXKlKGKFStSpUqVqEGDBtS5c2fq3qMHNVQ/BzAWCEfQxKEYqNYKV61cQX/++SeFqU1mDsPU1FT5iILBYVmuXDmqXLkydevWjV559VVq2aIFlSpVSj4CoGggHOER8Xfv0rS33qIdO3aIMOTaoSGeJiVLliR7e3saMGAATZk6lRo3aiTKAIoCwhF0fPPNN7Ro0SLRlC5KNjY2NGbMGJo1axbVrFlTlgIYDsIRRM3wvPcN+mzOTDp4YD89ePBAfiVvihcvTsWKFaMSJUqIz7Pjp1dGRoZopj/JU61hw4Y06+O5NKhvD7KpaC3+HABDQDhaOJ56s/fPP+mLzz8nb29vzdHmnDiguLnL/YX8sW7dumKqTpMmTUSzOLv4+Hi6ePEi+fr6UlRUFGWowcsj25mBmVdvvvkmffbZZ1SpcmUqjoAEA0A4WigOpsTERJo7dy6tWrWKEhIS5Ff0K126tBhldnZ2FiPM3Xr2oQ4d2pNDJVv5CP34aRYTGyuC8p+//6bz58/TlStXxN/h3r17eapVNm/enDb+/ju5udWi0qWsZClA4UA4WiAOxqCgIFq2bBn9+uuvdOfOHfkVbWXLliUXFxdq06YNjR8/njp16iTKnkZqWhpdvXaNtvzxBx04eJCCAgMpLi4u19pks2bNaMZHX9CQfj2pXNkyshSg4CEcLZCfnx999dVXtHnz5sfWGLmm6OrqSl26dqXXPTyoZcuW8isF6/bt27Rl61baumUL3bhxg+7evfvYkLSzs6Pvlq+i4YMHkHX5pwtpAH0QjhaG5ysuWLCA1qxZI0JIn6pVq1Lfvn1p5MiRNHDgQFlauK5evUqbNm2iffv2ic+1liJmqlqtGs39eiGNGj6EbCpgSSIUPISjBYmIiKDVq1fT8uXLxef6cNN13Lhx9MYbb4gJ2obESxCPHj1Ka9aupUOHDlFsTIzeWqSzswt99PlceumFMWJwCKAglfhUJT8HM3YvJZV27NxFK1esoMDAQFn6qA4dOtCcOXNo4sSJRRI4PB2I1143btyYHlJx0TeamKjd9Ody/1s3qXGTJlSjenXxvQAFBeFoAXje4mlPT/pu0Xd04fw5Wfqovv360Rdz51KvXr1kSdHhKUFNm7WgitYVKPj2bTFopNXI4a6B0NBQMY2IN7UAKCgIRwsQEhJCK9Sm9J7du/Q2UXv06EFfffkltWrVymjmEVYoV1ZM33GoUoWuX79O0dHR8itZOPi5nCeyc0Da2uY+rQggL7DZrZlLS0unEydP0t69e/XuoNOxY0f6YPZsES4lcqxwKWqlS5WiYcOH0yeffELu7u6yVBePuO/evZt+//130WcJUBAQjmbO1/cWbdiwQTQ9tfCWYbx+uUP79kY7qMEBOXjwYHr7/Q/EJHQtPMC0detWMZgDUBAQjmYs+d49OnHiJB0/dkyW6OKJ3C+//DJ16dLlqSd1Fzbewmz40MH0zvTpskQXdxdw03vbjl0UE6d/ihJAXiEczRgfX/DX/r/0TvTu178/DRo0iKytrWWJcbO3s6HJkyeLv7MWXob495HDdOTwIVkC8OQQjmaK+96uXfehw4e0g6JGjRr0wgsviO3ATGmnmyr29mJLNX0DLwH+frT/r30U/ph5nAB5gXA0UzyCe/DgAb2rYAYMHEhtWrc2yR2369SpQ3PnzZd3usT2a+fO0cULF2QJwJNBOJopnr6zbetWeaeLd9Xp3bu3Sc8LfG7USDG6roWXHh47fpySkpJlCUD+IRzNEK+G8brhR+Hh4bJEV7t27ahRw4YmvaLExsaWJk+eIu908V6RvDXazZs3ZAlA/iEczVDi3Xg68+8/mhO+ea00H2TFTVNTZmVVkvr376e39nj61CkRkABPCuFohnh0+szp0/JOV9OmTalRo0Ymvw6ZB5F467KxY8fKEl38O/C64Uvh0Y/fqxJAH4SjmeH1xwkJieTl5SVLdHF/o5OTk7wzbRUqVBCTw3MezZDp+uULFOiLpjU8GYSjmUlNSyfvWwHyThfXFrnmyGe+mAueo9m6dWt5p4snhT9uByKAx0E4mpmHDx9QUqz2sao8t5Evc1LRxobad+gg73QFBwdTaFgYPXjw+KMXALQgHM1MWmoqXb3qLe90cR+due1aY602rbnmyEc6aAkKCafoO3HyDiDvEI5mhvsc9R0vwOHIlznhrgLHatWofv36skRXdEQoJcRjUAbyD+FoZniFSECAdp8jby5R1sDHHhhCmTJlxJk3Wu7ExlJyUpK8A8g7hKOZ4c1f+SB9LVWqOIjD981N+fLlxSi8Fj7uNQnhCE8A4Qgmr7Rac6zi4CDvdMWqNcfExER5B5B3CEczU7x4cVGT0pKQmECJjzmn2lSVLFlS/TdXkHcABQPhaGY4KPQ1MePVJiY3MwEgdwhHM8Ojt/pGpHmPR33nyACALoSjmeFwrFSpkrzTFRMTIy5zw7vwJCdj0AUKFsLRzJRQm9WOjtprp2/fvi0OyTc3KffvU2Sk9qog7n/lqT4A+YVwNDN8Ul/Dhg3lna77aoiEhEdS3F3zGr3l7gLuT9XCU5f0nVgI8DgIRzMjVow4ViM3NzdZosvv1k0KCtSeJG6qkpOTRa1Yi0PVqmL9NUB+IRzNEDclec9GLbdu3qDAAH95Zx74nBw+GkGLna2d3qlNAI+DcDRD5dQwaKgnHHlpobcaJHymtTngWuMVLy9KTU2VJbpq1aqld2khwOMgHM0Q97G1b9dO3uni5YW8S7i/n58sMW1cazx+7Ji80+Xq6kouLs5UsoRp73oORQPhaIY4DPiMmC5dusgSXf/++y/5+PjIO9PGk9qPHDki73TxTj0uLi7yDiB/EI5miM9X4VHaznrCkTemOHz4MAWHhMgS08QbSuzevVuc0a2lwTMtqGYd7a3MAHKDcDRT3M82oH9/veerbNy4kY4fPy6mwZgi3reSa42///67LNHFXQtN6tchxyraE+IBcoNwNGO8xnrIkCGiJpkT71SzZfNmccYKB42pSU/PoP/7v316DxJr1749NW/eXN4B5B/C0YxVq1aNhg4dSo6OjrJE16FDh+jQ4SNixNfUREZG0NKlS+SdLj4ygY9OqFffXZYA5B/C0YzxDj0837FXr15iK7OcuM/uu0ULxeH3ptS8znjwgNasXUvXrl2TJbrc3d2pg1pzrFDe/HY9B8NBOJo5blrz2c4urq6yRJevry99/vnnonnK03xMwcmTJ9VQXyTvdPE66rbt2lHzFi1kCcCTQTiaOa49dujYkUaOHCnOkNHCzevFixdTUEgYPTTy/kcO8dc9PPQeBdGgQQMaMXy4OHQL4GkgHC1AtapVaeiQodROrVFxWGpZv349rfjxJwqL1J4WYwx48Oi9994Th/VrsbGxoV69e1PHjp1kCcCTK/GpSn4OZszBwYGsSpUiHzVY9M0LvHzxPGU8LEYuztX1TgEqKn5+fvTlV1/Rli1bZIkubk5369aN3p0+nWrUqC5LAZ4cwtFCcI2RJ4bztmU8kHFPY2017xLudfmiCE8XZ2dyctLeF9LQuCm9bNky+uWXX+jhw4eyNAsPNtV3b0Aeb0ymXj26y1KAp4NwtCDW1tZigIbXI/NAjNbh/zxqfeXKFbEFGD++ppub3qZ4YUtV/y68bnrhwoX0xx9/6B1R51rxax6v0+jRY6lc2dKyFODpIBwtDB+hUEMNyNCwMAoMCNB7pgzv3sMheScuTuyJaOjzrqNi42nH9m20ZPFisdRR3647vB0ZDzZNnTqVqjmY35ncUHQQjhbIvnJlqlmzJoWpAck1RD6DJSdeNcPN60sXL9KNGzdELa527dpignVh4trhqVOnaMnSpbR27Rry9vbSW2MsVaoU9e/fn+bMmUO1a9WSpQAFo5j6IjC9tWPw1DgQL126RJ999hkdPHhQb82M8e7iNWrUoM6dO9OgIcOoc9duBb5mOU2twV719qbt27eLvw/3M2r1i2biv9OAAQNo/vz5ejf2BXgaCEcLxgHJG99+qQbMn3/+mesyQh4RrulWixo3bkI9ezxL3bt3J1e1BlrKyko+Iv8iIiNFv+KJEyfI09NT9IXGxsZqDrxk17t3b1qwYAE1bdpUlgAULIQjkL+/P61atYqWL18ulhTmxkoNQ+6D5LXbdevWpTZt2lCzZs2pVp3a5KSWcXNXn3v376s11svk7XWFbt68KZYu+gcEUIzahM/Ln80mTpxIM2fOFPs1AhQWhCMIfJ713yc86Z0pHhSaj30eOQh5VLtChQpiBQ7f8yqVnKtxuCbI/ZtcK+QQ5FoqN5v5yq2WmMnOzo6+/mYBDRo4QAQzQGFCOML/pKalk5+fLy389lsxp/BJcUBqbZPGI+N5DcKcevbsSfO//FJt0jemsjiHGgwA4Qg6+OnA8x8P/etJn89+j86dOye/UjRsbW1p7rz5NGb0c6LmqLW7EEBhQDiCJp4ozv2J+pYaFjZeJz393XfJ47XXcHogFAmEI2g6qNYce3duK+8Mx83NjcaNH0+vvvoqOdeoIUsBDA/hCI/gbcuGDxtGu3btkiVZypUrJ/r9eFoPjzTzdCDeB5I/5qc/kZck8pU5h5JHvHv2HUh9eveiqvZ28lEARQfhCI/gpYVNmzShO3fuyJIs9erVpw9mz6aXXpwgTi88eeIkeXldoQsXLoidc3iqTkZ6Omk9q3iMhlfYcMByGPIZLy1btRZha2tTUT4KwDggHOERS5cto2lvvSXvsnAtb/io0bTwu8XkXE17HXOsGqjBwSGUnv7okr9SpUrTM02byDsA44ZwBB0pqanUpnVrsXwvJ55bOGvWLJo2bZosATBfmBcBOi5dvqwZjIxPMcRxp2ApEI6gY8Xy5fIzXTyxm9cxt2lr+BFsgKKAcIT/4eV9vHeiFp5r+Oyzz1KZQt6yDMBYIBzhf3bv3i3WPufESwF5B/FOnXBwFVgOhCMIvJ8jh6PWxrK8sUTXrl3FZrcAlgLhCML58+fFsQhaE7krV65MAwYOlHcAlgHhCMLevXs191PkVSy8b2KzZs1kCYBlQDgCBUdE07Hj/4pjW3PiA6wGDR5M5cuVkyUAlgHhCLR7x3byvXVLs0nNcxv79esn7wAsB8IR6OD+fRQfHyfvsnCTmtdAY3ccsEQIRwvHAzE+Pj6ao9SlSpem0eMnFdmh/gBFCeFo4Xbs2EHh4eFiB/DseG6jQ5Uq1K1TO1kCYFkQjhYs9k4cHf/3X0pMTJQlWXi54Pjx46lcGayIAcuEcLRgR//5m4KDgx+pNTLed3HylCnyDsDyIBwtGK+ICVHDUcuoUaOoqoODvAOwPAhHC3Xdx4d8ff3Ecala+vTtKz8DsEwIRwvEzejDhw5RQIC/LNHFZ7qMGjlS3gFYJoSjBUpISKBjx49TWFiYLNE1adIk+RmA5UI4WqDLly9TUGCgvNPFh195vPGmvAOwXAhHC5Oalk5Hjx2nmzdvyhJdvfv0IadqOEQfAOFoYfwCAumM51mKj4+XJVl4buNLL70k7wAsG8LRwnhfvkg3rl+Vd7pq1qwp1lIDAMLRosTFxdG58+fFWTFaePcdW1tbeQdg2RCOFoSPXD137pzmJhNlypShYcOGUykrK1kCYNkQjhaCz4jhHXiuenvLEl3cnHZ3r08lSpSQJQCWDeFoIbgpfer0aYqKipIlup4bPZqsK1aUdwCAcLQQ3KQ+rzaptbi7u1P79u1xJjVANghHCxB/9y5dvHhJ70AMz22s7uRExYvj6QCQCa8GC+Dn60unTp2ijIwMWZJFHKA1cCDZ2dnJEgBgCEczx4HIq2G8vK7IEl3t2rWjunXrigngAJAF4WjmYmJi6OzZs+Kjlt4DhpBdpcryDgAyIRzNXFBQEP3zzz+ax666ublRhzYtqUJ5nEkNkBPC0Yzx3Ebe1JZHqrXwhra13GpiIAZAA14VZiw0NJR279qlORDDuL/R3t5e3gFAdghHMxYREUFHjhyRd7ratm1LjRo2xEAMgB4IRzPFwbhnzx66e/euLNHVvUdPqunmJu8AICeEoxniM2J4dPrkyZOyRFeFChWobp3aVFqtNd6/f59S09LEQVtaR7QCWKpi6gsCrwgzw7vu7Ni5k8aMHi1LHsUB6eLiIvod3Rs0oGrVqlGb1q2pbNmyZGVlJT6WVD+WLFkSywrBIiEczVBISAhNmzaNtm/fLkvyjlfKuLq6UseOHamGszM5OjrRM02biL5JDkwO1VJqWPLn2N4MzBnC0czwfEbPs+epV8/ulJSUJEufDm9jVqVKFbGSpmnTpuTk7Eq1atch1+rVRFhyUPLBXGXLVSBr6/JUEtuegRlAOJqZpOR7tPSHH2nOjOmypPDwNCA+WsHJyUlcjs5uVKeWKzlWdRBrtitWrCg+lq9oS5VsrOV3AZgGhKMZ4f9Knts4cuRIOnPmjCw1PF554+joSM5qs7ya+tHRtTa5uzlT5cqVRQ2zgrW1WuO0JuuKNmRdvqz8LgDjgnA0Iw8ePBDzGocNG0bJycmyNAvX4niAhZvb/FhD4lU43Czn5jkHZ1VHJ6quNs9r1nAUoWmtBibXRCvx52pwWlmVlN8JUDQQjmaEp+VMnz6dVq5cKUuycDD279+fmjdvTtHR0WJH8LCwMDEPkqf98OFbHJqGfjpwn2WNGjVEMPLoefUaXMOsRI7VqlGlSpXEgV9OTtXV0KxENmozvVixYvI7AQoXwtGMBIeEULu2bUXo5dSgQQOaP38+DR06VMxpjL1zR2x+G6+GYmRkpAhIDs3wiAgKCgwUNU/+OTzyXRQ4LPniWqWLiyvZqzVOO1sbMZJuY2NDDg4O5KJ+zgFqrQYsQEFDOJqRX3/7jV568UV5p2vEiBG04Ntvya1mTVnyKN6oIloNyVA1ELkWyqHJfZgcpBHhERQQ4C9qnHxxkBYFHvjh2iYHp1P16qJmaa8GaK1atahq1aqi3M2tlvqxspivCfCkEI5mpHv37vT333/Luyxcu5oxYwa9++67os8xP3hq0N2EBLoTGytqktz8vsNhqQZnrFoWHBxMwWoNNPPze/fuye80HJ6DWV0NSv532thwM9xR1Cz54v5Nrn1WV5vuotapNs2xCxHkBcLRTPDJgt2ffZZSUlJkSZaWLVvS119/TT169JAlTy9NbZonJSZSjBqKsWptM1H9nAMyKjpG1Cxv3bpJIWpYchnvRG5o/CbANUye1M6DPRyc3DR3UC9eDZTZPK9Xvz65uriIUXSA7BCOZuKd6dNp8XffybssHBLPv/ACLVm8WDRBC1uK2jTn/kquafJgDzfPOSB9/G9T+G1/ClOb6dxU50vfgV+FiZvaHJocjGXKlFFrlfbq78VGNMm59lmvXj2qVbs2VXeqrgaoi/wusEQIRzPAo8y11Re01pnUPBI8Z84cev3112VJ0bibmEz3kxNFs5sDkz9GREXTDV9/Cg30EwM/3Cz39fUVYWpo3DTn2iNPXOd5mOXKlhW1TQ5NDsxGjRqpNU5HtaZZjyqr5WD+EI5m4Oeff6ZXXnlF3unq2rUbrVm7ltxqusoS45Hx4IEalCmUmnJfDAbxxcHpHxxGvjdv0O0APwoMDBS1zMuXL4sNNQyJpw1lrinnqVCZAcpNda5ltmrViuqqwVm1ajVq1bJFvvtzwbghHM0AT/reuXOnvMvCfW2vvvoqffPNN2J9tKlIz8igdLmNGl+8kzkH52Uffwq44SWmGh09epQCAgLEAJGhcWhy85yb5fyRQ5E/5wnuvJyya9eu5Kp+5ClIvGkHmCaEo4m7ciOAundqIwZFcuJazbKlS6lPnz6yxLSlpqlhmZYqwpJrmBycPBB07vwFCgsLJZ/r18nT01M0z7VWCBU2HgXP3O4tMzR5alGTJk3EBHdeIVSzTj1q0KAhOVZB09zYIRxN3JuTJ9Pq1atFTSs7fnH26tWLNm7cKAYfzBU/fTksecoRL4nM/Dzo9m3y9r5KIcG36fTp03Tp0iXRPOdANTQOSQ5OvrgGzxevP3d3d6c6deqIN7Fa7k2oZZMGVK5sGfldUNQQjiaOBwt4ECPnfyPP8ZsyZQp99NFHsgTY2XPnyN/fn/z9/OjAgQN0Xa1t8mR3Y9GsWTNRw2zYsKGYZlS3cUtq3aSe/CoYEsLRhG3bto0mTJigOfG6Zeu2tH7TFnKv5SxLQB9eAXTxwkU6d+6sOHuHa5mZ/ZlcG+Urs2bKHw2tdOnSYvCH52Y2adqUWrduQzXdapJ9pUqiFso1Uq6dZn6O9ecFA+Foonik93UPD/r1118fOXqVR1VHjRpF69evlyWQX9z8DgsPF6HJE9qDgoJELZOnHHE/Jw8Q8e+dR9D5sYbe5Yjxyp/GjRuLQaBmzZpTg0aNyMW5BlW05l2NrMRVOnPQSA1OhGb+IBxNlJ9/AHXp3Elzkwlef7x48WIRkFCw7vFUI7VZfvHCBTHww4HJ3Rrcn5mWlq6GZooIzMzgLArcj8nzXvljK7WWyZ9Xd3IUA0Vcw+Q3z8yRdq5pgjaEo4ni6Tlz584VtZjs+Mnepk1b2vvnXkxWNqCIyCg1LG+L0PTz+29Su7e3twjIlBReNZQkapu8vLOoQpP7M/mNk/s0W7RspYZnbbKVK4X44uZ75nxOhCbC0SQlJiVR3z59xChszj4wnts4e/ZsmjVrliyBopKeniG2gLutNsm9vb1ETZP7Mm+rH1PUGiivbOI3N56WlJCQYPCmeeZUIx4556Y5r6ZqpDbTeYI77+Luol5c27RUCEcTtO+vv8jjtdfEiy0nnk+3fccOatmihSwBY5PMSycjIinA3080yXkQ6NatW2Jg6F7yPfVjLCXcvSsG2ngHJEPjGuTEiRPFGywPAlkqhKOJ4c7/qVOn0rp16x4ZpebRysGDBz/RkaxQ9OLVQOR9Mm/dvCne+HiN+Y0bNyj6Tjwlxt8RG3lkvwrT9Onv0gcffCD2xbRUCEcTw5ObR44YQefOnZMlWbgJ9PMvv9DYMWNkCZi6Bw8fkl9QKEWH3RY1TB6ACw8PJ//AILoTF6eGZpwISm6Wc5hqbVn3JObOmyf2/yyj1iItFcLRxPz222/04Ycfajap69evT6fPeJKtTUVZAuYq6d59Cg2LoOjIMIqKjBQ1Th4Euh0aTndiYyhebZpzk5yfJzkH7XLD/dYLFy4U6/ItGcLRhHBf1eQ336RNmzaJkc+cuBnE58SA5YqJS6CY6EiKjYmm6KgosasR1yx5nibv6B6jhiiPpnNw8kCQFh7NXrBgAQ0ZMkSWWCaEown5++9/6L333qULFy7Ikiy8geuJkyepaRPsAgOPCg0No8SkRIpTQ5GDMj4+XqwACgq6TXFq05x3bef5mxyaLVq0oK+++krsLmTJEI4mZObMmfTTTz9pbtPVrVs32r9/v5ijBpAXqWlpoibJOxhxfyWvMefpRbxRSctWrcjJ0VE+0jIhHE2Er9oUeuP118Wh/Vrre1eu/JE8PF6TdwBPjpem8kJDnv1gyTAN3kSc9fQUE4i1gpG39h8+Yri8A3g6vA7b0oORIRxNQEJiEh35+2/NEWo2fPhwqmJvL+8AoCAgHE3A5UsXyevKFb1rcie+/LL8DAAKCsLRBBw7doyuXbsm73T169ePnsEINUCBQzgauWCxu8tVMYqopa8ajryjCgAULISjkTt/7hxdvnzpkWMQGJ+r/PzYsZi+A1AIEI5GLCU1lby8vcWkXS1Dhw4V++9hh2eAgodwNGK8zItrjlpnxPBUiyGjx5EVao0AhQLhaKR4PuOlixfp7NmzskQXH7jUpmkDMScNAAoewtFI8XZUF9Rw1DojhvXo0YPKlSsn7wCgoCEcjZTP9et0/NgxeaeLN5kYNGiQ+AgAhQPhaIR4Kyk+nIkvLb169RLnfeAQJIDCg1eXEeKto44ePaq53x4fivRs9+5ka2srSwCgMCAcjQwPxPChS56enrJEF+/23blTJzSpAQoZwtHI8Al0p06dErVHLf0HDBBHZwJA4UI4GpkANRQPHTok73Txipg2bdqoTWo7WQIAhQXhaERS09Lp2g1fvQMxHTt2pPr16pGVVUlZAgCFBeFoRHib+r+PHNE8PIs3lxigNqlr1qwpSwCgMCEcjUhUZAQd++ewvNPFodioUSNxbCYAFD6Eo5HgLclOnT4tzh7W0qV7L3J1qy3vAKCwIRyNBJ/+tmf3bsrIyJAlWbhJ3apFM6rqUEWWAEBhQzgagQcPHlBAYCCdPHlSlujic4QbN2xApTAQA2AwCEcjwOcG//XXX+KjFj6TmvsbAcBwEI5GICEhgTZu2CDvdNWrV0/MbcRADIBhIRyLGNcWd+/Zo3cgpmHDhlS3bl3s9g1gYAjHIsa7fB8+dEjzjJiyZctS27ZtxXpqADAshGMReqgGYlh4OG3fvl2W6HJ3d6dmzZqJIxEAwLAQjkUoPT2dDhw4IO90cTO6ZavW1L5DB1kCAIaEcCxCiYlJtO633+SdLicnJ2rVsgXZVKwoSwDAkBCOReifk57k5eUl77JwrbFho0bUqVMnWQIAhoZwLELbf9euNfJGto0aNqTatbFcEKCoIByLCO/As2/fPnmny9nZRYxS87JBACgaCMcismHDBoqPj5d3WfjQrAYN3NGkBihiCMcikJx8jzZv3izvdNnZ2YkD+/l0QQAoOgjHInDq9Ck6c+aMvNNVq1Yt6tGzp7wDgKKCcCwCq3/6SX6mq3z58qLW2KghNpkAKGoIRwMLDgkRZ1Jrsbe3py5dulC5cmVlCQAUFYSjge3etVvvQAwfhdCpc2dZAgBFCeFoQPfv36e9e/dQWlqaLMnCcxv5dMEaOJMawCggHA3oipcXXb16lR4+fChLslSqbE+9BwyWd8Di796ltPR0efff9m4AhoJwNKBt27aJs2JysrKyoubNm1Gr5s/IErh85QrNmDGDvvryS4qOjhZlS5cupalTp1JiUpK4ByhMCEcDib1zh44dPSaa1jlxk3rIkCFUvixWxKSkpoo3kfffe4/+2LSJli9fTseO/0u//76JVq5cSevWraPnn3+efPyD5XcAFI5iitYuq1DgVv/8M3300UcUER4uS7LwhG9PT09ydHSUJZYpNCyMVq5YQRs3bqTg4GCxpRtr3LixGMQKDQ0VmwKXLFmS3Bs2otmzZtLYsWPFYwAKGsLRQAYOHEgHDx58ZDCGd/vmmtCqVavEiLWlunTpEs2bN+9/B41lf1ry7yVnPy3vXMTbuk2ePJmmvvUWVShfXn4FoGCgWW0A/xw9SteuXdMcpbauWJHGT3jRYoORl1KuWfsrjR8/nnbu3ElJSUmPHBmhNYDFj+Ga5IIFC2j27NkUo9GXC/A0EI4GcPzYMYqLi5N3Wbj24+LsTF27WObcRp4QP+fDOfTW1Cnk7e1NGRkZ8it5x79XboqPGT2ajqm/Z4CCgnAsZElqE3H//v2aE79Lly4takyWJuPBAzrj6UkvPP88LVm8WNQWnwb3TR4+fJg8PDxo165dshTg6SAcC9kutanIgwtaeC31yOdGyzvzx83jqKgo+vHHVdS3Tx86fvy4/Io2HnjhwaolS5fSlClTcj2728fHh6ZNmyam/MTFxWs2xwHyjAdkoHCkpacrL7zwgmJlZcWdaI9c6gtePtL83bufoly7dk0ZMmSI5u8i+1WsWDHFxsZGGT16tHLx0iVFbW6Ln7Fy5UqlatVqSvHixTW/L/MqU6aMMum1N5RrN32VtLQ08b0A+YVwLEQXva4rbTt01HwBq7Ui5cDBg/KR5i08PFz5ZcNmpWHDhpq/i+xXqVKlxOMWL16sxMTEyJ+QxfPsWaVT585KuXLlNL8/8ypbtqwyYuRI5aD6O1ab7fK7AfIO4VhIuLazYMECxcHBQfPFW79+fflI85Wu1pwvX76sTJw4UbG1tdX8PWS/+DEDBgxQ9h84qNxPSZE/5VHhkVGKh4eHUrlyZc2fk/165plnlLVr1yoxsbHKg4cP5U8AyB3CsZBER0cr48eP19ukfm/GLPlI88T/fq61tW7dWvPfn/3iZrKjo5PyxpuTlatXr8qf8Hj3799XZs6cqbi5uWn+zOxXjRo1lG8XLlRuh4Spb1oP5E8AeDyEYyHZf+CA0rx5c80Xq52dneLjHywfaV64tnjjxg3lo48/VqpUqaL5789+WVtbKx07dlSWfP+DEn3nrvwpecMBuemPzUqzFq1EN4XWz8+8uBn+5rTpyhnPs+iHhDxBOBaClJRU5ZNPPlUqVqyo+UIdOnSofKR5iU9IUg4cOqSMGTtWDIpo/dszr/9qi47KK6++qpw+fVpJTU2VPyV/UlLTlCPHTyqDBw8Wgzhaf1b2q3v37sru3buVu3fvKg/RzIbHQDgWgitXrigDBw3SfHHytXHjRvlI8+Hr66ss+G6J0rpNWzGoovXvzry4ltdMrVXzoEtAQID8CU+O+3d5JPzdd99VXFxcNP/M7FejRo2UpUuXin5IAH0QjoVg+fLlirOzs+YLs169ekpkVJR8pOm7d+++ckitLb788suKvb295r85+1WhQgVl+PDhyp49e564tqhPRESEsmTJEqVly5Z6+3ozLycnJ+X9GTPFGxmAlhKfqtQnCxQQPqx//fr1dPLkSc1JyOPGjaMBAwaICc6mjv+tu/fsoWVLl4pVQGpTVX7lUbxUsl79+vTCi5PoDY/XqFu3blSiRAn51YLBW7+pbz7kUM2J7iYkUlRkhOZ6dpaYmEiXLl6kkNBQsfu6WuOUXwGQZEhCAeFalL4RWh4UOHLkyP8mNZsqHnS5dPmy8t777yt169ZV1JDT/Pdmv3r16qXs2rVbib4TL39K4UlSa7PHT5xSJk2alKdBoa5duypbt25V7t2/L38CAJrVBYpHQb9ZsEDvQAy/CLnpZ8ri4uOVrdu2KX379cvT3EUejZ4xc5Zy7tw5+RMMI119A+JR888//zzXfkgeHOKJ5zNmzlRuh5tPlwc8HYRjAbp+/boybPhwzRcgXz+u+kn00ZmqkJAQ5ZNPP1Xqu7vnOnWGr/bt2yvr1q9XoqKj5U8wPLXpr/y2bp3SsmWrXGu4HPYvv+YhasUACMcCtGvXLjHgovXCq1OnjlgtYorTR9LS0pUznp7KyJEj8zTowjVnXhd94cIFJeUxK10MJSk5WTl2/LgyaNCgXKcY8YBRj549lT///FN+N1gqhGMBibubqHz8+TyldOnSmi+6t995R9RiTE1iYqKYctOhY8dc1zPzxStWlv+wQjRpHzwwntUoqWlpio+PjzJu3LhcA5L/D7nf+Jc1ax67jBHMG8KxgJw+c0bp3KWr5ouNa1K8Yqagp64UJq7h8pQj3jmIa4t5GXTp27evGHDiQDXWGnJoaKiyZOnSXPtL+d/LfZWfqG94oZGPboAB5g/hWEC2bNkilgVqvdA6deokJkmbUpP60OEjYtMG3t1G69+U/eKm6LS331ZrZjfESLaxS1ab2f93+LjinMtADW+dVqGCtTJo8GCxigcsC8KxAPBAxeTJkzVfYHwt/uEnJTHpnny08Zs1a5ZSvnx5EQ5a/57sV9OmTZUtW7eK5XjG1IzODY9m3w4OVtq1a6f578p+cS2Sm9m7du82qdo/PB2EYwE4duyYmO+n9cLi9b4nTpyQjzRuF676Kj179dL8d+S8uP9xwoQJynUfH/ndpuuNN97Q/DfmvLg/9bd169Wap+m80cGTQzg+peR795TlK1Zovpj44gAJCgqSjzY+3NTnzWB50CUvGzdwLapmzZrKgm+/VeLV2qI54Nrgj6tWKS4urrn2rfK8zXfeeUe5efOmSdWUIf8Qjk/J399fTHHReiHxC403mTDWfjj+e4WFh4tpN3kZieYNJTp27GSW01x4d58DR08pHTp0yNMczhEjRoi9J3m1kylOz4LcIRyfQoZac+DRWa5NaL2AOnfuLOb6GRuu8fCI8rZt28QmDbnVlngFiaurqzJrzkdKYKjpTUfKK/69cDfBc889J/pctX4X2S8O0gMHDiiJSckISDOEcHwKUVFRyqeffqb5wuFA4S20jG25YGpaunLz1i3liy++EDtka/3ds188548DdP369aILwRLwdJ/33ntPqVot98O8uCti2Y+/mNVOS/AfhOMT4poCrxdu0aKF5ouGN3LduXOnfLRxiIuLUw4c/kcZMGhornsu8lWpUiXl+eeft8hpLLyGfPXPPyvPNGuW66RxDsj3339fuaW+6YD5QDg+Id6i/9ffftN8sfA1fMQIsQGrMeC+Rf+AAGXhwoVK48aNNf++2S+uLTZp0kStFX8qlt5ZKv4//mv/frFzu76uk+wXL0/kmQs4hsE8IByfULjaXOYNXrVeJDy4waO5/OIqavfUprCn51llytSpeVoXzRPZBw8doWzfvl3+BDh//rzy0ksv6T1JMvvVoEEDZfuOHUpcAo6DNXUIxyfAJ9idOOWpt8+ubbt2RX4mNQ8ucJ8o9xX26t0716YhX7w5xieffKL4BoXJnwKZeML4p1/MVdxq1c61H5L3kPxq4RIlWP0eMF3YCfwJqLUx2vjHFtq1Y5ssyWJlZUWjRo2iIUOGkNoUk6WGxbtfX/Hyop9Xr6bvv/+ezp87RxkZGfKrj1KDk559tjtNm/YWvf7661Slkq38CmSyqViRmj7TnKo4OFB4WCjFxsbq/Z3y8+PUieN07/59srW1papVqxb4rudgADIkIR/Cw8OVNm3aaNYauDa5bt26IpvbyE15bhL3798/T7VFXvUxffp0tel4QUkzgXXRRY1399m/f7+YG6pvU+PMi3//vdVaOy+vtOS+W1OFcMwnDr29e/fqDR7eIfvixYvy0YYVHhGpzJ8/X6x31vq7Zb/478/7Fq5Zu1YcwI/VHvnj5eWlvD9jhlJdfTN83Bp0nhXAG3gsXrLE5HeBtzRoVudTamoqLf/hBzp16pQsycJN6mFDh4kmdenSpWWpYfABV6tWraI1v/xC/v7+slRbpUqVaKTa9J8yZQr16d2bbGxsxAFYkHcOavO6fv36ZG1nT2GhIRQTE8MVDfnVLOqbDqlvPnTdx4eSk5OpevXqZG9vL78KRu2/jIS88g8M1HvsqvpiEQc1GRJvv/Xzzz8rzfIwH48vd3d35euvv1Z8ff2MdlmjKYmNT1D2qC2JLl26aP6+s188b3T8+PHKiZMnMd3HBCAc80mtNWo+8fkaNeo5JdCAm0xc97mhTJw0SSzt0/r7ZL+4eddPbfLzksFYHGZfoDjoeJno2LFjNX/32S/e+7JPnz7K1h27lTtqsILxQjjmk77+PF4Rs2TJUoPUxngZ34YNG8QmunmpLfLfbcaMGYqXtzeOHy1EAQEByqLvFue6yzhPsm/cpKky/6uvxFJFME4Ix3zwPHtW744tvGnqv//+Kx9ZeAJCIpTZH36k1KpVK9f5dvx35VH13zdtUmJiYjDoYgAJiYnKrj17xVGvWv8nmRf/31WuXFmcrc3bn4HxQTjmw+QpUzSf6FZWVsorr74q+v8KE08h6dd/gGJXqVKuwcjNN95Wy/PsObFfIxgOT6fi9ei8a4/W/032i5cl8tk7vAqHtz8D44FwzCPe2FVf3x6X//LLL/KRBY+bwou++07sNs5BrPV3yH7xCo1FixaJKTp4wRUN/r3zCYx8QJnW/1H2i/9PeTBv575DSvJ9nHZoLBCOefTH5s1657N16vqs4uNXOAMx3levKi+++KLox8rtTBfel7Fvv/7KiXNXcNaJEeBujMjoWGXJitW5Thjn/9ty5cor3y5ciJq+kUA45hEPfmg9qXm7Kj6QqqClqOG2ddu2PO2ik3nNnDnTbI4uMCe88uj/9u3Te85Qzot39wnBQE2RQzjmwS0/f80nMV/c8V6QAzHcHAsMDlM+/Gy+6DfU+jOzX9wk48GZzVu2yJ8Axor3/+T+xbx0jbRq1UrxunoNc1GLEMIxD3hHb60nMDeFunbrViDNIN48l+fLccf8wIEDNf+87Bf/2TwlhCcV8zkwYBp4ZPo1Dw/F1s4u124S7jv+v31/KSkp6IcsCgjHXPAINNfMtJ681apVE6tNnhb3TfHgCR/7yduGaf1Z2S+uedStV1+ZN28eXjgmKCwqVvlqwSLR6sjtMC9+A/z0008xFasIIBxzsW79eqVs2bKaT1xesvc0RwhwbZHDzdvbW3n7nXdy7bTnix/DfVKHjp0UO8SAaeLpPrxaifuyOQC1/q8zL37+jRkzRgzO3U/BQJuhIBwfg/t7eEmY1rs7P2FfffVV+cgnw7VFHgXPy3w4HonmGiwf/BQSEiJ/Apg67q/m+ai5zUbg1sKz3Xso2/fsE2cBQeFDOD7G1WvXxNI7rSers4uLsm/fPvnI/Lt+/boy58MP83Q2CY+Id+/eXYxe38VotNkJDAxS3nv/fTFf9nHH5PLEf9445LvFi7HLuAEgHB+Dp+honV/MT1LeheVJps3ExN0VK12GDRv2yM/NefELpXbt2srbb7+tXL58GSOXZoyfS8uWLROnWebWD8kDNdOmTVMuXLyI50QhQjjqEXc3UZwFo9XU4Sk23EmeXz4+PsqiZSuURo1yn7vIG0rwn//98uVKWBjOdLEEfBjapk2bxO5Jj6tB8sV9z8OHD1eO/HNUSbqHzUQKA8JRj5179yk19OzbyH1/3OTOK16twkd28rSbvJwAyDUDPi96/4ED6gsGT3xLc8XLS5kw6RVxiqXW8yPz4hpmuw6dlHUbN2EbukKAcNTAYebh4aH55OR3dD7HOK8iIiOVH1etytP2Ytxcr+/eQJn/9QLRJwmWKyQiRvn8iy/0nnCZ/eLjYOfOmyfmUGItfcFBOGrgYGrXvr1mk5pHqddtyn01CgfsmTNnlGlvvy2e4LlN+OWfy82pzVu34cxjEO6npIjD2tq2bav5nMl+cWuDd4bifsjUVEzxKggIRw3ff/+9mOCt9SRs3ryFGFR5nOg78crvm7eKsMttNJpDk0fEZ86aJXaTxvb5kB0PuBw+fFgZN26c5uBg9ov7IfsPGKDs3r0Hpx0WABywlUNCYiKt+OEHOn/+PD18+FCWZhk7dgwNGzJY3j3Kx8eHflixgn75ebX6M86JM4z1UZvR1KJFC5o56wMaO2aMOLBJbbbLrwL89xxRWx5U392drMpUoOCgAEpISJBf1cWHvwUGBornYAn1++rVqyfOJIcnJEMSJH6Xbt6iheY7M18XL12Sj9TFKx7+2r9f9Efa2dlpfm/Oi7ci4xU2OLoAcpPx4IESHBqurFy5MtddxvlycXFRZs+eLdbd80osyD+EYw7vvPOOmHSt9YTjidha88oio6LEucTPNGuW61IwvvjJvXz1r0qQAQ/jAtPHIceLAHbt2qV3C73sF592OGHCBOWC9w0lIwPrsvML4ZgNT7TuqD7p9A2eqM1l+cj/cFDytAvuD7KvUiXXowv4GjJkiDiaE3PT4ElxK8XT86zi8frruU734YG+1m3aKdu3b5ffDXmFcMyGz3/m5ojWk4znJyYmJspHKmI7+41bd4nlXHmpLfLa2Q8++EDUFtMx3QKeEj+HQkLDlPlffqU4OTlpPucyL37T5sO8PvvsM/ndkBcIR4n7/SZOnKh3ZcIrr7wiH6mIps3sOXOUympg5qW2yBtLHDhwQEzUxbZTUFDEVncxMcrSZcv0bquX/eLRbG5m303Aedl5gXCUDh06pLRs2VLzScXXjZu3xON8bt5UunXrJg7J13pc9oun8fBKl6tXr4rJuegYh4LGz6nMFVh52d2Jd/dp36Gj4n0rUP4E0AfhKC1ZskRxcHDQfELxmdRsw8aNYrKt1mNyXm5ubsrSlauV2Hi8S4Nh+AaFKYOHjshTN4+Lq6tyUK0QgH4IR1VgSLgycswLmk8ivviYBN5zT+trOS+uUfKGAGfPnpU/HcBw+MiODz/8UKlatWquq7K4H50PZeN9RdHd8yiEo4qnRjzulD+eEqFVnv3iTQB4mSA/MbGLDhS1X3/9Vay5zu0wL+76mTTpZdFdhNVZuix+hUx6ejpt37GDdu3cSRkZGbJU1/379+Vn2ngVQrNmzeijjz+m1zw8yM7WVn4FoGg888wz1KhRI7rl60fRUVF6n9tqINLVq1fp1q1bVKdOXapSxZ7UN3r5Vctm8eHITwz1XZauX78uS/KOl3Y5ODjQiJEjad68edSzRw88scBo1KxZk9p37UFJCfEUHBysdymr2qQW4Xj27FlSW0liuWLp0qVJbZbLR1gmiw5Hfjc9duwYbdq0ieLj42Vp3pQqVUq8O7/2mgd98MEH5OrqKr8CYDzs7Wyo+7PPktq8Jl9f38c+zyMjI+nixYuiNeXs4koVKlhTiRLF5Vctj0WHY3hEBP2uBuP+/ftlSd5UrFiR+vYfSB/OmU0vvPA8FveDUeM38o4dO5KTkxOFhIRQlNrM5tqiFg5PLy8vir4TT1XUVlEV+8oiWC2RRYfjiX//pV/XrqXw8HBZkru6devS+AkT6OPP59IzTRrJUgDjx32QrVq1pjtxdygsLExvXzo3v69f9abAAH+qZGcnmtkcsJbGYsPxnvrE2LN7N23ZskVvZ3V2XDts36EDTZkyRVzcXAEwNdxH3qpVK0pOThb9kElJSfIruvg14e/nR+XLl6f27duL1pKlsdgOhaDAQPL09KSUlBRZol+1atVo6tSp9N2iRTRp0iQqV7as/AqAaeFBRFcXF5r1wQc0ffp0atOmjfzKo/h536ZtW7KxscyKgMXWHHnDUO6A5s5n/pw3CtXSrl07mjZtGr39zjvkoj6pAEwdj0JbW1tT06ZNqVbtOhQbf5eCbwfp9EPa2tqKisCECRPI3t5ellqWYjzZUX5uUfiJEHvnDt28cYNOnTpF6zdsoCuXL8uvEjk6OlLfgUNo3JjnqEuXzpiiA2YpNS2dvK5eo59W/kBbt26lO+prgvsXR416jj766COqX7+efKTlsdhwzC4xKYlW/fgjLVKbzdxRzRO6J6rvmoOGDCOX6k4WPZ0BzB8fB3L79m3aoFYQ1qxZQzWcnemzzz6jDu07kJWV5VYKEI4Sn73BE7mLlyhBI4YP/6+vpWJFi58IC5YjJiaGzp49RxWsK1Crli2prIX3rSMcJW5m37x1S6wMqO7kJD4CWBrug2eWOrcxO4QjAIAGdKYBAGhAOAIAaEA4AgBoQDgCAGhAOAIAaEA4AgBoQDgCAGhAOAIAaEA4AgBoQDgCAGhAOAIAaEA4AgBoQDgCAGhAOAIAaEA4AgBoQDgCAGhAOAIAaEA4AgBoQDgCAGhAOAIAaEA4AgBoQDgCADyC6P8B9IrXAwb4D2QAAAAASUVORK5CYII=;flipH=1;" parent="1" vertex="1">
          <mxGeometry x="590.0000000000001" y="230" width="146.58" height="130" as="geometry" />
        </mxCell>
        <mxCell id="EgPqVIzmTn7RL6N8weFt-32" value="" style="group" parent="1" vertex="1" connectable="0">
          <mxGeometry x="635.4200000000001" y="309" width="53.37" height="30" as="geometry" />
        </mxCell>
        <mxCell id="EgPqVIzmTn7RL6N8weFt-33" value="" style="rounded=0;whiteSpace=wrap;html=1;rotation=-34.9;fillColor=#f0a30a;strokeColor=none;fontColor=#000000;" parent="EgPqVIzmTn7RL6N8weFt-32" vertex="1">
          <mxGeometry x="1.3559665809739851" y="9.709971547053653" width="25.53012893746969" height="12.665180278765636" as="geometry" />
        </mxCell>
        <mxCell id="EgPqVIzmTn7RL6N8weFt-34" value="" style="rounded=0;whiteSpace=wrap;html=1;rotation=39.1;fillColor=#f0a30a;strokeColor=none;fontColor=#000000;" parent="EgPqVIzmTn7RL6N8weFt-32" vertex="1">
          <mxGeometry x="26.673344443964762" y="10.76540323695079" width="25.53012893746969" height="12.665180278765636" as="geometry" />
        </mxCell>
        <mxCell id="EgPqVIzmTn7RL6N8weFt-35" value="" style="ellipse;whiteSpace=wrap;html=1;aspect=fixed;fillColor=#f0a30a;strokeColor=none;fontColor=#000000;" parent="EgPqVIzmTn7RL6N8weFt-32" vertex="1">
          <mxGeometry x="20.36880361376603" width="12.987869331291254" height="12.987869331291254" as="geometry" />
        </mxCell>
        <mxCell id="EgPqVIzmTn7RL6N8weFt-36" value="&lt;font color=&quot;#f0a30a&quot; style=&quot;font-size: 24px;&quot;&gt;Followers&lt;/font&gt;" style="text;html=1;strokeColor=none;fillColor=none;align=center;verticalAlign=middle;whiteSpace=wrap;rounded=0;fontStyle=1;fontColor=#FF8000;fontSize=24;" parent="1" vertex="1">
          <mxGeometry x="481.95" y="170" width="60" height="30" as="geometry" />
        </mxCell>
        <mxCell id="EgPqVIzmTn7RL6N8weFt-38" value="" style="shape=curlyBracket;whiteSpace=wrap;html=1;rounded=1;labelPosition=left;verticalLabelPosition=middle;align=right;verticalAlign=middle;rotation=90;fontColor=#F0A30A;strokeColor=#F0A30A;" parent="1" vertex="1">
          <mxGeometry x="499.95" y="20" width="24" height="380" as="geometry" />
        </mxCell>
        <mxCell id="EgPqVIzmTn7RL6N8weFt-90" style="edgeStyle=orthogonalEdgeStyle;orthogonalLoop=1;jettySize=auto;html=1;curved=1;" parent="1" source="EgPqVIzmTn7RL6N8weFt-19" edge="1">
          <mxGeometry relative="1" as="geometry">
            <mxPoint x="369" y="360" as="targetPoint" />
            <Array as="points">
              <mxPoint x="221" y="380" />
              <mxPoint x="369" y="380" />
            </Array>
          </mxGeometry>
        </mxCell>
        <mxCell id="EgPqVIzmTn7RL6N8weFt-91" style="edgeStyle=orthogonalEdgeStyle;orthogonalLoop=1;jettySize=auto;html=1;curved=1;" parent="1" source="EgPqVIzmTn7RL6N8weFt-19" edge="1">
          <mxGeometry relative="1" as="geometry">
            <mxPoint x="515" y="360" as="targetPoint" />
            <Array as="points">
              <mxPoint x="221" y="400" />
              <mxPoint x="515" y="400" />
            </Array>
          </mxGeometry>
        </mxCell>
        <mxCell id="EgPqVIzmTn7RL6N8weFt-92" style="edgeStyle=orthogonalEdgeStyle;orthogonalLoop=1;jettySize=auto;html=1;curved=1;" parent="1" source="EgPqVIzmTn7RL6N8weFt-19" edge="1">
          <mxGeometry relative="1" as="geometry">
            <mxPoint x="662" y="360" as="targetPoint" />
            <Array as="points">
              <mxPoint x="221" y="420" />
              <mxPoint x="662" y="420" />
            </Array>
          </mxGeometry>
        </mxCell>
        <mxCell id="EgPqVIzmTn7RL6N8weFt-93" value="&lt;font style=&quot;font-size: 18px;&quot;&gt;Sense knee angle&lt;/font&gt;" style="text;html=1;strokeColor=none;fillColor=none;align=center;verticalAlign=middle;whiteSpace=wrap;rounded=0;fontSize=18;fontStyle=1" parent="1" vertex="1">
          <mxGeometry x="94" y="258.5" width="76" height="73" as="geometry" />
        </mxCell>
        <mxCell id="EgPqVIzmTn7RL6N8weFt-94" value="&lt;span style=&quot;color: rgb(0, 0, 0); font-family: Helvetica; font-size: 18px; font-style: normal; font-variant-ligatures: normal; font-variant-caps: normal; letter-spacing: normal; orphans: 2; text-indent: 0px; text-transform: none; widows: 2; word-spacing: 0px; -webkit-text-stroke-width: 0px; background-color: rgb(251, 251, 251); text-decoration-thickness: initial; text-decoration-style: initial; text-decoration-color: initial; float: none; display: inline !important;&quot;&gt;Send angle&lt;/span&gt;" style="text;whiteSpace=wrap;html=1;align=center;fontSize=18;fontStyle=1" parent="1" vertex="1">
          <mxGeometry x="150" y="372.5" width="90" height="30" as="geometry" />
        </mxCell>
        <mxCell id="EgPqVIzmTn7RL6N8weFt-95" value="&lt;span style=&quot;color: rgb(0, 0, 0); font-family: Helvetica; font-size: 18px; font-style: normal; font-variant-ligatures: normal; font-variant-caps: normal; letter-spacing: normal; orphans: 2; text-indent: 0px; text-transform: none; widows: 2; word-spacing: 0px; -webkit-text-stroke-width: 0px; background-color: rgb(251, 251, 251); text-decoration-thickness: initial; text-decoration-style: initial; text-decoration-color: initial; float: none; display: inline !important;&quot;&gt;Follow angle&amp;nbsp;&lt;/span&gt;" style="text;whiteSpace=wrap;html=1;align=center;fontSize=18;fontStyle=1" parent="1" vertex="1">
          <mxGeometry x="380" y="349.5" width="120" height="40" as="geometry" />
        </mxCell>
        <mxCell id="EgPqVIzmTn7RL6N8weFt-96" value="" style="sketch=0;pointerEvents=1;shadow=0;dashed=0;html=1;strokeColor=none;fillColor=#434445;aspect=fixed;labelPosition=center;verticalLabelPosition=bottom;verticalAlign=top;align=center;outlineConnect=0;shape=mxgraph.vvd.wi_fi;" parent="1" vertex="1">
          <mxGeometry x="222.37" y="389.5" width="25" height="25" as="geometry" />
        </mxCell>
        <mxCell id="EgPqVIzmTn7RL6N8weFt-97" value="" style="sketch=0;outlineConnect=0;fontColor=#232F3E;gradientColor=none;fillColor=#232F3D;strokeColor=none;dashed=0;verticalLabelPosition=bottom;verticalAlign=top;align=center;html=1;fontSize=12;fontStyle=0;aspect=fixed;pointerEvents=1;shape=mxgraph.aws4.gear;" parent="1" vertex="1">
          <mxGeometry x="431" y="375" width="17" height="17" as="geometry" />
        </mxCell>
        <mxCell id="EgPqVIzmTn7RL6N8weFt-105" value="" style="shape=image;verticalLabelPosition=bottom;labelBackgroundColor=default;verticalAlign=top;aspect=fixed;imageAspect=0;image=data:image/png,iVBORw0KGgoAAAANSUhEUgAAAgAAAAIACAYAAAD0eNT6AAAAAXNSR0IArs4c6QAAIABJREFUeAHtnQfULEW1tl8uIAJGwIBgwoRXMYKKWcGIqNeMARPixYReA+acI2Yx52vOAYzXHBAVVIyomDALKkgQ/n+9MuOZM2dCh13dVd1PrfWtma+nu2rXs6trV9wlESAAAQicTWB7SbtKup6k20k6UNIjJT1d0kskvUnSByR9RtI3JB0j6ThJv5H0Z0mnSfp/Lf5OnsTzi0m835R0pKRPSnqPpNdJeqGkJ0t6mKT7SLq1pD0lXUrSuVAkBCAAAQhAAAIbCGwnaTdJ+0g6YGJAXyvpY5KOnhjw01sY7jZGP/rZf0hyA+Lrkj4o6WWSHitpf0l7Sbq8pG02oOEbBCAAAQhAoFwCW0i6jKSbS3qApOdJeq+kb0k6cSCGPbqh8FtJX5H0NklPm4wm3FDSRcstBkgOAQhAAAJDJeAh7t0l3V3SMybD4t8NGHqPNq6lx/fXydTDWyU9TtIdJF1B0pZDLVjkCwIQgAAE8iFwEUn7SjpE0pslfU/SmfTmW60xaNswOWOih3dNplGsnx3zKTJIAgEIQAACpRHYRdKdJ0P3n5V0Eoa+V0Nft6FwgqQPS3rSZJ3FhUorgMgLAQhAAALpCZxP0i0n885HSPoTxr4oY1+1cXD8ZB3GoyRdR9JW6YsWKUAAAhCAQE4EPJR/R0kvnmydYxi/3VbBqgY4t/s8feCtky4HLg8XyKmQIgsEIAABCLQncOFJBX+YpJ/Rux9k7z6qcWEfCi4nbhDYBwMBAhCAAAQKIrCDpP0kvVrSjzH4GPyGZcAjQ0dN1oHcAl8FBdUAiAoBCIyGwH9Iuvpkdb491HloN6pHSDywnJYBOzRy+fIuEJc3AgQgAAEI9EDAnvS89/7tkv6IwafB00MZ+KmkV0x2GZyzh3eAJCEAAQiMhsDFJ77wvb1rKG5yp71LPsseaThlsu3QZzWw5XA0VRIZhQAEUhK4sqSnTvzjYyTLNpJj0d8/Jdl3xENxY5yyaiBuCEBgiATs4tWny32/h2HdsRgp8tldY8oeI12e7VyKAAEIQAACcwR8IpwryWMx+sznD7QMeFfBFyQ9WJK3phIgAAEIjJaAF/J5zvSLA63w6WV318sujbUbAy73Lv8+UIoAAQhAYPAEtpZ0F0kfZbteWE//B5OtafeXdK+JE5ubSfJRut6udtXJ8LOHoKd/9np3/pk/90inv/nz0pNn/fzek5Xudo5zgKQHTtLzwrfSDG+O8vqkwzdK2kuSt7QSIAABCAyKwB4TD2scqhNvNL/SQ0nZPOgkxLNoRGzUiPrlZNHrJXrQKUlCAAIQCCPgQ3YeJOnbI6/k/yLpm5LeM/Eq9wBJ9iy366SX3rZXavfGXQdvdWsrt5/3yINHG24iySMYz5b0TklfH/mhTJ4i+ISkO0k6R9fKJT0IQAACTQlcT9JbJI1tiNinzbnS9uEy/y3pRhX2hHu4va0hNeeuw24BctuXw2ZrBPdUxQ0mjYMXSfJpjT+XNKaRg99LeoGky61hxc8QgAAEeiGw7WRB09EBhqGtQUz9/MmSvjaZ0rCh31PSuRtS9wKwCHnP2zD9po95vrqt3L9umvhk4dy1Jg2tV0n6qiTrpa1MOT/vRo8bmLeR5CkYAgQgAIFeCVxW0qGSThxo5evetbduPX+yeNHbFaMr3wjD1XXv8K4B+va0SGSwXjyt4kWm1pf1NtRRKI+CPJojjCOLD3FBAAJVCHjY9uaT4dghDcU6L15R/yZJnqe/mqQtqgBpeY99yrfteV6/pQx1H7eXu7YyH1430Qb3bznZzeCdC2+W9MOBTR/4gKI3SLpSAzY8AgEIQKAyAS9G2l/SdwIq/7bGI8XzNv59BA9ft82PF4t1GZ4VILMbWl0Hb0Md6qiA/QrsW2FdRdfMSQ8CECiYgOeXD5b0q4BKv62hS/18H9uvPhTA9SEdl6/XBcj83I5ldnIeuUpdhvqO/0eT99WNHQIEIACBRgQuJuklI1hcNVth36cRqXYPvTbAKD2jnQi1n/aJjLPcmnx/VO1U2z/g1fRNZC3xmRMkmXHTBartaRMDBCBQHAFvTfNWNs8vlljxtZH57T1oy8a7jcx+1j3yLoP36beV+Z5dCjxJ65gAudvmu+vn7XzL7zPnD/RQ4EgSAqUQ8NG775Dk40y7rqTapGdHOC+UdFSA3N5z3bU7Vk+vtMm/n7Vr5S6DmbeV2c6Qugw7Bi0A/ICkt0qyg6e2DLp8/m+T3RHmQIAABCDwLwJXkfTBoMqxqwrNPbmnTvzcT9XobVER6dt3fpdhvwC5v9GlwEEL6XzOQJfBC1gjyseNJ0J7UexNJb1S0m+C4o6Qb10cp06m9i7SJXzSggAE8iJwBUnvLsjwHynpkRPXsYtI7h5UCTuNLoMNyrpKe93vXqDZVfCc8jp5qvx+0a4EnqRj75RV5Fp1j302bLVAbo8aXXvi6tkeIVfFkctv3g3hkbMLLsgPlyAAgYESuOTEi10JQ/0earZ/+CqOblwJ/yGg8rW72S7DFQNkPqPDqQv77o8wYosMaSru9l0R0Uv/eEUBPbrheXcvxItglTION2osq893IEAAAgMl4FX9PnY0d8PvHpS3iDUZin9XQIXrntE5OywD7oFFVPA7dCSzXfC2ldfz510Gr29pK7Off3hNoe1IylsP/d7lfhKmjyV+CrsGamqY2yGQOYHtJot/cl7Vb6PrIdq2Z6IfGFTR792hTu3CNqJR5p55F8FD3W2NqT3ydRkeESCz8+yGRNPgffl3k/TJoKOU2+pg2fO/m5ziySmETTXNcxDIgMA2E3/hOa9W9ln2NtpRh9l4emNZxVbnuqcdugwRQ8XOexfBa0fqsFx0b9Wh9Kj8+BCdRXLUufbbQC97F5f0REnHBchVJw917v3J5FyFdSc2RumIeCAAgQACngu/b8ae+zxP/zxJPlgnRXDFVaeiW3SvtxR2GT7bUubTlixOS5EHj1h4S9kiblWvPT2FYEvidM87YvTrbUvib3PZxvWGk9GvCBmr8q9zn3eYTHc+tMkrz0IAAokJ+Oz0b7WsnOtUDnXu/bKku3dgqHw8bB25Ft17pqSu5tRdJJ7WUmb7ge8yeE57Ebeq17zwsavgrXpV5Vp1370SC+zy5h0oEQ3YVflo+tv7JF0qMQOihwAEGhCwD3tv6Wv6cqd67u+THQf2NdBVuH0Qhzt3JfCkYm2zDqBrr3q7STq9IWf7nOgyeLQponzv3JHQHsHzwkFzalMmIvI8H4d9CHh6DPfCHRUGkoHAKgLnkuTh1ByHD78WOLe/isH8b170GFFxHjofceL/vRVrvsKt8v+3JfWxYOsJDeT1ArOu9/8f3UDOee7HJtb9sujdsM9x94DXrHia0Y0VAgQg0AMB91BzPqHP89I79cDFSbrxMV+J1/2/64Vq20qqezTwnyV1OZw+q07PX7+0Bme7We7a+9/5ghxd+VCsPsKta/CtW74j7vf6gD36AEOaEBgrATvF8VaiiBc4dRzP70lJEQfsfLoH2T16UXXF+i8a+kqIzpZd7P5xRXk8azKc3Udj8Dor5KpT9veNhlYxvi8FyV8nr3Xv9XoZu0N22SVAAAKJCHhbn4f7PQ9X9yXt6347Fzl/Ih6ror1RAKP3rEog4W/TXRzLFoOdOHHhGrV1MiIrLpteJOeV8j6nwX+HTxY3ttk731Y2z6W3Lfte69DHnPf1AmRvm/c6z3uE596BWyXb6p7nITAYAu6BRJzAVueFjrr3sT1owW5m3fhokwc7j+k7XEmSF/h5dfhDJdlBkY0toRqBiBGAL1RLKvyuj7Qsv23KfptnvSPF5ZYAAQi0JGD/3BHubdu80G2ftQMV78XuOrTZquZFhLt0LTDphRPwIlmfk9CmDHuxY9fBuyw8ddJG7j6f9aiJRyu7dKndtY5IDwLJCHiBlYdU/1RwJTBbAR2UjNTyiHdtsVXN570ThkHAhzvNlsW636scRBVNKuLkwrr5THH/DyR5KoMAAQhUJGCXrlUXgqV4aadx2mOfV5lP/2/z6flse5DrOjymgfy/lLR914KSXjICPl+iadl9fzKplkdsN8FNfSzM5/PnknzOxvz1Lv/3IsFXSDrP8izzCwQg4MVfD5Pk4zm7fEHn0/IiM/sp98KnJnu95+Ob/t+lY51pafJIyotq8PS2So8cEIZF4HU1ysC0vHr0zfvwuw5N/UFM5Z799JoR776wd8yoRsVs/HW+u2G9T9cwSQ8CJRCwi83PN6ik6ryA6+51w+M5c71fb+1p6/d9mm7X/vVn9X7XNWeze771fzkTfRbZoL57DcrHarxfdr5z/R4I2B1wVAfgyDn5Xcd4ass98uk72cfn63tyEDaHg38h0D8B91AfIMkuc/t4GZ2mHfa8TNKOS3C8MFA2+2XvK3hngBsCb5LklcpukHh+2GegX6YvoUi3MwL2luiFaet6wl+X5BMP+whPDnzX7rgkA3Yc9YGeFxkeP9nRskRELkNg+AQu1rNDH/d631lhtbtdt7qRENFA+dTw1UoOMyfgYX03+txDdk/fbrR/OvFhcKse3dvaE+Qqh0p13r8fVVhzc21JPo67TryR97r+ebkk55sAgVER8Ar/Pn18+8XfswbxNwRWFLvXSJdbITAWAvbzEGVgD6wIzSOQXpvTp48RLxB2Y4QAgcETsFe8Pvf1u6fjF94vfp1w+cC5Q8+1EyAAgQ0EvADYK/YjGgC/abD/3vv1HyXJC4AjZKgbh301ePpjiw1I+AaBYRHwoiLPfdV9OSLu92iDvcl5Hrxp8LxhhCzelsSWoKZa4LkhEohwXT19Nw9pAegCk2H5iNM0p/LU+fTZB33svGiBjEchsJqAW7VefNTHS+V5NjsVWbbAb7XkG//qKYM6L/Oqe2+2cdT8B4FRE3ha0LvlHnzEGRFXkWQXyKve4VS/OQ9erEuAQPEE7E627hGvUS+Wz4mP9sL1uaBKoQ/PgMUXJjIwWALenhfx3j87kJCnCe+xZvtshMzL4nDHpY9DmAIREtWYCdwm0JPespdk0fW/SDo40XzaLYMqqvuPuWCQdwjMEYhw/etTQiNG+uZE+9cqfc/PR+0EWlRnLbvm3Qx9niY5z4L/IbCWgPcb25uXh9+XFexU173H/YJrJWx+g3sFRwfky40jAgQgcDaB5wW8U4clhmnfCH1MC3jN0AGJ80b0EAgh4L39Xw54mes2ELy6vysnO3drmT83jOzxjAABCJxNwMd9133nZ+/3+qIunFm5A7B/T4eUeZTEpzsSIJAlgT6G/L195rkdnxHvRY1ucMxWQHW++5xzAgQgsIGAt+H9usU7ZYdeXYaLSHpvC3nr1Bez9x7bo5fGLvmSVkEEfMrdM3sY8v+GpKv2xOkuDV9+N1j26ElmkoVAzgTsEnzW2FX9bk+GXfT+F7G7rSQfoFVV1oj77Dbd9Q8BAr0T8GE5h3f8Avglcg98y55z/+YG+fbxvAQIQGBTAh5e9/HDdY3k/TaNqtMr3re/7nyFunmqcr/XTfRxxHincEksXwJXkmQ3llUKa4p7fHRwn8ENkKqrlz3v76OFCRCAwHICdtT17op1ikfTHrQ8qs5+eUdFeVPUgT5bhPVEnamahKYE7E63zxP8/DJ56M8ne/Ud7LRj1ZqAb0q6Qd9Ckj4ECiHgkYC7r3ENbH8c18ggP5YzhWGvE6ddKF8tAxaIMAICHnLyors+tvgteins7KeNe98oldmXuV0dP1bSKyQdKsmHm+TQQInKI/FAoEsCbghcd+LC29uKXzTp8ftcjhzCxXs8O2C+LvRWQe9OIkAgGQFvQYnyhz9fgNv87wYJAQIQgEBXBNzg/0wGvf/5etMNJctGgEAogZ0lHZVhgfcLcKYkHyZCgAAEINAFAR84NG98c/nf2xO37QICaYyDgA/B+W3GBd4v3i8l+ahhAgQgAIGUBDyt5/VHuRj8RXLYW6mdshEg0IqA95t6fmlRIcvtmlfkEyAAAQikIuD1RscUUh/+JpOFkql0QbwJCXgBTtQRnV02FLw7gQABCEAgBQEvROyyPmubljtv/5UCBHEOl4Bd3b66sII+fVF8EiBDX8Mtm+QMAn0R2Duj3U/T+q7Kp3dsPbIvaKRbFoHzSPpER8b/z5IOkvS34PQ+KckjGAQIQAACEQTs8dTrjKoY3Kr3/FCSPYPaoVHVZ9rcZ8+B7BCIKA0DjcMHXHhffZtCVvVZO8fZZcLRR11Wfa7qffYrToAABCAQQcCHDVWte6rcZ6M/dWRkJ2EnBMe/TAZ7LczBb0qETogjkIDPuj6+o0L4Oklbz8ke7V/AUwEezSBAAAIQaEMghbe/J84J5M7XFzqqf+1FkR1TcwoY87/X6uh8a2+dcW9/UbhAgq2G91mUENcgAAEIVCTg/fTRW6C/LMnrrOaDzxbpapGhdzLsOC8A/4+PwE078un/swr+qvcJXmTzhvGpkxxDAAKBBDxHv2w4vcl1r3e61Br5ujpn5bgKsqwRlZ9LJnBHSacFF/BFL4WHnNzDrxJeGSiPW7kECEAAAk0JfCuwPnLdeN+Kglx5zWFIi+rZJtfsK8CnuhJGRsBnaP8zuHAvKoCHSfLQVtXgIbcfBMn1o6qJch8EIACBOQI++yRyhf775+Jf9687TZ8PqgsX1c3Ta96Nde11wvD7cAjYj3Xq0/z84jywIbI9JJ0eUPC9qIYAAQhAoAkB71KaGsm2n17lv0MDIc4hyZ2otumve95Hu9+8gXw8UhiBp3RQmP4o6cYtuTwhQM4XtJSBxyEAgfESuHBAHWTD687WLVpifFDwaMSiBsGpkm7dUk4ez5jAs4IK9KLCM732/aCFJV4l69Wy03ibfF4zY10gGgQgkDcB975tFJvUPbPPvDwom3tJ8vbm2bijv3vk9Q5B8hJNJgTsFc+94ejCMh+fF/vZY1ZU8GrZpl4CPx4lBPFAAAKjJXBEy3rTHaJtAunZX8vPW8o0X2/P/+/p2/0CZSaqHgnY+L8kcYFxAXpbIg9Td20g++85D6DHEkfSEBgOAR+kM28gq/7v3vTVE6Dw1MSRLeSqIr8XiO+fQHai7JCAjX/ktrplBefpiX3vP6TG/Je9Ge7aIWOSggAEhkvAdehnGhpb+xBIFbxb6oMN5VpWj89fP3OF47ZU+SLeIAJdGH+3cLvytueW9KpzCjxsZcc/dqlJgAAEIBBFwB7zjq1pbO1z33VwyrB5B6O7XsB4YMpMEHc8ARe81MP+3jZys3jRV8bofHlh33MlfVSST/17n6THSbrMyif5EQIQgEBzAttX9NXvjojrp0WufpunvvrJRyTe1k0jYDX/7H5NveDvT5J8fgABAhCAwFgIuAPiFfI+yXR+uNwdondXcHeeitW9akyTzste5X8aAak0Fxxv6q1+PhP7P4NlJjoIQAACJRHYSdLekm4/8aJ3zgyE31fSKQsaJ1UMfJV7aARkoORVIjw1ofJdQDg8YhV9foMABCDQLwFPkdoRWxWD3uQeNwIe0G8WSX0RAbv3baLQqs9420nVA30Wycc1CEAAAhBIT8CH+/iQn6p1e937GAlIr8NaKfhgHyulriLr3P+yDla11so0N0MAAhCAwCYE7HjITtnq1O9176URsAn2fi7ctqNT/VxAXkUjoB8lkyoEIACBCgRs/D+V2PhPGwtMB1RQSMpb7Bs6wlf1VKFVPmkEpNQocUMAAhBoRqBL4z+1FTQCmumq9VNe7NHUT/5UeU0/aQS0Vh8RQAACEAgj0Ifxn9oPGgFhaqwWkQ+E8F78qQL6+DyU6YBqyuIuCEAAAgkJ2Ph/umd7wJqAhAqejdqublOfBlW1QcFIwKxm+A4BCECgWwJ99vzn7QQjAYl1f25J3+q5pTevdBoBiZVO9BCAAAQWEMjJ+E/tAo2ABYqKuLSlpLZnU0+VFP1JIyBCw8QBAQhAoBqBHI3/1K7QCKimw8p32Qe1T7qbAs7xk0ZAZXVyIwQgAIHGBHI2/lPbRCOgsXo3ffBpmRv/qdJZGLip7rgCAQhAIIqAjX/fC/6m9f26TzcCOEq4peb3L8T4TwsDIwEtFc7jEIAABBYQKKHnP7UD009GAhYosuqla/fg6GequDafNAKqapj7IAABCKwnUKLxn9oQGgHr9bvJHZeQ9LtEvX8f7GPf/lMFpfhkOmATlXIBAhCAQG0CqY3/PyXdV9JHEtoEpgNqqP1cko5OpIwfS7rQRJZnJ0pj2qBgJKCG0rkVAhCAwByBLoy/p5kdziHpgwltAiMBE9CrPv5D0ocTKeFXki4+k7h3F7inPjXYKT4ZCZgBzlcIQAACFQl0YfzvMSfLVh2MBNxtLk3+nSHw3EQG2a6D7UJ4PtAImCfC/xCAAAT6JdCH8Z/mOHUj4HRJN5smxucGAneW5GGS6J743yVda0Mym3yjEbAJEi5AAAIQ6IVAn8Z/muHUjYC/SrrsNDE+pStJsqGONv5ubd28AmAaARUgcQsEIACBhARyMP7T7KVuBHxTktMYfdhO0nEJjL8bE17dWTXQCKhKivsgAAEIxBLIyfhPc5a6EfCcaUJj/fSiv48lMv5PbwiV3QENwfEYBCAAgQYEtpb0yUR2wB1Bb/WbrvavK17K3QEeod61rkBDuv+ZiZT+dknu0TcJXY0ENJGNZyAAAQgMiYCN/6cS2YGp8Z9f7V+XX8qRgMPrCjOU+2+TaNHf5wLmVrpoBDx2KIokHxCAAAQaEHA9+4HMjf80WykbAdecJjKWT3v6+3MCxf9AktcURITUjYAzJF01QlDigAAEIFAggfslsAHTheQe9m/b859HmqoR8N75hIb8v+dUvpZA8d7rf6lgcKkbAW8LlpfoIAABCJRAwOu/fpTADkQN+y9jmKIRcKaknZclOLTrL06gdPemb5wIVMpGwGmStk8kN9FCAAIQyJXAXgnsQGrjP2WZohHw8GnkQ/68XaJ5/wclhpayEXD9xLITPQQgAIHcCDwyQQOgzWr/unyiGwFfrytAaffvIunEBEr3oTtdhFSNgPt0ITxpDIqAh089cnQZSV5AZGdXd5S0n6QDJT1A0iFr/g6e3HsXSW6Y7y3pOpIuJ2mHFrtoBgWazCQj4Hp7Ol8f8dml8Z9CcSPgy0H58DTA+acRD+1zS0lfDQI1W1i84t9xdxVSNAIO6Ep40imCwLklXU3SbSU9WJL9UrxF0mcleZHrXxK8R7Pv1PS7K6TfSzpW0hckvXUiywMl7SvpKkOusIooKWUL+erActyH8Z/S31HSb4LycutppEP7tFOeacUS9fmzSU+la1bRjQDPhRHGR8A7YfzCP1rS6yR9XtIJCd6TqPdtWTxuJFj210jysK7z5MW4fk8IEFhGwOV+WZmqc71P4z/NmztxdWRedu8zphEO6dNz3FbSskw3uf6PSS+pL05RjYCTJZ2rr0yQbicENpd0ZUne8vSyibFMMRXW5D1K+cxJk7x60e+9JyMGXY7WdaJcEmlMwFNXbctfDsbfALaQ9NOA/Ly7Mc1MH/ScxvEBYOYLSh0f/6nQRDQC3PMjDIvAhSTZydWzJsP2f0tQ/uffh1L+d4P3/yR5RPCWks43LNWTmxoEXH8e0+LdyMX4T7P8ghZ5mb6/35pGNpTPdwVAmcKZfr42IzhtGgF/GNPez4x0Fi2KG7mer3+JpO8lKO/Tcj/ET68z+I6kl06mDs4TrRziy5rADRuODudm/A35FgHv/q+y1lZN4e4VAGS+0jtK0jlrypH69iaNABfgm6YWjPiTEPCQvlfLu4f/jYYV2Hy55v+zh4Ptz+OLkp4k6dqSzJowbAKPqWkncjT+1tB/1szHonfe02aDCBdLsOXProMvmTEd+/Z3BbZIsbPX3PPH+GesyAWibTtZ+X5YoQv1ZstfSd/t3fPNky2O3h1BGCYB73axU7R1ZdNrZzy9lmPw1N86+df97tMBiw/uEac42vGgAsjYt7/d+y4qzJ7/9Jz/aFw+FqCvVSJ6aN+L1z4uyS/mupeX39My8vvzfkn3lHTeVYrjtyIJXF3SR5eMqNnwe44957ozYgTA+Sw+2AlJisrQi6m8krqEYCctN5DkaRDL7K1+7kUS8ibgOWgfIPLhJY24FOWaOOvXF94F5ANU7MAotynBvEt4/tJdcDLaZodWd5s4uiqh7vSi1rbvcvFrALz/9+8BIFaB/KAkFxICBCII2KueG2h2tnNK4rK7qlzzW7MK1L2m10/OAvHoIwECfRB4UUDd8c0+BI9K0xWpHYJ0UZH9VtKtogQnnlESuOjEVe5xHZXZLt6Lsafxi4m3QuuWAIGuCNi/xc8D6hHvmis2PCwAQJ0K7CxJ9iddwvBQsUodmOBupNqN7RGJDqWqU365N11nwWs2PEVwM0nWOQECKQl4uiLifbZ/jCKDD/pJPfS/DPAPJV2jSGoI3RWB7SZuaiO8dS0rh1yPqQSjOX57ske7q7JGOuMicJHAnUHunBQXUq36r1MRePvdEycuGYsDiMDJCPhkO/uoZ24/T+Nc5x1ve+9zOZ8g2Xs21oi9APUrQb1/O8Uq0jOmt0q1fTmjnvfRjF6ISBg3AfsZ9xCwX6qoskU85bN8/rhfC3IfSMBHAXvbYlS94NNyiwsXlmRnHVEQIuLxdkGfjU4YH4GbT/zvR5Qj4sjrvY7QhxuEPpyMAIE2BKKNv8u219AVF1L4+o940b1A8D7F0UTgpgRuEjgUF1H++ozDRs5eM/3n3TLe5eA/H9s7ve599H3K2GfaX2payHgOApJSGH+7N96pNLpesNDni7wuba8Etmc+wnAJuDf3uczL4bpyuup3G+rvT7wResfLUyUdLOnuk4VtXvzqKS97LWyy2t1HUXsR0+UnDlfckLqrpIdOttO9aZL20ZL+MhDO7hzk7FJ8uG9r+TlLYfz9/hd3DPA2kn5WQIXgo0cJwyNgt6GfKKD8rTLu09+8gPW7kt4hyedJ3EXStSTtmKHavJti98kU2yGSXi3jjMC1AAAgAElEQVTJPerSGgd2J0yAQB0CqYy/64E96giSw73erzitwHL/vGIOwJAhhIAdvNhjX6mL+/46OSfDK9LtctgjVOcIIdN/JPbT7kOuPJfpA3yOzVhPj+wfFxIURCCl8f9IQRz+Jaq3Vp1aUAOgyMUVpRWKxPL6JLhnFLidz34H3irpgZKuPMLjbX22wo0kPWqyK+N3mdQbj05cXol+OARSGn8fGnfZ0lBFn/SX2jnLK0oDjLz/JuB57QMmi9lyH2myfCdIeuNkGN9z64SNCdhniE9N+29Jb5f0654aBLfdWCz+g8BCAimNv+uLZy5MNeOLdw5+Yb8hyX6U/0dSqpXJb8iYJ6ItJ3AVSfbrkLPh90JTrzNxj9LD+RxGs1yfy35xg+Dhk6mRLkYWveaiuBXXy+BxPRmB1Mb/yNKm/7xi2McVRlXIfhFnV+l7rt5uO6Pin8bznGRFhIhTEPCw8aGSXD6mOszp014F3zfp5VtWQhwBn+txm8l2xVQ6L/rAlTjUxLSCQGrjf1KJDuuiF/55IdR8MHhfj1zkdfv5RPg/WwJ36nFYeJXB8ejU+yXtJ8nrEQhpCHjKx1sPV+mizW8nS2JRcBrdDSXW1Mbf8/57lwbrEsFD9HZM4q2Ey8INJR0fUBF4e9KqdJalz/VuCVxoskisTeUe/az3i396suceo5++PKQ2/i4fbP9Lr8eSU0ht/N2xdSeiuGBHBVEVrCtWOxxZF8472fLVJt3Hr0uE33snYLfNfwgsX23Ki5/1Qr5nS7p072TGI4CNvxdPttXdquepC8ZTnprktAvj7wXNxYUbBL+YHuKrEzws3OS8AZ/SZKUS8iRgRzcfCi5bqwzAqt/sitP7cb06fIs8cQ1Wqi56/o8ZLD0yFkEA47+E4uaSvhVYSXtI/oJL0lp12at262w/9O6CJumskoHf4gh4odcfA8vVKuO+6jcfHHWYJPu2IHRPgJ5/98xJcWMCGP+NeWz0332DK+kHbxR7vX+8xer+awyHtxE9j3n/emA7vNvnZ79YkqeBVhnm1L95mP/JkuzaltAPAYx/P9xJdQMBjP8GFpt88+K5yG1/3uLnEYW2YWtJd5P0WkmfmRwGY6ciD6LX3xZt0uftCe97PRt+l0G74LXvCUJ/BBj27489KZ9NAOO/piT4YJKonph7fF5LQBgnAbvCTeXoqUoZPUbS7XDUk0Xhw/hnoYZRC+HzN1KuP7K9O6hkwj5e1GeHV6lcq9zjw0EI4yPg0ZrXB5ajKmVt9h4fpbt/0MjT+LQXn2OG/eOZEmM9Ahj/CrxeEFhp+wQ0/KJXgD6wW3zIhXveswa5q+8+qvpAVvRnVaIw/lmpY5TCYPwrqP1iwcO1HL1ZAfrAbvEq/z7OiPeolc+pH8oRu0MpFhj/oWiy3Hww519Rd5EOOXzSn8ETxkHAFb1PuOp6lb/PDXippO3HgbmoXLpMpHTv61El9vkXVSQ6FxbjXxH5ZYIPYbETH8I4CPggFx+S09Uw/zSdT0nabRyIi8slPf/iVDY4gRn2r6FSb6ebVqxtP7/Kqusa5Mu+dWdJRwWWnSplz/P8tyob26Clp+c/aPUWkTmMfw01XSH4FL7r1kibW8slcBVJv+jQ+PtADXvv44CefMsMPf98dTMWyTD+NTX9nsBK/B010+b2Mgn4UCfv8qjSY4+45zuSrlUmqtFIjfEfjaqzzSjGv6Zq3IuLWrjl8453qZk+t5dHwPvrT+/I+Dsdn9DHgtK8ywnGP2/9jEE6Fvw10PIHAivylzVIn0fKIuBV11ENxnUjA9+U9J9l4RmltMz5j1LtWWUa499AHfbRHlWZnyLJJ/cRhknABzL5sKV1Rjvid5dJHxxErz//skTPP38dDV1Chv0batjz9REVtuPwMC1hmAR8kJNdOkeVlVXx/FrS3sPEOLhc0fMfnEqLyxDGv6HKLiXpn0GV+ok4Ymmohfwfs/F/S1A5WWX4/dv7KUf5F4iJhPT8i1HVYAXF+LdQ7esCK/UntpCDR/Ml4KNzI3eILGsAnFr6CVr5qjCJZPT8k2Al0hoEMP41YM3felFJXrG/rEKuc/0Pks4znwD/F0/AL5h75HXKQpN7PeS/Z/G0xpMBev7j0XWuOcX4t9TMSwIrdh/88gRJ27WUicfzIeAX7KOBZWRZw+Dzki6cT7aRZA0Bev5rAPFzcgKs9m+J2Ib67wkq979NVm57dIFQLgHP+b8zQfmYbwTYo58bGoQyCNDzL0NPQ5aSnn+Adt1bn6+MI/+34xavGGf/doCyOo6iC+P/D0l2JEQohwA9/3J0NVRJMf4BmvXwyQmJGwDTxoT3cn9Y0rUD5CaK9AS8z/81icvGnyRdP31WSCGQAD3/QJhE1YgAxr8Rtk0fum/iCn5q/Oc/vyhpX04I3FQhmVyx8X914rJxnKTLZZJfxKhGgJ5/NU7clY4Axj+IrSv5oxNX8vOGf/7/YybDv1sE5YloYgg8K3G5+LqkC8WISiwdEaDn3xFokllKAOO/FE39H26euJKfN/ar/ndv0PPAbpQQ+iXw34nLxeEc39uvghukjvFvAI1HQgmw2j8Up3RE4op+lcFf9tv7WAkerOV60d1e0pkJy4WnFbywkFAOAYb9y9HVUCXF+Adr9jKJK/plBr7KdTubYUogWOEVovNiPK/Ir6KjJve8khGeClrI6xZ6/nnpY4zSMOyfQOs+Wa1JJd7VMw9NkGeiXE5gV0l24JRKvz41kFAWAXr+ZelriNJi/BNodRtJf05Y2UcYEbsTPm+CvBPlpgTsCOpHCcsDp0Juyjz3K/T8c9fQ8OXD+CfScepFXhENAMdxYKL8E+0GAj7c59MY/w1A+CaMP4WgbwIY/4Qa6HvrX9UGwlsTMiDqswnY/W5VfdS979FALo4Aw/7FqWxwArPgL6FKr5ewwq9rINbd/4WEHIhaOjhhWeA46PJKGMa/PJ0NTWKMf2KNviVhpb/OoNf9nQZAusJwQ0lnJCoLz08nNjEnIsCwfyKwRFuZAMa/MqpmN55f0ilBlf6Rkk4LimtZw4ApgGZ6XveUj9v9TSLdHboucX7PjgDGPzuVjE4gjH8HKn9wUKV/siQ3JmxInizpxKB45xsC+3XAZGxJeNHf5xPpywcH4cmxrBLFsH9Z+hqitCz460ir3w6q+O3NbTZ4G9njJf0+KH43BNzION9sInwPIfDCQB3NNth8yiPOm0JU1Fkk9Pw7Q01CSwjQ818CJvryHoEV/1WXCLe1pAdK+mlAWh5ZIMQSsJtfH8k8a7gjvvtkR+ueUA6BLnr+jy0HB5L2QMDG/2MJ6qNpnWaX5gf0kK8sk4za7vWVCrlzT9DD999qqNz/k+ShakIcgYslcv70PUkeASKUQwDjX46uhiopxr9Dzbp3dlJDYzxtTU0/fWJf1eD54JtJ+kyNtH1S3HmqJsB9lQi4wq+jg6mu133+UdKlKknATbkQYNg/F02MVw6Mf8e6v0sNA7yq0rd73nM2lP0akt69YuvZ8ZLuz0lxDemufuwJQfqfLRveAXKD1cnya2YEMP6ZKWSE4mD8e1D6R4MMQMT+7gtKcoPkfyQ9deLu92oY/mSlwms/Tg/S/7QB4HUE90gmMRGnIIDxT0GVOOsQwPjXoRV0rw1ulMOX3YJkIppuCJxL0nHBxt+NgGd0Iz6pBBGw8X9TgnIwbRD6kwV/QcoaaDRs9etJsT5Wd/ZFbfr9qz3JT7LNCbw8SPezZeYTjNY0V0gPT9Lz7wE6SW5EAOO/EY5u/zkqyAh4fp5QDgG7+o3e8vdzSTuUg2D0kmL8R18EegeA8e9RBZcPMv52H4xTnh4VWTPpbST9OEj3097/PyRdvaYc3N4fAYx/f+xJ+WwCzPn3XBKeEmQE3tZzPki+HoGXBOl9avz9ee96InB3jwSY8+8RPkn/iwA9/wwKwrFBhmDvDPKCCNUIXEeSPWDNGu+23zmUqRr7HO7C+OeghXHLgPHPQP9esd+24vfzv5TkSoWQPwF7YIw672Fadn6CY6b8FT+RkGH/YlQ1WEEZ9s9EtU8LagA8L5P8IMZ6Ag8P0vnU+Nt/wDXXJ8sdGRDA+GeghJGLQM8/owLw/SBjYCc9hPwJ7Czpb0E6nzYA3KAg5E+AYf/8dTR0CTH+GWn4KkGGwCvJCWUQeE+QzqfG3yf8MfWTv+7p+eevo6FLiPHPTMN2sTutyNt8ciRvZopdIs5Ng/Q9LSseSdhlSVpczocAPf98dDFWSZjzz1DzxwQZBPsRIORNYHNJUfqeNgBw+pS3zi0dPf/8dTR0Cen5Z6jhSwQZf3sQJORP4MAgfU+Nv139+hhnQr4E6Pnnq5uxSIbxz1TTBwcZhEdnmj/E2kDAh/2cEKRvNwBOZuh/A9xMv9Hzz1QxIxKLYf+Mlf3ZIINwuYzziGhnE/CpfNOee8TnIwGbNQGMf9bqGYVw9PwzVvN2QUf/fi/jPCLa2QR2kuQzGiIMv+P4liQ7EiLkSYBh/zz1MiapMP6Za/vuQQaB894zV7SkVwbp2sb/n5L2yD/Lo5UQ4z9a1WeTcYb9s1HFckHeHmQUOPVtOeMcfrm4pNOCdO0GwGE5ZAoZFhLoYtj/CQtT5iIEziZAz7+AkuDtYH8MMAr2/c8q8LwV/oYAPU+nDv4i6QJ5Z3e00mH8R6v6bDKO8c9GFasFuVaQUXjx6mT4tWcClwla5zFtAHjXCCE/Ahj//HQyNokw/gVp3F77ppV6m0+fJve4ySEwHlUg5EUgaprHZcTHRW+ZV/aQZuLk501B7/OyuuCxkIbACgLM+a+Ak+NPX0tQYdgl7CclHSKJdQH9a/3SkwV7yyr1utf36T9LSDBHgAV/c0D4t3MC9Pw7R94uwR0knZmgATBvUOx05l2S7H3uIu1E5ukGBF4VqOPPNUifR9ISYNg/LV9iX08A47+eUXZ37BdoGOaN/rL/3eCwu+DnSLqJpK2zozIsgS4UuO//LEl7DgtP8bnB+BevwuIzwLB/oSp8dQ8NgPmGwd8lvUXSlQplmLvYzw7UsUdxCPkQwPjno4uxSoLxL1jzPw40DvOGve7/Z0h6GlsJQ0vTeSSdGKRjO/3BzXOoelpFxpx/K3w8HEAA4x8Asa8oLhZkGOoa+nX3v6YvIANM92GBOvYoDSEPAvT889DDmKXA+Beu/XsGGod1Rr3u714sSGhHwE6ZfhikY/f+d20nDk8HEcD4B4EkmsYEMP6N0eXzYOr9wnWN/uz9f5Dk4WtCcwK3DDL+1svbmovBk4EEMP6BMImqEQGMfyNs+T30i0ADMWu8o77fJz9kRUn0sSD9etfG5YvK+TCFZc5/mHotKVcY/5K0tULWSwYZhyhjvyied6+Qn59WE7Djnyj/Du9bnRS/dkCAnn8HkEliJQGM/0o8Zf0YdfzvIsMddc2uhQnNCDw/sIF3nWYi8FQQAXr+QSCJpjEBjH9jdHk+GOkZLsrgz8fzvTzRZS/VFpLseXGeZ5P/7Saa0B8Bev79sSflswng4W+AJeGYIAPRxKhUfeYLA+TeRZZuE6jb23UhMGksJIDxX4iFix0SoOffIeyukjpf4PxwVWPe5L7ndQVkYOl8IKgB8FNJnOrYT+Fg2L8f7qS6gQDGfwOLQX2L3B7WxLBXfWb3QVHvJjMXlHR6UAPAJzkSuidAz7975qS4MQGG/TfmMaj/nh5gIHwozA8C4lnWGPAWNkJ9AlGe/06VdIH6yfNESwJd9Pwf11JGHh82AXr+w9avjggw3PYw53BRSd6v/3ZJvwuI1w0COwGym2JCfQJHBungzfWT5omWBOj5twTI460JYPxbI8w7AruH/VOAkbAXwfnguK8i6RGSDpd0coN0fi/pavMR838lArtI8sjMslGVOtevXSlFbooiQM8/iiTxNCWA8W9KrqDnbCTqGIJl9z6gQp5doG4s6ZmSvi7J/uSXxWfDZcc/O1aIl1sWE3jMCr7LuC+6Ph3dWZwKV6MJ0POPJkp8dQlg/OsSK/T+OwUZias3yP92ku4gyav73yvp85LsZc6GC1ezDYDOPWLHSYsMet1rLP6bA5vwX4x/QrhEXYkAxr8SpmHcFOEh7hRJWw4Dx2Bycbkg4+9Rmp0HQyXvjGD889bPGKRjtf8YtDyTx/8LMBTuuRPyIhA1/M/ui270ypx/N5xJZTkBjP9yNoP8xYv0TgpoAOCgJ7/i8aUAvXqq4C75ZW1wEmH8B6fS4jLEsH9xKmsvcNQCQIxEe11ExuD9+qsWWFZdA+BdG+eKFIy4NiHAsP8mSLjQMQF6/h0DzyW5/wrqJe6aS4aQ418E7hmk13fBMykBjH9SvERegQDGvwKkod7ypABD4V4i/uHzKiHePlm1l7/qvjvmla1BSYPxH5Q6i8wMxr9ItcUJ7a13qwxAld++GicOMQUQ8G6MEwP0+ndJ2wbIQxSbEmDOf1MmXOmWAMa/W95ZpvaTAEPxqixzNl6hrhOgUzf87I+BEE+Ann88U2KsRwDjX4/XIO/24q4zA4xFFQ+AgwSYaaaeEKBTNwDunWn+ShYL41+y9oYh+zkleWtvldHdJvfYphwwDFTDzsUeQYVgz2FjKi53nwnQq1/iCxeX87wFxvjnrZ8xSEfPfwxarpjHewQYCvvrP0/F9LgtPQG37v8RoNevpBd1VClg/Eel7iwzS88/S7X0J9QzAgzFL/sTn5QXENgrQKce9nv8gri51IyAjb9PymwynFr1mcc1E42nRkKAnv9IFF0nmxE7AD5RJ0HuTU7gqUGG5prJJR1HAhj/ceg551xi/HPWTo+yfS/AWLykR/lJelMCnwzQqbcQbrFp1FypSYBh/5rAuD2cAMY/HOkwInQFf2qAsThoGDgGkQsbnIj9/x8cBI1+M4Hx75c/qUsYf0rBUgKXCTD+np+80dIU+KFrAlcI0ulDuhZ8YOlh/Aem0AKzw4K/ApXWpci3CDIWbBXrUmur07pPkE53W50Mv64gYOPPgr8VgPgpOQF6/skRl5+AnfdUXWG87D4PNxPyIfDqAJ3+RZKNGKE+AYx/fWY8EUuAnn8sz8HG9rwAY/HNwdIpM2NHBejUHsII9Qkw7F+fGU/EEqDnH8tz0LFFbAF0HIQ8CHhRZ4QDIPaT19cnxr8+M56IJYDxj+U5+Ni+FdBb9CgCIQ8CUQsAWdRZT58Y/3q8uDueAMY/nungY4zYLsYhQPkUk/0CGnT2/3/ufLKUvSTM+WevosELiPEfvIrjM7hdgLHwwkDvJCDkQeDZATr9QR5ZKUIKev5FqGnQQrLgb9DqTZe5KwcYCzcALpdORGKuSeCjATp9R800x3o7Pf+xaj6ffNPzz0cXxUkS5QPgxpIuK+l8xREYnsA/CWgAPGp4WMJzRM8/HCkR1iRAz78mMG7fmMCBAcZikW+AP0vy+QJflPRhSW+W5KHpgyXtL2lfSdeVtIvOdlO5sVT815TAlpLOCNDpTZoKMJLn6PmPRNEZZ5Oef8bKKUW0JwcYi0UNgDrXzpL0C0kfkXQPSVuVAi9DOT0KU4f9snt3zDBvuYhEzz8XTYxXDnr+49V9aM5fE2QwlhmSJtd/KOkGobkcT2T7BOjTHgAJiwmMwfh7YfAlJG27GEGRV7eRdHFJdle+WZE52CA0xn8DC761JPDxAIPRxMive+Y0SXdpmbcxPv7QAH1+ZYzgKuR5yMbfi4HfIOn3c+XHu0E8dVfiOR/nlWRnVvZz4lHGaZ3zN0l2XLZ3BZ3ndgvGPzeNFC7Pt2dejOkLksunjyjevXC+XYv/0gB92hAQNiYw1Dl/rxl5uST7fVj13p8s6X4bI8n6P4+E/XFNnpzfDxW0cBnjn3WRK1O431R4SVZVDKl/c+u99CG7LkvG+wP0+eguBS4grSEb/yNqlpcXFvA+3rdCg2a23jpWkqc9cg4Y/5y1U6hsNqyn16wAZl+crr7frFC+fYj9jQB93qkPwTNNc8jD/i9rWFYOzbgR4GOw141mLKq3PplxnjD+mVYOpYu1fcMKYNELlPKah7UJ1Qj8NkCn16iW1ODvGrLx362hoZy+56/K0GDeu2We7phhiWarX4ZKGYpIuwYYi2mFkPLzS0MBnjgfriya9H7mdXehxHKWEP2Qjb/5e53HvN7r/p/TSEDTnv9snnOrZ+j5l1BTFCzj9QIqgdkXKNX37xbMuEvRLxmgz1My7Nl1ydBpDd34O4/zq/2bvrs5NAIijL/z/09JHhXNIWD8c9DCwGW4Q4DBaFpx1HnuCwPXQ1T2rhWgz7EfAmTj/6YAjqvK9+OjFN4wnuipvz6nA6KM/1Rffof6Dgz7962BkaSfyg3w9GWK+nz1SPTRNpsRToA+21aIgp8fQ8/f6rGTn6h3cxpPHyMB0cbfeel7wTE9/4IrkNJEf2SCimBaIUR+3rw0sD3JazfKbbmP9RTAsRh/F81zBZSTReWsy0ZA3a1+i+RddO3qPb27Tpaef4/wx5j00xJVBIterKbXPP+/xRiV0yDPPmipKefpc67ExxbGZPynurW77anOIz+7mA5I0fM3A69/2XoKqONPev4dAyc56SWJKoGoCsWn2nmhIqEagYiDnR5TLanB3DVG42/l2b1v1Hs6H0/KkYBUPX/n4X09lWqMf0/gx55s6sVO8xVDnf+9nc37egnVCbw4oFI/oHpyxd9p45/6Heh7wd8yJdm3v9371nkn69ybohGQ0vj7rIA+3I5j/JeVUK4nJ/CBgArAQ4neP/sTST5ko04lsexeuye+afLcDy+BiL3dOTpDSaGpsfb8Z1nuH/S+LnuPI6cDUg37T2V/ziyYjr5j/DsCTTKLCXjF9/QFaPrphYSzwXNoPnbT22n2leQX1ydyuUfwNkmflvQdSfZYN+u0xvNvn5H0oB7n4WbzUeL3dwbos+9V0F1wx/hvoGzf/k3f/SrPRYwEpOz5Ow/uCHW9zgjjv6EM8q0nAl8PePkf0EJ2V8Tnl+SXgdCegE82q1Ipr7pnz/ZiZB0Dxn9T9aRcD+Cy1mYkIHXP/6OSttoUSdIrGP+keIm8KgGvsF9lDKr85mFEQh4EfKBJFZ2tuucKeWQliRQY/+VYc2wEDNH4e6vfhwPe02XvsNcyHLRczfwCgQ0EjgsoiLffEB3feiZgj4nLKoaq1+0kZojBxn+sC/6q6jOnRgDGv/67jPGvWtK5718EvNiuqmFYdt8tYJkNgaMC9HmRbHITJwjGvzrLHBoBGP/69TLGv3oZ584JgRMDDMb1oZkNgW8H6HOHbHITIwjD/vU59tkIwPhj/OuXWJ5oROC0AIPRp+vMRpke8EMRDYDzDIgPxr+5MvtoBGD8Mf7NSyxP1iawbFi/zvUr1k6VB1IRiGgA9OUKNZoJxr890S4bAUM0/qz2b18GiSEhgTqGftm9uyaUj6jrEYhoAHS9JapeDqvdzZx/NU7r7tps4r9j2bsfcd1+Au435xMkIt7ZOLzP36vvuwys9u+SNmk1IjD7kjT9fulGKfNQCgIRDYBtUgjWYZz0/ONhpx4JaFr3VHmuj33+GP/4MkiMCQhUeYHW3TPUbWMJcCePMqIBUPIaAHr+6YpYiY0AjH+68kDMAyCwzrhX+X3nAXAYShaODFjUeb5CYdDzT6+4khoBGP/05YEUCidQxcCvu8enihHyIPD5gAbA9nlkpZYUGP9auFrdXEIjAOPfSsU8PBYC64x7ld+Htm+8ZN0fHtAA2KkwAAz7d6+wnBsBGP/uywMpFkqgioFfd892heZ9iGJHHO982YLAdNHzf2JBPLoUNcdGQB/Gn61+XZY60golsM64V/n9AqESEVkbAm8PGAG4WhsBOnwW498h7CVJ5dQI6MP4s9p/ScHgchkEqhj4dffsWEZWRyHl6wIaACW4dmbYP5/inEMjAOOfT3lAkoIIrDPuVX6/aEH5HbqoLwhoAOR+uBM9//xKcZ+NAIx/fuUBiQohUMXAr7vnkoXkdQxiPi6gAbBfxqAw/vkqp49GAMY/3/KAZAUQWGfcq/x+mQLyORYR/zugAfCQTGFh/DNVzIxYXTYCMP4z4PkKgSYEqhj4dfdcvknCPJOEwJ0CGgBPSSJZu0gx/u34dfl0F40AjH+XGiWtwRI4K8Bg7DZYOuVlbO8Afb4is2xj/DNTyBpxfLDPuk5Dm9/7ONiHrX5rlM7PZRL4R8DLukeZWR+k1FcN0Oe7MiJj4/+mgDytMjiPzyi/pYsyxCN92epXeqlE/qUE/hRQud5waez80DUBu2VeZeyq/PbFroVekh49/yVgMr2M8a//7nkE9qBM9YlYIyDwqwCDsc8IOJWSRRvN01vq9PgMMovxz0AJNUTA+GP8axQXbs2FwI9bGgv3KL3wjJAPgV+01Ok/JW3RY3Yw/j3Cb5A0xh/j36DY8EgOBI5paSzcALh3DhlBhn8T+EqATvs64hnj/281FvEF44/xL6KgIuRiAl8NMBYPXhz10qubS/JctXcP3FiSV65fQ9JWS5/ghzoE3hOg02vXSTDoXht/FvwFwewgmvtKOjOgrC1bl9LXav+PJ8yTeR3QgW5IAgKVCHwyoLA/WtK2knaRtKekW08KuVdXv1iSD6j5rKTvSvqdpGVbD0+T9O5JY6CS8Ny0kMChATq9x8KY013E+KdjmyLmIfb8vdUP45+itBBntgQieovRvQDHZ2ciNgqE+gQeGtAAeFr9ZBs/wbB/Y3S9PIjxrz/sT8+/l6JKousIRJwet2wIr+3110vabF0G+H0TArcKaAC8c5NY01zA+KfhmirW1Mb/Yz1MBdLzT1VaiDd7Ai8KMBZtDf2q5++fPcH8BNw1QKff7iBbGP8OIAcmMUTjj5OfwAJCVOUReHKAsVhlwNv+dqKkc5WHtVeJvZjSW/nasD858RSMjX/qBX9P6FULw0p8iMafnv+wyii5aUDgYS0NRRsjU/VZ+xYn1CPwswC9pjrlkZ5/PV32fTfGv35jmjn/vkst6Vci4D38VQRu/coAABqbSURBVA1xX/f9b6WccNMsgYjdHXeYjTDoOz3/IJAdRYPxr18/Yvw7Kpwk056At+z1Zdirpnt0+2yOLgZvv6zKd9l90TsB6PmXVQy7MP4ehu8yMOzfJW3Syp7AtQIMxTIDEnXd3goJ9QjY2Uhb/h+ql+TKuzH+K/Fk9+MQjT8L/rIrZgjUN4FLBRiKtoZm3fN2IkSoR+CaAXr1mQIRgWH/CIrdxZHa+NvZDj3/7vRJShBYSuDcAYZinQFv+7udAhHqEbBnRs9FtmW/U71kN7mbnv8mSLK+4DVBEeVmWbnD+GetfoQbI4FTAgzFshc+4vqVxqiUgDz/JECvt2shB8a/BbweHh2i8WfYv4eCRJJlEfD57xGGOkUc7y8LZVbSml1bnTy3YY4Y9m8IrqfHhmj8WfDXU2Ei2bIIHBlgKNoamkXP/3ZyamBZNPOR1ocxLeJa59rnG2SHnn8DaD0+ktr4fxT3vj1ql6QhsIaAj92sYxS6uPfXki6/Rm5+Xk3gpgF69fSQh1GrBnr+VUnlcd/tA7xGrqoPMP556BkpILCUwMsDDMWqSqDOb3Zh+2ZJ2y+Vlh+qEjjfiqOX6+jkehUTpOdfEVQmt11Ekl1t1ykLde7F+GeiaMSAwCoCj01YCayqMP4uyQvVvizpbZL+R9JFVwnKb7UJ/DBAt0+qkCrGvwKkzG55VkDZWPZ+H85Wv8y0jTgQWEJg/8CK4B+SjpP0RUkflnSYJB84dLCkO0q6rqQrSHLvlJCewFsCdPt/a8TE+K8BlOHPW0r6Q0DZWNQA6ONIX1b7Z1jIEKkMAnsFVQQY9fz0/eAA3Z4qaZslWWPOfwmYzC9HHBm9yPjT889c8YgHgXkClwswEq4MrjwfMf/3TuCqQbr1gsL5gPGfJ1LO//sGlYvZRkAfTn7o+ZdT5pA0UwL2Gjf7Ijf9/l+Z5m/MYtlI/yVAvz5caDYw7D9Lo7zvno5r+p4veu4I5vzLKwRIDIEpgd8FVAhexEfIj4DXYiyqtOtc++lMtjD+MzAK/XqNgDIxLT/0/AstBIgNgSmBrwRUCC+dRsZnVgQeEaBbV/b2y4Dxz0q1jYXZStJJAeWijzl/hv0bq50HIbCYgLfhTVv0TT8/sjhqrvZMYI8A3bpMHCLpjUFxLStjT+yZ1ZiSf1VLXWL8x1RayOugCTy9ZWXgCv3YQRMqN3NbBPX2TgsoI8sMv68/oVzERUq+s6Q/NtQpxr9IlSM0BBYT8BngqyrnKr/ZB4CHiAn5EfhggH6rlIGm99Dz76fM3LLB8b8s+OtHV6QKgWQEbhRkIC6ZTEIibkPgoCD9NjXwq57D+LfRbPtnfR5A1fUAb+/hYB/m/NvrmBggsJKAhwNXVdJVf9tnZSr82BeBSwTpt2o5qHofxr+vErFxupeV9KEVowFfn3jy3Pip9P9xpG96xqQAAW0m6a8BRuLhsMyWwPcD9FvVsFe5D+OfX1HZSdLdJ+67nyLJbsKv0pOY9Px7Ak+y4yRwZICBeM040RWR6xcF6LeKYa9yD8a/iCLTm5AY/97Qk/BYCUQcHONDgAh5ErA73yrGOfU9rPbPs3zkIhXGPxdNIMeoCDw+wED8aVTEyspslPOXNg0Eev5llZmupcX4d02c9CAwIeDVwG0q9+mzF4JotgT+N0jHU13X+cT4Z1ssshCMBX9ZqAEhxkrgCkHG4SZjBVhAvu8UpOM6ht/3YvwLKBw9iojx7xE+SUPABLaUFOHt7ZHgzJbAuSTZYVNdA97mfox/tsUhC8EY9s9CDQgBAenbAcbhrYDMmkDE6YBVGwQY/6yLQu/CYfx7VwECQGADgTcHNAC+uyE6vmVIIMLtc5UGAKv9M1R+RiJh/DNSBqJAwAQijo79p6StwZktgfNLOjWgobeqEUDPP1v1ZyEYxj8LNSAEBDYm4AV8qyr2qr/tvnG0/JcZgZSHA2H8M1N2ZuJg/DNTCOJAYErAW/iqGvlV9x0wjZDPLAmk2g2A8c9S3dkIxWr/bFSBIBBYTOCEgEbAqxZHzdVMCLgiPjFAz7ONQIx/JsrNVAyMf6aKQSwIzBKIWCXu3QSEvAm8MbABgPHPW9d9S8ewf98aIH0IVCTwpADD4IWA21ZMb9lt55N0DUk3lnSliZ+CZfdyvT6BqLMBMP712Y/pCXr+Y9I2eS2ewD4BDQAPDd+gJgk3GG4h6QWSjpF01pwcf5f0DklXrRkvty8m8B9q7/cB47+YLVfPJoDxpyRAoDACF5wzvLPzvHW+H7Im35tLuqakx0n6bA0vhB5deLokP09oR+A2LXSN8W/HfuhPY/yHrmHyN1gCx7cwDNNGwvsW0NlF0oGS3iXJJwdO723y6TnszRakwaV6BDziUpc/xr8e47HdzZz/2DROfgdF4L0NjMK8EfmNpB0k3VHSYZJ+GhDnfBr3GxT1fjLjqYCXLJhymWft/0+XdFA/YpJqIQQw/oUoCjEhsIzAo4KM9fw8/iKj0ubanyWdZ1kmuF6LwN6Svr5E79bj4ay/qMVzjDcz7D9GrZPnwRG4zhJD0MZYp3oWp0Oxxe+yku4v6amSvCPkXpJ2jk2C2AZIgJ7/AJVKlsZJYKsejo1t2kDwegICBCDQHwGMf3/sSRkCSQh8sZBRAG8ZJEAAAv0QYNi/H+6kCoGkBJ5TSAPg2KQUiBwCEFhGgJ7/MjJch0DhBG5dSAPgC4VzRnwIlEiAnn+JWkNmCFQk4C18qVfxN533n33uuRXzw20QgEAMAYx/DEdigUDWBL5bwCjAHlkTRDgIDIsAw/7D0ie5gcBSAnYQM9vbzu37x5ZKzg8QgEA0AXr+0USJDwIZE7htxg2AP0jaKWN2iAaBIRHA+A9Jm+QFAhUInF/SmRk2An43OSK4Qha4BQIQaEkA498SII9DoFQCR2XUAHBjxI5/LlwqTOSGQGEEMP6FKQxxIRBJ4Hk9NwDOkPSliVvaS0VmjLggAIGVBDD+K/HwIwSGT+AWPTQA7NzHCxDti4DDfoZfxshhfgQw/vnpBIkg0DmBrSWdkrgR8PvJ0P6Bki7eeQ5JEAIQmCXAVr9ZGnyHwMgJHBHcADhZ0iclHSLp6pI2Gzlfsg+BXAhg/HPRBHJAIBMCDw1qALxH0g0kuZIhQAACeRFg2D8vfSANBLIgsGtQA+BNWeQGISAAgXkC9PznifA/BCDwbwLHBTQC/iJpy3/HyBcIQCAHAhj/HLSADBDImMArAhoAdiW8V8Z5RDQIjI0Axn9sGie/EGhAYJ+gBsDLGqTNIxCAQDwB5vzjmRIjBAZJYCtJfw1oBPyKVf+DLB9kqiwC9PzL0hfSQqB3Al7FH3Ei4DV6zwkCQGC8BDD+49U9OYdAYwL7BzUAnt1YAh6EAATaEGDYvw09noXAiAlsJ8m++duOAhzPNMCISxFZ74sAPf++yJMuBAZC4LMBDQA3IPYcCA+yAYESCGD8S9ASMkIgcwJRXgF92A8BAhBIT4Bh//SMSQECoyCws6SzAkYBfADQFqMgRiYh0B8Bev79sSdlCAySwJcCGgCeBrjJIOmQKQjkQQDjn4cekAICgyJwcFAD4PWDokJmIJAPAYx/PrpAEggMisBOks4MaAT4bADPTxIgAIE4Asz5x7EkJghAYAGBzwc0ADwNcJcFcXMJAhBoRoCefzNuPAUBCNQg8OCgBsARNdLkVghAYDkBjP9yNvwCAQgEErhwkFMgTyVcLFAuooLAGAkw7D9GrZNnCPRI4PCgUYDH95gHkoZA6QTo+ZeuQeSHQIEE7hbUAPgproEL1D4i50AA45+DFpABAiMksE3QEcFeDHiDEfIjyxBoQwDj34Yez0IAAq0JvDFoFODNLSXZTNIekp4u6TBJb5X0FEm3lLRVy7h5HAK5EWDOPzeNIA8ERkhgr6AGwD8kbd+A37aSHiLJ0wgeSVj09wtJB0j6jwbx8wgEciOA8c9NI8gDgZESsFH95RLDu8gYr7r2yBoM3Vh4kqQ/1Ej7HZI8bEqAQKkEMP6lag65ITBQAk+tYYRXNQB+UqGXfnFJL5b094ZpvnegOiBbwyeA8R++jskhBIojcIkg18BuHNx8Se6vKMnrBE5vaPhnGx54H1wCmcvZEmDBX7aqQTAIQOATAYbZRvqDcyivJ+nDQUcQTxsBXhPgRYMECJRAgJ5/CVpCRgiMmMCdghoA9gx4SUn7SvpiUJxTwz/7ec0R64qsl0OAnn85ukJSCIyWgCuq3wcZ7JOC4pk1+PPfnzBaTZHxUgjQ8y9FU8gJAQjoBR0Y7nlD3vT/V6EvCGRMAOOfsXIQDQIQ2JTA5YLn6psa9yrPvWxT8bkCgSwIYPyzUANCQAACdQlELQasYsTb3PPQuhnjfgh0QADj3wFkkoAABNIQuE0h0wDeVkiAQE4EMP45aQNZIACB2gTsGXCVW942vfaoZ32MMQECORFgtX9O2kAWCECgMYFHZzwK8E9JuzfOGQ9CIJ4APf94psQIAQj0RGAHST7cJ6rHHhXPWZLu2xMTkoXAIgL0/BdR4RoEIFA0gahjgqOM/6mS7l80UYQfGgF6/kPTKPmBAAT+ReBKmWwJtGfBd0vyFkUCBHIhgPHPRRPIAQEIJCHwyR6nAU6bHB50+SQ5I1IINCfAsH9zdjwJAQgUQsAn+0UN4VeN52+T44J3LoQRYo6LAMZ/XPomtxAYNYGjO2oE+ByCJ0vabtS0yXzOBDD+OWsH2SAAgXAC90ncALDPgYMlbR0uORFCII4Axj+OJTFBAAKFENhK0gkJGgFHSbqzpM0L4YCY4yXAgr/x6p6cQ2D0BA4JbAD8QtJNR08UAKUQwPiXoinkhAAEkhA4t6Q/BzUCvJ//YkmkJFIIxBJg2D+WJ7FBAAKFEnhqUAPAuwFeUygDxB4PAYz/eHRNTiEAgTUEvDr/r0GNAPvz33VNevwMgb4IYPz7Ik+6EIBAtgSeH9QA8CjA27PNJYKNmQDGf8zaJ+8QgMBSAheWdEpQI8AH+1xlaUr8AIHuCWD8u2dOihCAQEEEXhrUAPAowAcLyjeiDpsAxn/Y+iV3EIBAAIGLBI4CuBFw3QCZiAICbQiw1a8NPZ6FAARGReCFgaMAX5O02ajokdmcCNDzz0kbyAIBCGRPYAdJPrTHPfiIv/2yzzECDpEAxn+IWiVPEIBAcgLPCTL+bkD8UtI2ySUmAQhsIIDx38CCbxCAAARqEdg+0C+AGwGPrpU6N0OgOQGMf3N2PAkBCEDgXwSeEjgKcJKkC8IVAokJsOAvMWCihwAExkHAZwT8LrAR8MpxYCOXPRHA+PcEnmQhAIFhEnhwYAPgTEl7DBMTueqZAMP+PSuA5CEAgeERcMX6k8BGwJcSbgu8kKSrS7qaJHs1JIyDAD3/ceiZXEIAAj0QuEtgA8ALAu8ZmAevK3i2pB8tkNHXHskOhEDa+UWF8c9PJ0gEAQgMiIAd+XxjgYFt6iPgt5LOG8DnrpL+VEGun0naPSA9osiLAMY/L30gDQQgMFACN65gaOs0CA5twen8kv63pjx/lrRbizR5NC8CGP+89IE0EIDAwAm8r6bRXdUgOKOhQd5r4lhoVdzLfvu1pO0GrqMxZA/jPwYtk0cIQCArApeSdGpgI8ALAv+jYg5d6fuMAh8zvMzAV7nuOAjlEsD4l6s7JIcABAon4AV3VQxt1XsOqsDjypK+E5SuHRJtVSFNbsmPAMY/P50gEQQgMCICdg50QpAxdiPhREk7LeHn0QGv4o8cdXCaN1ySHpfzJYDxz1c3SAYBCIyIwH0CGwA2yF5bMB8uJumzwelMRyXuP58Y/2dNAOOftXoQDgIQGBMB98yPDDbOt50BePfJyMDUYEd/PmQmLb7mTQDjn7d+kA4CEBghAbv0tWvfKOP8K0mXkPSOwDiXyXbnEeqrxCxj/EvUGjJDAAKjIODDfZYZ2SbXTw+Ob5EMbrTsOArtlJ1JjH/Z+kN6CEBg4AS8p/73HRjtRYa86bXPDVwnQ8gexn8IWiQPEIDA4Ancu7AGwK0Gr5GyM4jxL1t/SA8BCIyIgM8J+GIhjYA3jEgvJWYV41+i1pAZAhAYNQH72O9i/r7psL+fe68kH21MyJMAxj9PvSAVBCAAgbUEnp7pKIAbJo+R5JEKQp4EbPwPT1h+vPDzgDyzjlQQgAAEyidg97rfS1iJN+n9f1/S1ctHO+gceFTmwwnLjc+OqOJuetCQyRwEIACB1AT2DPYN0MTo+xlX+odJ2jZ1hom/FQGMfyt8PAwBCEAgLwKvSNibq9Ig+K0kVvrnVSYWSYPxX0SFaxCAAAQKJnAeSb/oqRHghX47FMxuLKJj/MeiafIJAQiMjsA+HTcAfMTvvUZHucwMs+CvTL0hNQQgAIHKBF7XUSPgK5IuXVkqbuyTAD3/PumTNgQgAIGOCHgq4PiEjYAzJD1Z0uYd5Ydk2hHA+Lfjx9MQgAAEiiKw92RFfpXFe3Xu8XbDqxVAwscm30TSIZJeK8mjIo+TdB1J/m0sgWH/sWiafEIAAhCYIfDyBKMAduyTc7DToftL+vGKvH9X0l45ZyJINox/EEiigQAEIFAaAe/F/8kKQ1in5z+918P/N8wUxNaSPlQxv/+U9PhM8xEhFsY/giJxQAACECiYgIe8bbSnBjzi0/v9L5IZk20kfbpBPg/OLB8R4mD8IygSBwQgAIEBEPCCvQjDPxuHTyHcMhM2TY2/8+PzCnbPJB8RYmD8IygSBwQgAIGBENhC0pcSNAIOzYBPG+M/bdB8LIN8RIiA8Y+gSBwQgAAEBkbgkpJOTNAIuHOPnCKMvxsBXg9wwR7zEZE0xj+CInFAAAIQGCiBuyZoAPxd0pV74BVl/KejAPv2kIeoJDH+USSJBwIQgMCACbwlQSPg5x33oG38PxWcD28dLDH4KGiO9C1Rc8gMAQhAoGMC55L0/WDj6V60FwXaGKUOKYy/5ffoSGkB41+axpAXAhCAQM8EdpN0coJGwBsS5yuV8XcD4BqJZY+OHuMfTZT4IAABCIyEwAEJGgA2pA9OxC96zt+yTv/+IsnxlxKY8y9FU8gJAQhAIFMCKdYD2OmQffBHhpTG342A50cKmzgujH9iwEQPAQhAYAwEvB7g2Jme8LRH3PbT2w2vGATQxv8zCWSc5tG9/52CZE0dDcY/NWHihwAEIDAiAleQ5K18U4MY9enjiHdsyTG18ff+/1u3lLGrxzH+XZEmHQhAAAIjInC7REcHHyXJowxNQuphfxv//ZsI1sMzLPjrATpJQgACEBgLgeclGAXwaILd7NoVcZ2A8d9AC+O/gQXfIAABCEAgAYHNJX08USPg1TXkxfhvgIXx38CCbxCAAAQgkJDADpLs1S9qHcBsPIdUkLuLOf+7V5Ajh1uY889BC8gAAQhAYEQE7Nc/hZOgsyTZ98Cy0EXP/x7LEs/sOj3/zBSCOBCAAATGQuBuiRYFeuHdbRdApOe/AQo9/w0s+AYBCEAAAj0QeEaiqYDT5hwF0fPfoFx6/htY8A0CEIAABHoisJmkdyRqBJwk6WoT97ufTpSG1x94xIFh/7PXdHgK5qCeyhLJQgACEIBAYQS2leS9/LOL+aK+/1bS5xPFPTX+nsooITDsX4KWkBECEIDAyAhcRNIvExrqqAbFbDz0/Dc02uj5j+yFJbsQgAAEIgnsIemUQhoBNv70/M9uAJy5ZudFZBkhLghAAAIQGCiBW03m1Gd72rl9p+dPz3+grx/ZggAEINAvgftnPAqA8cf49/t2kDoEIACBgRNIdWZAm9EEjD/Gf+CvHdmDAAQg0D8Bbw98S0YjARh/jH//bwUSQAACEBgJgXNI+lQGjQCMP8Z/JK8c2YQABCCQD4HzSzqmx0aAjf9d88GxUhL2+a/Ew48QgAAEIFAagQtK+mEPjQB6/vT8S3tXkBcCEIDA4AjsIuk3HTYCbPxLOdIX3/6DK+5kCAIQgAAEZglcUdKfOmgEYPzp+c+WO75DAAIQgEAGBK4t6eTEjYB7Z5DPKiIw51+FEvdAAAIQgMBgCNxMko/7bbOnf9WzH5dk45pzwPjnrB1kgwAEIACBZARuIenUhI2AIzJuBDDnn6xYETEEIAABCJRA4HaSzhhZIwDjX0LJREYIQAACEEhO4A4jagRg/JMXJxKAAAQgAIGSCOwvyUfSrprXb/NbDtMBGP+SSiSyQgACEIBAZwQOkHRWwkZAnwsDWfDXWTEiIQhAAAIQKJHAfQc4EkDPv8SSiMwQgAAEINA5gSE1AjD+nRcfEoQABCAAgZIJDKERgPEvuQQiOwQgAAEI9Eag5EYAxr+3YkPCEIAABCAwBAIlNgIw/kMoeeQBAhCAAAR6J1BSIwDj33txQQAIQAACEBgSgRIaARj/IZU48gIBCEAAAtkQODBjPwFbSzo8oQ8DO0mynwQCBCAAAQhAYJQEUo8EfFPSxWqS3UnSVxMafztHOqimTNwOAQhAAAIQGByB1CMBJ0hyGluuIeffbZh/l9D40/NfowR+hgAEIACBcRFI3QjwuQM/l3SopH0kXUHSjpKuKGlfSS+WdHxCw+/0Mf7jKtPkFgIQgAAEKhJIPR3Q5vChts8y7F+xEHAbBCAAAQiMk8AQGwEY/3GWZXINAQhAAAI1CQypEYDxr6l8bocABCAAgXETGEIjAOM/7jJM7iEAAQhAoCGBkhsBGP+GSucxCEAAAhCAgAmU2AjA+FN2IQABCEAAAgEESmoEYPwDFE4UEIAABCAAgSmBEhoBGP+ptviEAAQgAAEIBBLowllQ0/3+OPkJVDRRQQACEIAABOYJ3E3S6Yk99tVtBJwm6a7zgvI/BCAAAQhAAAKxBG4u6a+ZNAJOlLR3bPaIDQIQgAAEIACBZQQukfjEviqjAN+QdOllAnIdAhCAAAQgAIE0BLaS9OwepgQ85P8MSedIky1ihQAEIAABCECgCoHLSzq8oymBj0q6bBWhuAcCEIAABCAAgW4IXFPSBybH7lYZwq96j1f4v1fSHt1kg1QgAAEIQAACEGhCYGdJj5B0VIvGgI3+kZIeLmmnJkLwDAQgAAEIQAAC/RHYXtJ/SXqWpPdIOlrSbySdNJky8OevJ9ffLemZkm4rabv+RCZlCEAAAhDog8D/B9D4hTu/HUZaAAAAAElFTkSuQmCC;" parent="1" vertex="1">
          <mxGeometry x="140" y="330" width="30" height="30" as="geometry" />
        </mxCell>
      </root>
    </mxGraphModel>
  </diagram>
</mxfile>
